<?xml version="1.0" standalone="no"?>
<!DOCTYPE svg PUBLIC "-//W3C//DTD SVG 1.1//EN" "http://www.w3.org/Graphics/SVG/1.1/DTD/svg11.dtd" >
<svg>
<metadata>
Created by FontForge 20090914 at Sat Sep 29 15:35:53 2012
 By www-data
Copyright (c) 1981, 1982, 1983, 1989 and 1993, Linotype Library GmbH or its affiliated Linotype-Hell companies. All rights reserved.

The digitally encoded machine readable software for producing the Typefaces licensed to you is now the property of Heidelberger Druckmaschinen AG and its licensors, and may not be reproduced, used, displayed, modified, disclosed or transferred without the express written approval of Heidelberger Druckmaschinen AG.

Copyright (c) 1988, 1990, 1993 Adobe Systems Incorporated. All Rights Reserved.
</metadata>
<defs>
<font id="HelveticaNeue-UltraLight" horiz-adv-x="500" >
  <font-face 
    font-family="Helvetica Neue"
    font-weight="100"
    font-stretch="normal"
    units-per-em="1000"
    panose-1="2 0 2 6 0 0 0 2 0 4"
    ascent="800"
    descent="-200"
    x-height="514"
    cap-height="714"
    bbox="-433 -351 1156 1131"
    underline-thickness="50"
    underline-position="-75"
    unicode-range="U+0008-U+FB02"
  />
<missing-glyph 
d="M442 8h-384v496h384v-496zM50 512v-512h400v512h-400z" />
    <glyph glyph-name="fi" unicode="fi" horiz-adv-x="333" 
d="M0 494h87.002v-494h20v494h111v20h-111v107c0 25.333 4.83301 43.833 14.5 55.5s30.5 17.5 62.5 17.5c7.33301 0 14.666 -0.333008 21.999 -1s15.666 -1.66699 24.999 -3v20c-5.33301 0.666992 -11.5 1.5 -18.5 2.5s-15.167 1.5 -24.5 1.5
c-10.667 0 -22 -0.666992 -34 -2s-23 -4.83301 -33 -10.5s-18.167 -14.167 -24.5 -25.5s-9.5 -27.333 -9.5 -48v-114h-87v-20zM278.002 613v101h-20v-101h20zM278.002 0v514h-20v-514h20z" />
    <glyph glyph-name="fl" unicode="fl" horiz-adv-x="333" 
d="M278 0v714h-20v-714h20zM0 494h87.002v-494h20v494h111v20h-111v107c0 25.333 4.83301 43.833 14.5 55.5s30.5 17.5 62.5 17.5c7.33301 0 14.666 -0.333008 21.999 -1s15.666 -1.66699 24.999 -3v20c-5.33301 0.666992 -11.5 1.5 -18.5 2.5s-15.167 1.5 -24.5 1.5
c-10.667 0 -22 -0.666992 -34 -2s-23 -4.83301 -33 -10.5s-18.167 -14.167 -24.5 -25.5s-9.5 -27.333 -9.5 -48v-114h-87v-20z" />
    <glyph glyph-name=".notdef" 
d="M442 8h-384v496h384v-496zM50 512v-512h400v512h-400z" />
    <glyph glyph-name="controlBS" horiz-adv-x="0" 
 />
    <glyph glyph-name="controlHT" unicode="&#x9;" horiz-adv-x="278" 
 />
    <glyph glyph-name="controlCR" unicode="&#xd;" horiz-adv-x="278" 
 />
    <glyph glyph-name="controlGS" horiz-adv-x="0" 
 />
    <glyph glyph-name="space" unicode=" " horiz-adv-x="278" 
 />
    <glyph glyph-name="exclam" unicode="!" horiz-adv-x="185" 
d="M83 182h20v532h-20v-532zM83 0h20v98h-20v-98z" />
    <glyph glyph-name="quotedbl" unicode="&#x22;" horiz-adv-x="278" 
d="M205 489v225h-20v-225h20zM93 489v225h-20v-225h20z" />
    <glyph glyph-name="numbersign" unicode="#" horiz-adv-x="556" 
d="M185 249l24 177h171l-24 -177h-171zM245 680h-20l-31 -234h-131v-20h126l-24 -177h-130v-20h125l-31 -229h20l31 229h172l-31 -229h20l31 229h121v20h-117l24 177h121v20h-116l31 234h-20l-31 -234h-171z" />
    <glyph glyph-name="dollar" unicode="$" horiz-adv-x="556" 
d="M285 3l0.00195312 352l81 -19c27.333 -6.66699 52.166 -16.167 74.499 -28.5s40.666 -28.833 54.999 -49.5s21.5 -48 21.5 -82c0 -30.667 -6.83301 -57 -20.5 -79s-31.5 -40 -53.5 -54s-46.833 -24.167 -74.5 -30.5s-55.5 -9.5 -83.5 -9.5zM26.002 237h-20
c-0.666992 -43.333 5.33301 -80.5 18 -111.5s30.5 -56.833 53.5 -77.5s50.5 -36 82.5 -46s67 -15.667 105 -17v-89h20v88c30.667 0 61 3.5 91 10.5s57 18.333 81 34s43.333 35.5 58 59.5s22 53 22 87c0 37.333 -6.5 67 -19.5 89s-30.5 39.667 -52.5 53s-47.833 24 -77.5 32
l-94.5 25l-8 2v334c30.667 -0.666992 59 -4.66699 85 -12s48.667 -18.833 68 -34.5s34.666 -35.667 45.999 -60s17.666 -54.166 18.999 -89.499h20c-2 38.667 -9.16699 71.5 -21.5 98.5s-29 49 -50 66s-45.667 29.667 -74 38s-59.166 12.833 -92.499 13.5v44h-20v-43
c-28 0 -56.167 -3 -84.5 -9s-53.833 -16.167 -76.5 -30.5s-41.167 -33.333 -55.5 -57s-21.5 -52.834 -21.5 -87.501s7 -62.667 21 -84s32.333 -38.5 55 -51.5s48.167 -23.167 76.5 -30.5s56.833 -14.333 85.5 -21v-356c-35.333 1.33301 -67.666 6.5 -96.999 15.5
s-54.5 22.833 -75.5 41.5s-37.333 42.5 -49 71.5s-17.5 63.833 -17.5 104.5zM265.002 711l-0.000976562 -330.001c-28 6 -55.167 12.5 -81.5 19.5s-49.666 16.333 -69.999 28s-36.5 26.834 -48.5 45.501s-18 43 -18 73c0 31.333 6.66699 57.5 20 78.5s30.5 37.833 51.5 50.5
s44.5 21.667 70.5 27s51.333 8 76 8z" />
    <glyph glyph-name="percent" unicode="%" horiz-adv-x="685" 
d="M564 714l-476 -747h23l476 747h-23zM357 157c0 -22 3.00098 -43.165 9.00098 -63.498s15.167 -38.333 27.5 -54s28.166 -28 47.499 -37s42 -13.5 68 -13.5c25.333 0 47.5 4.5 66.5 13.5s35.167 21.167 48.5 36.5s23.333 33.166 30 53.499s10 42.166 10 65.499
c0 50 -13.167 91.167 -39.5 123.5s-64.833 48.5 -115.5 48.5c-24 0 -45.5 -4.33301 -64.5 -13s-35 -20.667 -48 -36s-22.833 -33.5 -29.5 -54.5s-10 -44.167 -10 -69.5zM41.001 519.002c0 44 10.5 80.501 31.5 109.501s54.5 43.5 100.5 43.5s80 -14 102 -42s33 -65 33 -111
c0 -20 -2.83301 -39 -8.5 -57s-14.167 -33.833 -25.5 -47.5s-25.5 -24.5 -42.5 -32.5s-36.5 -12 -58.5 -12s-41.333 4 -58 12s-30.5 18.667 -41.5 32s-19.167 29.166 -24.5 47.499s-8 37.5 -8 57.5zM21.001 519.003c0 -22 3.00098 -43.1689 9.00098 -63.502
s15.167 -38.333 27.5 -54s28.166 -28.167 47.499 -37.5s42 -14 68 -14c25.333 0 47.5 4.5 66.5 13.5s35.167 21.333 48.5 37s23.333 33.834 30 54.501s10 42.334 10 65.001c0 50 -13.167 91.167 -39.5 123.5s-64.833 48.5 -115.5 48.5c-24 0 -45.5 -4.33301 -64.5 -13
s-35 -20.667 -48 -36s-22.833 -33.5 -29.5 -54.5s-10 -44.167 -10 -69.5zM377.002 157.001c0 44 10.5 80.501 31.5 109.501s54.5 43.5 100.5 43.5s80 -14 102 -42s33 -65 33 -111c0 -20 -2.83301 -39 -8.5 -57s-14.167 -33.833 -25.5 -47.5s-25.5 -24.5 -42.5 -32.5
s-36.5 -12 -58.5 -12s-41.333 4 -58 12s-30.5 18.667 -41.5 32s-19.167 29.166 -24.5 47.499s-8 37.5 -8 57.5z" />
    <glyph glyph-name="ampersand" unicode="&#x26;" horiz-adv-x="574" 
d="M572 0l-104.997 133.001c10 22.667 17.667 44.834 23 66.501s7.66602 47.5 6.99902 77.5h-20c1.33301 -26.667 -0.666992 -50.667 -6 -72s-11.333 -39.333 -18 -54l-188 238c16 12 33.333 24.333 52 37s35.667 26.5 51 41.5s28.166 31.667 38.499 50s15.5 39.5 15.5 63.5
c0 21.333 -3.83301 40.166 -11.5 56.499s-18.167 30.166 -31.5 41.499s-28.833 20 -46.5 26s-36.5 9 -56.5 9c-18 0 -35.667 -2.66699 -53 -8s-32.833 -13.333 -46.5 -24s-24.834 -24.334 -33.501 -41.001s-13 -36.667 -13 -60c0 -16.667 3.66699 -33.167 11 -49.5
s16.5 -32.333 27.5 -48s22.5 -31 34.5 -46s23 -29.5 33 -43.5l-66 -42.5c-22.667 -15 -43.334 -31.833 -62.001 -50.5s-34 -39.5 -46 -62.5s-18 -49.167 -18 -78.5c0 -28 6 -52.833 18 -74.5s27.5 -40 46.5 -55s40.833 -26.5 65.5 -34.5s49.334 -12 74.001 -12
c50.667 0 93.167 12.333 127.5 37s61.5 55.334 81.5 92.001l89 -113h26zM248.003 378.001l196 -246c-18.667 -38 -44 -69 -76 -93s-72 -36 -120 -36c-22.667 0 -45.167 3.33301 -67.5 10s-42 16.667 -59 30s-30.833 29.833 -41.5 49.5s-16 42.167 -16 67.5
c0 28 5.83301 52.667 17.5 74s26.5 40.5 44.5 57.5s37.833 32.5 59.5 46.5zM150.003 583.001c0 17.333 3.33203 32.832 9.99902 46.499s15.834 25.334 27.501 35.001s25.167 17 40.5 22s31.666 7.5 48.999 7.5c16.667 0 32.5 -2.66699 47.5 -8s28.333 -12.833 40 -22.5
s20.834 -21.5 27.501 -35.5s10 -29.667 10 -47c0 -20.667 -5.16699 -39.667 -15.5 -57s-23 -33.166 -38 -47.499s-31.167 -27.5 -48.5 -39.5l-47 -33l-46.5 61c-13 17.333 -23.667 32.833 -32 46.5s-14.5 26.167 -18.5 37.5s-6 22.666 -6 33.999z" />
    <glyph glyph-name="quotesingle" unicode="'" horiz-adv-x="167" 
d="M74 714v-225h20v225h-20z" />
    <glyph glyph-name="parenleft" unicode="(" horiz-adv-x="222" 
d="M204 731h-20c-38 -68.667 -66.833 -141 -86.5 -217s-29.5 -153.333 -29.5 -232c0 -43.333 2.5 -84.5 7.5 -123.5s12.333 -77 22 -114s21.834 -73.5 36.501 -109.5s31.667 -73 51 -111h20c-38.667 70.667 -67.834 144.5 -87.501 221.5s-29.5 155.833 -29.5 236.5
c0 78.667 9.83301 156 29.5 232s48.5 148.333 86.5 217z" />
    <glyph glyph-name="parenright" unicode=")" horiz-adv-x="222" 
d="M18 -176h20c38 68.667 66.833 140.834 86.5 216.501s29.5 152.834 29.5 231.501c0 43.333 -2.5 84.5 -7.5 123.5s-12.333 77 -22 114s-21.834 73.667 -36.501 110s-31.667 73.5 -51 111.5h-20c38.667 -70.667 67.834 -144.667 87.501 -222s29.5 -156.333 29.5 -237
c0 -78.667 -9.83301 -155.834 -29.5 -231.501s-48.5 -147.834 -86.5 -216.501z" />
    <glyph glyph-name="asterisk" unicode="*" horiz-adv-x="352" 
d="M184 714h-20v-140l-126 43l-6 -19l130 -43l-88 -104l16 -13l84 104l83 -108l16 12l-83 109l130 43l-4 19l-132 -43v140z" />
    <glyph glyph-name="plus" unicode="+" horiz-adv-x="600" 
d="M290 506v-243h-242v-20h242v-243h20v243h242v20h-242v243h-20z" />
    <glyph glyph-name="comma" unicode="," horiz-adv-x="278" 
d="M149 98h-19.999v-98c0 -26.667 -1.83301 -47.5 -5.5 -62.5s-9.83398 -26.833 -18.501 -35.5v-20c16.667 11.333 28.167 26.333 34.5 45s9.5 43 9.5 73v98z" />
    <glyph glyph-name="hyphen" unicode="-" horiz-adv-x="333" 
d="M79 278v-20h175v20h-175z" />
    <glyph glyph-name="period" unicode="." horiz-adv-x="278" 
d="M149 0v98h-20v-98h20z" />
    <glyph glyph-name="slash" unicode="/" horiz-adv-x="333" 
d="M-6 -16h19l327 747h-20z" />
    <glyph glyph-name="zero" unicode="0" horiz-adv-x="556" 
d="M535 340c0 42.667 -4.16699 85 -12.5 127s-22.5 79.667 -42.5 113s-46.333 60.333 -79 81s-73.667 31 -123 31c-48.667 0 -89.5 -10.333 -122.5 -31s-59.5 -47.667 -79.5 -81s-34.167 -71 -42.5 -113s-12.5 -84.333 -12.5 -127s4.16699 -85 12.5 -127
s22.5 -79.667 42.5 -113s46.5 -60.166 79.5 -80.499s73.833 -30.5 122.5 -30.5c49.333 0 90.333 10.167 123 30.5s59 47.166 79 80.499s34.167 71 42.5 113s12.5 84.333 12.5 127zM515 340c0 -38 -3.66699 -76.667 -11 -116s-20 -75 -38 -107s-42.167 -58.167 -72.5 -78.5
s-68.833 -30.5 -115.5 -30.5s-85.167 10.167 -115.5 30.5s-54.5 46.5 -72.5 78.5s-30.667 67.667 -38 107s-11 78 -11 116s3.66699 76.667 11 116s20 75 38 107s42.167 58.167 72.5 78.5s68.833 30.5 115.5 30.5s85.167 -10.167 115.5 -30.5s54.5 -46.5 72.5 -78.5
s30.667 -67.667 38 -107s11 -78 11 -116z" />
    <glyph glyph-name="one" unicode="1" horiz-adv-x="556" 
d="M298 654v-654h20v680h-22c-14 -16 -27.5 -30.333 -40.5 -43s-26.5 -24 -40.5 -34s-29 -19 -45 -27s-34.333 -15.333 -55 -22v-20c34 9.33301 67.5 24.5 100.5 45.5s59.833 45.833 80.5 74.5h2z" />
    <glyph glyph-name="two" unicode="2" horiz-adv-x="556" 
d="M513 20l-437.998 -0.00488281c2.66699 29.333 15 56.5 37 81.5s48.5 49.333 79.5 73s64.167 47.334 99.5 71.001s68.166 48.834 98.499 75.501s55.5 55.334 75.5 86.001s30 64.667 30 102c0 30.667 -5.5 57.334 -16.5 80.001s-25.833 41.667 -44.5 57
s-40.667 26.833 -66 34.5s-52.666 11.5 -81.999 11.5c-72.667 0 -127.167 -20.5 -163.5 -61.5s-54.833 -98.833 -55.5 -173.5h20c0 31.333 3.66699 60.166 11 86.499s19 49 35 68s36.667 33.833 62 44.5s55.666 16 90.999 16c27.333 0 52.5 -3.5 75.5 -10.5
s42.833 -17.333 59.5 -31s29.834 -30.667 39.501 -51s14.5 -43.833 14.5 -70.5s-5.83301 -51.5 -17.5 -74.5s-27.167 -44.667 -46.5 -65s-41.333 -39.833 -66 -58.5l-76 -55l-76.5 -54.5c-25.667 -18.333 -48.834 -37.666 -69.501 -57.999s-37.334 -42.166 -50.001 -65.499
s-18.667 -49.333 -18 -78h458v20z" />
    <glyph glyph-name="three" unicode="3" horiz-adv-x="556" 
d="M59 469l19.9932 0.000976562c-0.666992 34 3.83301 63.667 13.5 89s23.834 46.5 42.501 63.5s41.167 29.667 67.5 38s55.833 12.5 88.5 12.5c24 0 47.333 -2.5 70 -7.5s43 -13.333 61 -25s32.667 -26.834 44 -45.501s17.333 -41.667 18 -69
c0 -28 -5.33301 -51.5 -16 -70.5s-24.667 -34.333 -42 -46s-36.833 -20 -58.5 -25s-43.5 -7.5 -65.5 -7.5h-49v-20h49c28 -1.33301 53.833 -5.33301 77.5 -12s44.334 -16.667 62.001 -30s31.334 -30.333 41.001 -51s14.5 -45.667 14.5 -75s-5.83301 -55.166 -17.5 -77.499
s-27.167 -41.166 -46.5 -56.499s-41.666 -26.833 -66.999 -34.5s-51.666 -11.5 -78.999 -11.5c-35.333 0 -67.666 4.83301 -96.999 14.5s-54 23.834 -74 42.501s-35 41.834 -45 69.501s-13.667 59.5 -11 95.5h-20c-2.66699 -38.667 1.5 -73 12.5 -103
s27.5 -55.167 49.5 -75.5s48.667 -35.833 80 -46.5s66.333 -16 105 -16c31.333 0 60.833 4.33301 88.5 13s52 21.5 73 38.5s37.667 37.833 50 62.5s18.5 53 18.5 85c0 29.333 -4.5 54.666 -13.5 75.999s-21 39.166 -36 53.499s-32 25.333 -51 33s-38.5 12.5 -58.5 14.5v2
c42 4 76.833 19.333 104.5 46s41.5 64 41.5 112c0 30 -6 55.667 -18 77s-28 38.666 -48 51.999s-42.667 23 -68 29s-51.666 9 -78.999 9c-35.333 0 -67.5 -4.66699 -96.5 -14s-53.667 -23.333 -74 -42s-35.833 -41.834 -46.5 -69.501s-15.667 -60.167 -15 -97.5z" />
    <glyph glyph-name="four" unicode="4" horiz-adv-x="556" 
d="M34 177h345v-177h20v177h123v20h-123v483h-25l-340 -479v-24zM379 652v-455h-325l323 455h2z" />
    <glyph glyph-name="five" unicode="5" horiz-adv-x="556" 
d="M147 660l332.996 -0.00390625v20h-349l-73 -343h25c18.667 34 45 59.833 79 77.5s71 26.5 111 26.5c32 0 61.333 -5.33301 88 -16s49.334 -25.5 68.001 -44.5s33.167 -41.667 43.5 -68s15.5 -55.166 15.5 -86.499c0 -32.667 -5 -62.5 -15 -89.5s-24.333 -50 -43 -69
s-41.167 -33.667 -67.5 -44s-56.166 -15.5 -89.499 -15.5c-32.667 0 -62.667 4.66699 -90 14s-50.5 23 -69.5 41s-33.5 40 -43.5 66s-14.333 55.667 -13 89h-20c-1.33301 -36.667 3.66699 -69.167 15 -97.5s27.5 -52.166 48.5 -71.499s46.333 -34.166 76 -44.499
s61.834 -15.5 96.501 -15.5c35.333 0 67.333 5.5 96 16.5s53.334 26.833 74.001 47.5s36.667 45.667 48 75s17 62 17 98c0 34 -5.66699 65.5 -17 94.5s-27.333 53.833 -48 74.5s-45.334 36.834 -74.001 48.501s-60.667 17.5 -96 17.5c-40 0 -76.167 -7.33301 -108.5 -22
s-58.166 -38 -77.499 -70h-2z" />
    <glyph glyph-name="six" unicode="6" horiz-adv-x="556" 
d="M485 520l20.0039 -0.00195312c-3.33301 24 -10.666 46.5 -21.999 67.5s-26 39.167 -44 54.5s-39.167 27.5 -63.5 36.5s-51.166 13.5 -80.499 13.5c-50 0 -91.333 -11.333 -124 -34s-58.834 -52 -78.501 -88s-33.5 -76 -41.5 -120s-12 -87 -12 -129
c0 -44 2.66699 -85.167 8 -123.5s17.666 -72.5 36.999 -102.5c8.66699 -13.333 19.5 -26.333 32.5 -39s27.833 -24 44.5 -34s35.167 -18 55.5 -24s42.166 -9 65.499 -9c31.333 0 61.166 5.83301 89.499 17.5s53.333 27.834 75 48.501s38.834 45.334 51.501 74.001
s19 60 19 94c0 35.333 -6.66699 67.333 -20 96s-31 53.334 -53 74.001s-47.167 36.667 -75.5 48s-57.166 17 -86.499 17c-26.667 0 -52.5 -4.33301 -77.5 -13s-47.333 -20.834 -67 -36.501s-36.334 -33.834 -50.001 -54.501s-22.834 -43 -27.501 -67h-2
c-0.666992 39.333 1.66602 81.333 6.99902 126s16.5 86.334 33.5 125.001s41.167 70.667 72.5 96s72.333 38 123 38c17.333 0 35.666 -2.16699 54.999 -6.5s38 -12.166 56 -23.499s34.167 -26.833 48.5 -46.5s24.833 -44.834 31.5 -75.501zM497.004 222.998
c0 -30 -5.66699 -58 -17 -84s-26.666 -48.667 -45.999 -68s-42 -34.666 -68 -45.999s-54 -17 -84 -17s-58 5.66699 -84 17s-48.667 26.666 -68 45.999s-34.666 42 -45.999 68s-17 54 -17 84s5.66699 58 17 84s26.666 48.667 45.999 68s42 34.666 68 45.999s54 17 84 17
s58 -5.66699 84 -17s48.667 -26.666 68 -45.999s34.666 -42 45.999 -68s17 -54 17 -84z" />
    <glyph glyph-name="seven" unicode="7" horiz-adv-x="556" 
d="M61 660l411.998 -0.000976562c-46 -46 -87.833 -93.667 -125.5 -143s-70 -101.166 -97 -155.499s-47.667 -111.5 -62 -171.5s-21.166 -123.333 -20.499 -190h20c0 68 7.33301 131.5 22 190.5s35.334 115 62.001 168s59 103.833 97 152.5s80 96 126 142v27h-434v-20z" />
    <glyph glyph-name="eight" unicode="8" horiz-adv-x="556" 
d="M471 520c0 -24 -5.83301 -44.833 -17.5 -62.5s-26.667 -32 -45 -43s-39 -19.167 -62 -24.5s-45.833 -8 -68.5 -8s-45.5 2.66699 -68.5 8s-43.667 13.5 -62 24.5s-33.333 25.333 -45 43s-17.5 38.5 -17.5 62.5c0 29.333 5.5 53.666 16.5 72.999s25.5 34.833 43.5 46.5
s38.5 20 61.5 25s46.833 7.5 71.5 7.5s48.5 -2.5 71.5 -7.5s43.5 -13.333 61.5 -25s32.5 -27.167 43.5 -46.5s16.5 -43.666 16.5 -72.999zM351 373l0.00195312 2c19.333 2.66699 37.5 8.16699 54.5 16.5s31.833 18.666 44.5 30.999s22.667 26.833 30 43.5s11 34.667 11 54
c0 30.667 -5.5 56.834 -16.5 78.501s-26.167 39.5 -45.5 53.5s-42 24.167 -68 30.5s-53.667 9.5 -83 9.5s-57 -3.16699 -83 -9.5s-48.667 -16.5 -68 -30.5s-34.5 -31.833 -45.5 -53.5s-16.5 -47.834 -16.5 -78.501c0 -19.333 3.66699 -37.333 11 -54
s17.333 -31.167 30 -43.5s27.5 -22.666 44.5 -30.999s35.167 -13.833 54.5 -16.5v-2c-54 -5.33301 -96.5 -24.166 -127.5 -56.499s-46.5 -74.5 -46.5 -126.5c0 -35.333 6.66699 -65.666 20 -90.999s31.166 -46.166 53.499 -62.499s48.5 -28.333 78.5 -36
s61.667 -11.5 95 -11.5s65 3.83301 95 11.5s56.167 19.667 78.5 36s40.166 37.166 53.499 62.499s20 55.666 20 90.999c0 52 -15.5 94.167 -46.5 126.5s-73.5 51.166 -127.5 56.499zM505.002 190c0 -32.667 -6.16504 -60.5 -18.498 -83.5s-29 -41.833 -50 -56.5
s-45.167 -25.334 -72.5 -32.001s-56 -10 -86 -10s-58.667 3.33301 -86 10s-51.5 17.334 -72.5 32.001s-37.667 33.5 -50 56.5s-18.5 50.833 -18.5 83.5s6.33301 60 19 82s29.5 39.667 50.5 53s45.167 22.833 72.5 28.5s55.666 8.5 84.999 8.5s57.666 -2.83301 84.999 -8.5
s51.5 -15.167 72.5 -28.5s37.833 -31 50.5 -53s19 -49.333 19 -82z" />
    <glyph glyph-name="nine" unicode="9" horiz-adv-x="556" 
d="M489 457c0 -30 -5.66699 -58 -17 -84s-26.666 -48.667 -45.999 -68s-42 -34.666 -68 -45.999s-54 -17 -84 -17s-58 5.66699 -84 17s-48.667 26.666 -68 45.999s-34.666 42 -45.999 68s-17 54 -17 84s5.66699 58 17 84s26.666 48.667 45.999 68s42 34.666 68 45.999
s54 17 84 17s58 -5.66699 84 -17s48.667 -26.666 68 -45.999s34.666 -42 45.999 -68s17 -54 17 -84zM71 160l-19.9971 -0.00488281c3.33301 -24 10.666 -46.5 21.999 -67.5s26 -39.167 44 -54.5s39.167 -27.333 63.5 -36s51.166 -13 80.499 -13c50 0 91.5 11.333 124.5 34
s59.333 51.834 79 87.501s33.5 75.334 41.5 119.001s12 86.834 12 129.501c0 44 -2.66699 85.167 -8 123.5s-18 72.5 -38 102.5c-8.66699 13.333 -19.5 26.333 -32.5 39s-27.833 24 -44.5 34s-35.167 18.167 -55.5 24.5s-42.166 9.5 -65.499 9.5
c-31.333 0 -61.166 -5.83301 -89.499 -17.5s-53.333 -28 -75 -49s-38.834 -45.833 -51.501 -74.5s-19 -60 -19 -94c0 -34.667 6.66699 -66.5 20 -95.5s31 -53.833 53 -74.5s47.167 -36.667 75.5 -48s57.166 -17 86.499 -17c27.333 0 53.333 4.33301 78 13
s46.834 20.834 66.501 36.501s36.167 33.834 49.5 54.501s22.666 43 27.999 67h2c0.666992 -26 0 -53.5 -2 -82.5s-6.16699 -57.833 -12.5 -86.5s-15 -56 -26 -82s-25.333 -49 -43 -69s-39 -35.833 -64 -47.5s-54.5 -17.5 -88.5 -17.5
c-16.667 0 -34.834 2.16699 -54.501 6.5s-38.5 12.166 -56.5 23.499s-34.167 26.833 -48.5 46.5s-24.833 44.834 -31.5 75.501z" />
    <glyph glyph-name="colon" unicode=":" horiz-adv-x="278" 
d="M129 416h20v98h-20v-98zM129 0h20v98h-20v-98z" />
    <glyph glyph-name="semicolon" unicode=";" horiz-adv-x="278" 
d="M129 416h20v98h-20v-98zM149 0l0.000976562 98h-20v-98c0 -26.667 -1.83301 -47.5 -5.5 -62.5s-9.83398 -26.833 -18.501 -35.5v-20c16.667 11.333 28.167 26.333 34.5 45s9.5 43 9.5 73z" />
    <glyph glyph-name="less" unicode="&#x3c;" horiz-adv-x="600" 
d="M554 -7v20l-490 240l490 240v21l-508 -249v-24z" />
    <glyph glyph-name="equal" unicode="=" horiz-adv-x="600" 
d="M48 146h504v20h-504v-20zM48 340h504v20h-504v-20z" />
    <glyph glyph-name="greater" unicode="&#x3e;" horiz-adv-x="600" 
d="M536 253l-490 -240v-20l508 248v24l-508 249v-21z" />
    <glyph glyph-name="question" unicode="?" 
d="M232 0h20v98h-20v-98zM35 493l20.002 -0.00292969c-1.33301 32 2 61.5 10 88.5s20.333 50 37 69s37.667 33.833 63 44.5s54.333 16 87 16c25.333 0 48.833 -3.16699 70.5 -9.5s40.334 -15.666 56.001 -27.999s28 -27.666 37 -45.999s13.5 -39.166 13.5 -62.499
c0 -25.333 -4.33301 -47.833 -13 -67.5s-18.834 -36.5 -30.501 -50.5s-22.834 -25.333 -33.501 -34s-18 -15 -22 -19c-18.667 -18 -34.334 -35 -47.001 -51s-22.667 -32.167 -30 -48.5s-12.666 -33.5 -15.999 -51.5s-5 -38.333 -5 -61h20c0 24 1.83301 45 5.5 63
s9.33398 34.5 17.001 49.5s17.834 29.667 30.501 44s28 30.166 46 47.499l29 26c11.333 10 22.166 22.167 32.499 36.5s19 31 26 50s10.5 41.167 10.5 66.5c0 26.667 -5.16699 50.334 -15.5 71.001s-24.333 38 -42 52s-38.5 24.667 -62.5 32s-49.667 11 -77 11
c-34.667 0 -65.834 -5.83301 -93.501 -17.5s-50.834 -28 -69.501 -49s-32.667 -46 -42 -75s-13.333 -61.167 -12 -96.5z" />
    <glyph glyph-name="at" unicode="@" horiz-adv-x="800" 
d="M594 547l-24.002 -65.9971h-2c-8.66699 26.667 -25.667 47.5 -51 62.5s-54 22.5 -86 22.5c-35.333 0 -67.666 -9.16699 -96.999 -27.5s-54.333 -41.833 -75 -70.5s-36.667 -59.834 -48 -93.501s-17 -66.167 -17 -97.5c0 -20 3.5 -38.833 10.5 -56.5s16.5 -33 28.5 -46
s26.333 -23.333 43 -31s34.667 -11.5 54 -11.5c23.333 0 47.166 4.16699 71.499 12.5s45.833 25.166 64.5 50.499h2c-3.33301 -18.667 0.833984 -33.834 12.501 -45.501s27.167 -17.5 46.5 -17.5c24 0 48.833 7.33301 74.5 22s49 34.667 70 60s38.167 54.833 51.5 88.5
s20 69.834 20 108.501c0 46 -8.5 87.667 -25.5 125s-40.167 69 -69.5 95s-63.666 46 -102.999 60s-81.333 21 -126 21c-49.333 0 -96 -9 -140 -27s-82.5 -43 -115.5 -75s-59 -69.833 -78 -113.5s-28.5 -91.5 -28.5 -143.5c0 -63.333 10.5 -118 31.5 -164
s48.5 -83.833 82.5 -113.5s72.667 -51.5 116 -65.5s87.333 -21 132 -21c30.667 0 61.167 4.16699 91.5 12.5s59.166 20.166 86.499 35.499s52.666 34 75.999 56s43 46.333 59 73h-23c-15.333 -22 -33.333 -42.667 -54 -62s-43.5 -36.166 -68.5 -50.499
s-51.5 -25.5 -79.5 -33.5s-57.333 -12 -88 -12c-46 0 -89.667 7.33301 -131 22s-77.666 36.5 -108.999 65.5s-56.166 65 -74.499 108s-27.5 92.833 -27.5 149.5c0 47.333 8.66699 91.5 26 132.5s41.333 76.833 72 107.5s66.834 54.834 108.501 72.501
s86.834 26.5 135.501 26.5c43.333 0 83.666 -6.83301 120.999 -20.5s69.5 -32.834 96.5 -57.501s48.167 -54.334 63.5 -89.001s23 -72.667 23 -114c0 -36.667 -6.33301 -70.834 -19 -102.501s-28.5 -59 -47.5 -82s-39.833 -41.167 -62.5 -54.5s-44.334 -20 -65.001 -20
c-13.333 0 -23.333 2.83301 -30 8.5s-10.667 13.334 -12 23.001s-0.333008 21 3 34s8 26.833 14 41.5l111 288h-21zM558.998 456.003l-71.002 -184.001c-9.33301 -24 -20.166 -43.833 -32.499 -59.5s-25.166 -28 -38.499 -37s-27.166 -15.167 -41.499 -18.5
s-28.166 -5 -41.499 -5c-17.333 0 -33.333 3.16699 -48 9.5s-27.334 15.166 -38.001 26.499s-19 24.5 -25 39.5s-9 31.5 -9 49.5c0 28 5.16699 57.667 15.5 89s24.833 60.333 43.5 87s41.167 48.834 67.5 66.501s55.166 26.5 86.499 26.5c12.667 0 25.834 -1.5 39.501 -4.5
s26.667 -8 39 -15s23.166 -16.167 32.499 -27.5s16.333 -25.666 21 -42.999z" />
    <glyph glyph-name="A" unicode="A" horiz-adv-x="575" 
d="M106 235h364l94 -235h22l-282 714h-26l-289 -714h22zM462 255h-348l176 439h2z" />
    <glyph glyph-name="B" unicode="B" horiz-adv-x="611" 
d="M67 382l0.00195312 311.999h287c25.333 0 49 -3.16699 71 -9.5s41.167 -16 57.5 -29s29.166 -29.333 38.499 -49s14 -43.167 14 -70.5c0 -25.333 -5 -47.666 -15 -66.999s-23.333 -35.5 -40 -48.5s-35.834 -22.667 -57.501 -29s-44.5 -9.5 -68.5 -9.5h-287z
M47.002 713.999l-0.00195312 -713.999h295c34 0 65.5 4.16699 94.5 12.5s53.833 20.5 74.5 36.5s36.834 36.167 48.501 60.5s17.5 52.5 17.5 84.5c0 27.333 -4.66699 51.833 -14 73.5s-21.833 40 -37.5 55s-34 26.667 -55 35s-43.167 12.833 -66.5 13.5v2
c22 1.33301 42.167 6.5 60.5 15.5s34.166 20.833 47.499 35.5s23.833 31.667 31.5 51s11.5 39.666 11.5 60.999c0 30 -5.16699 56 -15.5 78s-24.666 40.5 -42.999 55.5s-39.666 26.167 -63.999 33.5s-50.5 11 -78.5 11h-307zM67 20l0.000976562 341.998h287
c25.333 0 50.166 -3 74.499 -9s46 -15.667 65 -29s34.333 -30.666 46 -51.999s17.5 -47.666 17.5 -78.999c0 -29.333 -5.33301 -54.833 -16 -76.5s-25.167 -39.667 -43.5 -54s-40 -25 -65 -32s-52.167 -10.5 -81.5 -10.5h-284z" />
    <glyph glyph-name="C" unicode="C" horiz-adv-x="685" 
d="M662 280l-20.001 -0.00292969c-5.33301 -39.333 -15.666 -76 -30.999 -110s-35.333 -63.333 -60 -88s-54 -44 -88 -58s-72.333 -21 -115 -21c-48 0 -90.833 9.66699 -128.5 29s-69.5 45 -95.5 77s-45.667 69 -59 111s-20 85.667 -20 131c0 37.333 5.5 77 16.5 119
s28.833 80.833 53.5 116.5s57.167 65.334 97.5 89.001s89.833 35.5 148.5 35.5c38.667 0 73.834 -6.16699 105.501 -18.5s59 -28.5 82 -48.5s41.167 -42.5 54.5 -67.5s21 -50.5 23 -76.5h20c-0.666992 22 -7 46.333 -19 73s-29.833 51.834 -53.5 75.501
s-53.167 43.334 -88.5 59.001s-76.666 23.5 -123.999 23.5c-60.667 0 -112.334 -11.667 -155.001 -35s-77.334 -53.333 -104.001 -90s-46.167 -77.5 -58.5 -122.5s-18.5 -89.167 -18.5 -132.5c0 -53.333 8 -102.5 24 -147.5s38.167 -83.667 66.5 -116
s62.333 -57.666 102 -75.999s83.167 -27.5 130.5 -27.5c45.333 0 86 7.33301 122 22s67.167 35 93.5 61s47.833 57.167 64.5 93.5s28 76.166 34 119.499z" />
    <glyph glyph-name="D" unicode="D" horiz-adv-x="648" 
d="M74 20v674h225c36 0 71.167 -5 105.5 -15s65.166 -27.833 92.499 -53.5s49.333 -60.167 66 -103.5s25 -98.333 25 -165c0 -57.333 -8.16699 -107.166 -24.5 -149.499s-38.666 -77.333 -66.999 -105s-61.333 -48.334 -99 -62.001s-77.5 -20.5 -119.5 -20.5h-204zM54 714
l-0.000976562 -713.998h219c43.333 0 85 6.66699 125 20s75.667 34.166 107 62.499s56.333 65.166 75 110.499s28 100 28 164c0 70 -9.16699 128 -27.5 174s-42 82.5 -71 109.5s-61.667 46 -98 57s-72.166 16.5 -107.499 16.5h-250z" />
    <glyph glyph-name="E" unicode="E" horiz-adv-x="537" 
d="M74 20v342h427v20h-427v312h454v20h-474v-714h478v20h-458z" />
    <glyph glyph-name="F" unicode="F" horiz-adv-x="481" 
d="M74 382v312h420v20h-440v-714h20v362h380v20h-380z" />
    <glyph glyph-name="G" unicode="G" horiz-adv-x="722" 
d="M377 314h277.004v-37c0 -39.333 -7.33301 -75.833 -22 -109.5s-34.834 -62.667 -60.501 -87s-55.834 -43.333 -90.501 -57s-71.667 -20.5 -111 -20.5c-52.667 0 -98.834 9.33301 -138.501 28s-72.834 44 -99.501 76s-46.667 69.5 -60 112.5s-20 88.833 -20 137.5
s7 94.5 21 137.5s34.5 80.5 61.5 112.5s60 57.333 99 76s83.5 28 133.5 28c37.333 0 71.5 -5.16699 102.5 -15.5s58.333 -25.166 82 -44.499s43.334 -42.5 59.001 -69.5s26.5 -57.167 32.5 -90.5h20c-6 36.667 -17.167 69.667 -33.5 99s-37.333 54.5 -63 75.5
s-55.334 37.167 -89.001 48.5s-70.5 17 -110.5 17c-52.667 0 -99.667 -9.66699 -141 -29s-76.333 -45.833 -105 -79.5s-50.667 -73.334 -66 -119.001s-23 -94.5 -23 -146.5c0 -51.333 7.16699 -99.666 21.5 -144.999s35.5 -84.833 63.5 -118.5s63 -60.334 105 -80.001
s90.333 -29.5 145 -29.5c70.667 0 131 17 181 51s84.667 81.333 104 142h2v-177h20v334h-297v-20z" />
    <glyph glyph-name="H" unicode="H" horiz-adv-x="648" 
d="M74 362h500v-362h20v714h-20v-332h-500v332h-20v-714h20v362z" />
    <glyph glyph-name="I" unicode="I" horiz-adv-x="128" 
d="M54 714v-714h20v714h-20z" />
    <glyph glyph-name="J" unicode="J" horiz-adv-x="463" 
d="M384 714l0.000976562 -513.002c0 -37.333 -3.83301 -68.666 -11.5 -93.999s-19 -45.666 -34 -60.999s-33.333 -26.333 -55 -33s-46.834 -10 -75.501 -10c-56 0 -98.333 14.5 -127 43.5s-43 72.833 -43 131.5v43h-20v-43c0 -28 3.5 -53.833 10.5 -77.5
s18.167 -44.167 33.5 -61.5s35 -30.833 59 -40.5s53 -14.5 87 -14.5c36 0 66.5 4.83301 91.5 14.5s45.167 23.5 60.5 41.5s26.5 39.333 33.5 64s10.5 52 10.5 82v528h-20z" />
    <glyph glyph-name="K" unicode="K" horiz-adv-x="593" 
d="M74 253l164 145l354 -398h27l-365 410l345 304h-30l-495 -434v434h-20v-714h20v253z" />
    <glyph glyph-name="L" unicode="L" horiz-adv-x="481" 
d="M491 20h-417v694h-20v-714h437v20z" />
    <glyph glyph-name="M" unicode="M" horiz-adv-x="780" 
d="M693 714l-302 -688h-2l-302 688h-33v-714h20v689h2l303 -689h22l303 689h2v-689h20v714h-33z" />
    <glyph glyph-name="N" unicode="N" horiz-adv-x="648" 
d="M54 714v-714h20v689h2l488 -689h30v714h-20v-689h-2l-488 689h-30z" />
    <glyph glyph-name="O" unicode="O" horiz-adv-x="721" 
d="M32 357c0 -50.667 7.16699 -98.667 21.5 -144s35.333 -85 63 -119s62 -60.833 103 -80.5s88.167 -29.5 141.5 -29.5s100.5 9.83301 141.5 29.5s75.333 46.5 103 80.5s48.667 73.667 63 119s21.5 93.333 21.5 144s-7.16699 98.667 -21.5 144s-35.333 85 -63 119
s-62 61 -103 81s-88.167 30 -141.5 30s-100.5 -10 -141.5 -30s-75.333 -47 -103 -81s-48.667 -73.667 -63 -119s-21.5 -93.333 -21.5 -144zM52 357c0.666992 51.333 8.16699 98.666 22.5 141.999s34.666 80.666 60.999 111.999s58.5 55.833 96.5 73.5s81 26.5 129 26.5
s91 -8.83301 129 -26.5s70.167 -42.167 96.5 -73.5s46.666 -68.666 60.999 -111.999s21.833 -90.666 22.5 -141.999c-0.666992 -51.333 -8.16699 -98.666 -22.5 -141.999s-34.666 -80.666 -60.999 -111.999s-58.5 -55.833 -96.5 -73.5s-81 -26.5 -129 -26.5
s-91 8.83301 -129 26.5s-70.167 42.167 -96.5 73.5s-46.666 68.666 -60.999 111.999s-21.833 90.666 -22.5 141.999z" />
    <glyph glyph-name="P" unicode="P" horiz-adv-x="574" 
d="M74 0v325.002h259c33.333 0 63.833 4.16699 91.5 12.5s51.5 20.666 71.5 36.999s35.667 36.666 47 60.999s17 52.166 17 83.499c0 64.667 -19 113.334 -57 146.001s-91.333 49 -160 49h-289v-714h20zM74 345.002v349h269c66.667 0 116.167 -15 148.5 -45
s48.5 -73.333 48.5 -130c0 -28 -5 -52.667 -15 -74s-23.833 -39.5 -41.5 -54.5s-38.5 -26.333 -62.5 -34s-50 -11.5 -78 -11.5h-269z" />
    <glyph glyph-name="Q" unicode="Q" horiz-adv-x="721" 
d="M571 58l117.999 -79.002l10 14l-115 78c36 34.667 62.667 76.834 80 126.501s26 102.834 26 159.501c0 50.667 -7.16699 98.667 -21.5 144s-35.333 85 -63 119s-62 61 -103 81s-88.167 30 -141.5 30s-100.5 -10 -141.5 -30s-75.333 -47 -103 -81
s-48.667 -73.667 -63 -119s-21.5 -93.333 -21.5 -144s7.16699 -98.667 21.5 -144s35.333 -85 63 -119s62 -60.833 103 -80.5s88.167 -29.5 141.5 -29.5c44 0 83.333 6.5 118 19.5s65.334 31.167 92.001 54.5zM426.999 155.998l126.003 -85.998
c-25.333 -21.333 -54 -37.833 -86 -49.5s-67.333 -17.5 -106 -17.5c-48 0 -91 8.83301 -129 26.5s-70.167 42.167 -96.5 73.5s-46.666 68.666 -60.999 111.999s-21.833 90.666 -22.5 141.999c0.666992 51.333 8.16699 98.666 22.5 141.999s34.666 80.666 60.999 111.999
s58.5 55.833 96.5 73.5s81 26.5 129 26.5s91 -8.83301 129 -26.5s70.167 -42.167 96.5 -73.5s46.666 -68.666 60.999 -111.999s21.833 -90.666 22.5 -141.999c-0.666992 -58.667 -9.83398 -111 -27.501 -157s-42.834 -85 -75.501 -117l-129 89z" />
    <glyph glyph-name="R" unicode="R" horiz-adv-x="611" 
d="M74 0l0.000976562 334.995h269c41.333 0 74.333 -4.16699 99 -12.5s43.667 -20.333 57 -36s22.166 -35 26.499 -58s6.5 -49.167 6.5 -78.5c0 -11.333 0.166992 -24.166 0.5 -38.499s1 -28.5 2 -42.5s2.5 -27.167 4.5 -39.5s4.66699 -22.166 8 -29.499h22
c-3.33301 4.66699 -6 13 -8 25s-3.66699 25.333 -5 40s-2.33301 29.5 -3 44.5s-1 27.5 -1 37.5c0 28.667 -1.66699 54.334 -5 77.001s-10 42.334 -20 59.001s-24.333 30.167 -43 40.5s-43 17.5 -73 21.5v2c50 11.333 88.333 32.833 115 64.5s39.334 71.5 38.001 119.5
c-1.33301 62.667 -19.333 108.834 -54 138.501s-89.334 44.5 -164.001 44.5h-292v-714h20zM74.001 354.995v339h277c68 0 117 -14.167 147 -42.5s45.333 -67.833 46 -118.5c0 -31.333 -5.66699 -58.166 -17 -80.499s-26.333 -40.833 -45 -55.5
s-40.167 -25.334 -64.5 -32.001s-49.833 -10 -76.5 -10h-267z" />
    <glyph glyph-name="S" unicode="S" horiz-adv-x="611" 
d="M531 514l19.999 -0.00195312c-2 40 -9.66699 73.833 -23 101.5s-31.166 50 -53.499 67s-48.333 29.333 -78 37s-62.167 11.5 -97.5 11.5c-28.667 0 -57.5 -3 -86.5 -9s-55.167 -16 -78.5 -30s-42.333 -32.833 -57 -56.5s-22 -53.167 -22 -88.5
c0 -34.667 7 -62.834 21 -84.501s32.5 -39 55.5 -52s48.833 -23.167 77.5 -30.5l86 -21c27.333 -6.66699 55.833 -13.167 85.5 -19.5s56.667 -15.666 81 -27.999s44.333 -29 60 -50s23.5 -49.5 23.5 -85.5c0 -30.667 -6.83301 -57 -20.5 -79s-31.5 -40 -53.5 -54
s-46.833 -24.167 -74.5 -30.5s-55.5 -9.5 -83.5 -9.5c-38 0 -72.833 4.16699 -104.5 12.5s-59 21.833 -82 40.5s-40.833 42.834 -53.5 72.501s-19 65.834 -19 108.501h-20c-0.666992 -45.333 5.83301 -84 19.5 -116s33 -58.167 58 -78.5s54.667 -35.166 89 -44.499
s71.833 -14 112.5 -14c30.667 0 61 3.5 91 10.5s57 18.333 81 34s43.333 35.5 58 59.5s22 53 22 87c0 37.333 -6.5 67 -19.5 89s-30.5 39.667 -52.5 53s-47.833 24 -77.5 32l-94.5 25l-90 21c-29.333 6.66699 -55.5 16 -78.5 28s-41.667 27.667 -56 47s-21.5 45 -21.5 77
s7 58.5 21 79.5s31.833 37.833 53.5 50.5s45.834 21.5 72.501 26.5s52.334 7.5 77.001 7.5c32 0 62 -3.33301 90 -10s52.167 -17.834 72.5 -33.501s36.666 -36 48.999 -61s19.166 -55.833 20.499 -92.5z" />
    <glyph glyph-name="T" unicode="T" 
d="M-16 694h256v-694h20v694h257v20h-533v-20z" />
    <glyph glyph-name="U" unicode="U" horiz-adv-x="632" 
d="M558 714v-448c0 -86 -19.667 -151.333 -59 -196s-100.333 -67 -183 -67s-143.667 22.333 -183 67s-59 110 -59 196v448h-20v-448c0 -96 22.333 -167 67 -213s109.667 -69 195 -69s150.333 23 195 69s67 117 67 213v448h-20z" />
    <glyph glyph-name="V" unicode="V" horiz-adv-x="538" 
d="M536 714l-262 -688h-2l-270 688h-19l279 -714h22l272 714h-20z" />
    <glyph glyph-name="W" unicode="W" horiz-adv-x="870" 
d="M860 714l-199 -689h-2l-209 689h-29l-206 -689h-2l-202 689h-20l210 -714h27l206 689h2l210 -689h27l207 714h-20z" />
    <glyph glyph-name="X" unicode="X" horiz-adv-x="520" 
d="M510 714l-249 -331l-247 331h-25l259 -347l-274 -367h25l262 351l261 -351h25l-272 367l260 347h-25z" />
    <glyph glyph-name="Y" unicode="Y" horiz-adv-x="538" 
d="M544 714l-275 -392l-273 392h-25l288 -413v-301h20v301l289 413h-24z" />
    <glyph glyph-name="Z" unicode="Z" 
d="M508 20h-507l499 667v27h-491v-20h471l-498 -667v-27h526v20z" />
    <glyph glyph-name="bracketleft" unicode="[" horiz-adv-x="222" 
d="M209 731h-113v-907h113v20h-93v867h93v20z" />
    <glyph glyph-name="backslash" unicode="\" horiz-adv-x="333" 
d="M320 -16h20l-327 747h-19z" />
    <glyph glyph-name="bracketright" unicode="]" horiz-adv-x="222" 
d="M13 -176h113v907h-113v-20h93v-867h-93v-20z" />
    <glyph glyph-name="asciicircum" unicode="^" horiz-adv-x="600" 
d="M541 227l-231 453h-20l-231 -453h20l221 433l221 -433h20z" />
    <glyph glyph-name="underscore" unicode="_" 
d="M0 -88h500v-20h-500v20z" />
    <glyph glyph-name="grave" unicode="`" horiz-adv-x="130" 
d="M-37 731l138 -144h15l-124 144h-29z" />
    <glyph glyph-name="a" unicode="a" horiz-adv-x="481" 
d="M54 355l19.9941 -0.00585938c3.33301 48 20 85.167 50 111.5s72 39.5 126 39.5c34 0 61 -4.5 81 -13.5s35.167 -20.5 45.5 -34.5s16.833 -29.333 19.5 -46s4 -32.667 4 -48c0 -19.333 -3.83301 -34.166 -11.5 -44.499s-19.667 -18 -36 -23s-37.166 -8.33301 -62.499 -10
s-55.666 -3.5 -90.999 -5.5c-21.333 -1.33301 -42.666 -4.16602 -63.999 -8.49902s-40.333 -12 -57 -23s-30.167 -26.167 -40.5 -45.5s-15.5 -45 -15.5 -77c0 -46 15.667 -80.5 47 -103.5s73 -34.5 125 -34.5c26.667 0 51.334 3.5 74.001 10.5s42.834 16.5 60.501 28.5
s32.334 25.667 44.001 41s20.167 31.333 25.5 48h2v-67c0 -19.333 5.5 -32.5 16.5 -39.5s23.833 -10.5 38.5 -10.5h30v20c-6.66699 -0.666992 -13.834 -1.16699 -21.501 -1.5s-14.834 0.333984 -21.501 2.00098s-12 4.83398 -16 9.50098s-6 12 -6 22v327
c-0.666992 28 -5.66699 51.333 -15 70s-21.666 33.834 -36.999 45.501s-33.166 19.834 -53.499 24.501s-41.833 7 -64.5 7c-32 0 -59.833 -4.33301 -83.5 -13s-43.667 -20.667 -60 -36s-28.833 -33.5 -37.5 -54.5s-13.667 -43.5 -15 -67.5zM399.994 301.994
l-0.000976562 -95.0029c0 -25.333 -4.5 -50 -13.5 -74s-22.333 -45.167 -40 -63.5s-39.5 -33.166 -65.5 -44.499s-55.667 -17 -89 -17c-28 0 -51.5 3.5 -70.5 10.5s-34.5 16 -46.5 27s-20.5 23.667 -25.5 38s-7.5 28.833 -7.5 43.5c0 27.333 4.33301 49.5 13 66.5
s20.334 30.333 35.001 40s31.5 16.334 50.5 20.001s38.5 6.16699 58.5 7.5s40.5 2.33301 61.5 3s40.5 2.33398 58.5 5.00098s34 6.5 48 11.5s24.333 12.167 31 21.5h2z" />
    <glyph glyph-name="b" unicode="b" horiz-adv-x="537" 
d="M75 370l-0.00292969 343.997h-20v-714h20v144h2c13.333 -46 37.833 -83.333 73.5 -112s79.834 -43 132.501 -43c34 0 64.5 6.66699 91.5 20s50 31.833 69 55.5s33.5 51.834 43.5 84.501s15 68.334 15 107.001c0 36 -4.83301 70.333 -14.5 103s-23.667 61.334 -42 86.001
s-41.166 44.334 -68.499 59.001s-58.666 22 -93.999 22c-54.667 0 -99.667 -14.333 -135 -43s-59 -66.334 -71 -113.001h-2zM74.9971 255.997c0 80.667 18.999 142.501 56.999 185.501s88.333 64.5 151 64.5c35.333 0 65.5 -7.5 90.5 -22.5s45.5 -34.333 61.5 -58
s27.833 -50.334 35.5 -80.001s11.5 -59.5 11.5 -89.5c0 -32.667 -4.16699 -64 -12.5 -94s-20.666 -56.5 -36.999 -79.5s-37 -41.167 -62 -54.5s-54.167 -20 -87.5 -20c-32.667 0 -62 6.66699 -88 20s-47.833 31.333 -65.5 54s-31.167 49 -40.5 79s-14 61.667 -14 95z" />
    <glyph glyph-name="c" unicode="c" 
d="M469 175h-19.9932c-2 -26 -8.33301 -49.167 -19 -69.5s-24.5 -37.833 -41.5 -52.5s-36.5 -25.834 -58.5 -33.501s-45.667 -11.5 -71 -11.5c-34 0 -64 6.5 -90 19.5s-47.667 30.5 -65 52.5s-30.5 47.333 -39.5 76s-13.5 58.667 -13.5 90c0 30 3.83301 60.5 11.5 91.5
s20 59 37 84s39.667 45.333 68 61s62.833 23.5 103.5 23.5c21.333 0 41.666 -3 60.999 -9s36.666 -15.167 51.999 -27.5s28.333 -27.666 39 -45.999s18 -40.166 22 -65.499h20c-3.33301 27.333 -10.833 51.5 -22.5 72.5s-26.167 38.5 -43.5 52.5s-37 24.667 -59 32
s-45 11 -69 11c-40.667 0 -76.167 -7.66699 -106.5 -23s-55.333 -35.833 -75 -61.5s-34.334 -55.334 -44.001 -89.001s-14.5 -69.167 -14.5 -106.5c0 -35.333 5 -68.5 15 -99.5s24.667 -58.167 44 -81.5s43.166 -41.833 71.499 -55.5s60.833 -20.5 97.5 -20.5
c29.333 0 56.166 4.33301 80.499 13s45.666 21 63.999 37s33.166 35.5 44.499 58.5s18.333 48.833 21 77.5z" />
    <glyph glyph-name="d" unicode="d" horiz-adv-x="537" 
d="M455 714l-0.00292969 -343.997h-2c-12 46.667 -35.667 84.334 -71 113.001s-80.333 43 -135 43c-35.333 0 -66.666 -7.33301 -93.999 -22s-50.166 -34.334 -68.499 -59.001s-32.333 -53.334 -42 -86.001s-14.5 -67 -14.5 -103c0 -38.667 5 -74.334 15 -107.001
s24.5 -60.834 43.5 -84.501s42 -42.167 69 -55.5s57.5 -20 91.5 -20c52.667 0 96.834 14.333 132.501 43s60.167 66 73.5 112h2v-144h20v714h-20zM454.997 256.003c0 -33.333 -4.66699 -65.001 -14 -95.001s-22.833 -56.333 -40.5 -79s-39.334 -40.667 -65.001 -54
s-55.167 -20 -88.5 -20s-62.5 6.66699 -87.5 20s-45.667 31.5 -62 54.5s-28.666 49.5 -36.999 79.5s-12.5 61.333 -12.5 94c0 30 3.83301 59.833 11.5 89.5s19.5 56.334 35.5 80.001s36.667 43 62 58s55.333 22.5 90 22.5c62.667 0 113 -21.5 151 -64.5
s57 -104.833 57 -185.5z" />
    <glyph glyph-name="e" unicode="e" 
d="M45 253l430.002 -0.00195312c1.33301 35.333 -2.16699 69.333 -10.5 102s-21.666 61.667 -39.999 87s-42 45.666 -71 60.999s-63.5 23 -103.5 23c-28.667 0 -56.667 -6 -84 -18s-51.333 -29.5 -72 -52.5s-37.334 -51.167 -50.001 -84.5s-19 -71.333 -19 -114
c0 -38 4.33301 -73.5 13 -106.5s22 -61.667 40 -86s41.167 -43.166 69.5 -56.499s62.5 -19.666 102.5 -18.999c58.667 0 108 16.5 148 49.5s63.667 79.5 71 139.5h-20c-8.66699 -56.667 -30.834 -99.167 -66.501 -127.5s-80.5 -42.5 -134.5 -42.5
c-36.667 0 -67.667 6.33301 -93 19s-46 30 -62 52s-27.833 47.833 -35.5 77.5s-11.834 61.834 -12.501 96.501zM455.002 272.998l-409.997 -0.00292969c2 36 8.66699 68.333 20 97s26.166 53.167 44.499 73.5s39.666 35.833 63.999 46.5s50.5 16 78.5 16
c33.333 0 62.666 -6.16699 87.999 -18.5s46.5 -29.166 63.5 -50.499s29.833 -46.166 38.5 -74.499s13 -58.166 13 -89.499z" />
    <glyph glyph-name="f" unicode="f" horiz-adv-x="204" 
d="M0 494h87.002v-494h20v494h111v20h-111v107c0 25.333 4.83301 43.833 14.5 55.5s30.5 17.5 62.5 17.5c7.33301 0 14.666 -0.333008 21.999 -1s15.666 -1.66699 24.999 -3v20c-5.33301 0.666992 -11.5 1.5 -18.5 2.5s-15.167 1.5 -24.5 1.5
c-10.667 0 -22 -0.666992 -34 -2s-23 -4.83301 -33 -10.5s-18.167 -14.167 -24.5 -25.5s-9.5 -27.333 -9.5 -48v-114h-87v-20z" />
    <glyph glyph-name="g" unicode="g" horiz-adv-x="519" 
d="M446 172l0.000976562 -155c0 -64 -16.833 -110.833 -50.5 -140.5s-81.834 -44.5 -144.501 -44.5c-22.667 0 -44.5 2.66699 -65.5 8s-39.5 13.666 -55.5 24.999s-28.833 26 -38.5 44s-14.834 39.667 -15.501 65h-20c0.666992 -29.333 6.33398 -54.166 17.001 -74.499
s25 -37 43 -50s38.667 -22.5 62 -28.5s48 -9 74 -9c68 0 120.667 16.5 158 49.5s56 84.833 56 155.5v497h-20v-137h-2c-5.33301 21.333 -13.833 41 -25.5 59s-26 33.667 -43 47s-36.167 23.833 -57.5 31.5s-44.333 11.5 -69 11.5c-36 0 -67.833 -6.66699 -95.5 -20
s-50.834 -31.5 -69.501 -54.5s-32.667 -49.667 -42 -80s-14 -62.833 -14 -97.5c0 -32.667 4.5 -64 13.5 -94s22.333 -56.167 40 -78.5s39.834 -40.166 66.501 -53.499s58 -20 94 -20c22 0 43.833 3.16699 65.5 9.5s41.667 15.666 60 27.999s34.333 27.5 48 45.5
s23.167 38.333 28.5 61h2zM445.001 274c0 -30.667 -4.50098 -59.8311 -13.501 -87.498s-22 -51.667 -39 -72s-38.167 -36.5 -63.5 -48.5s-54.666 -18 -87.999 -18c-31.333 0 -59 5.83301 -83 17.5s-44.167 27.667 -60.5 48s-28.666 44.166 -36.999 71.499s-12.5 57 -12.5 89
c0 31.333 4.16699 61 12.5 89s21 52.667 38 74s38 38.166 63 50.499s54.167 18.5 87.5 18.5c32 0 60.333 -6.5 85 -19.5s45.167 -30.333 61.5 -52s28.666 -46.5 36.999 -74.5s12.5 -56.667 12.5 -86z" />
    <glyph glyph-name="h" unicode="h" 
d="M55 714v-714h20v291c0 28.667 4 56 12 82s19.833 48.833 35.5 68.5s35.167 35.334 58.5 47.001s50.333 17.5 81 17.5c22 0 42.833 -3.16699 62.5 -9.5s37 -16.333 52 -30s26.833 -31 35.5 -52s13 -46.5 13 -76.5v-338h20v341c0 30 -4.5 56.5 -13.5 79.5
s-21.667 42.333 -38 58s-35.666 27.5 -57.999 35.5s-46.833 12 -73.5 12c-25.333 0 -48.333 -3.5 -69 -10.5s-38.834 -16.833 -54.501 -29.5s-28.667 -27.334 -39 -44.001s-17.833 -35 -22.5 -55h-2v327h-20z" />
    <glyph glyph-name="i" unicode="i" horiz-adv-x="130" 
d="M75 613v101h-20v-101h20zM75 0v514h-20v-514h20z" />
    <glyph glyph-name="j" unicode="j" horiz-adv-x="130" 
d="M75 613v101h-20v-101h20zM75 -74l0.000976562 588h-20v-581c0 -21.333 -1.83301 -38 -5.5 -50s-9.5 -20.833 -17.5 -26.5s-18.667 -9.16699 -32 -10.5s-29.333 -2 -48 -2v-20c19.333 0 36.666 0.833008 51.999 2.5s28.333 6 39 13s18.667 17.333 24 31s8 32.167 8 55.5z
" />
    <glyph glyph-name="k" unicode="k" horiz-adv-x="444" 
d="M75 194l133 110l241 -304h27l-253 318l236 196h-29l-355 -295v495h-20v-714h20v194z" />
    <glyph glyph-name="l" unicode="l" horiz-adv-x="130" 
d="M55 714v-714h20v714h-20z" />
    <glyph glyph-name="m" unicode="m" horiz-adv-x="778" 
d="M55 514l0.00195312 -514.001h20v291c0 28.667 3.83301 56 11.5 82s18.667 48.833 33 68.5s31.833 35.334 52.5 47.001s43.667 17.5 69 17.5c28.667 0 52 -4.66699 70 -14s32 -22 42 -38s16.833 -34.667 20.5 -56s5.5 -44 5.5 -68v-330h20v326
c0 24 3.66699 46.833 11 68.5s18 40.834 32 57.501s31 29.834 51 39.501s42.333 14.5 67 14.5c28 0 51.167 -4 69.5 -12s33 -19.333 44 -34s18.667 -32.334 23 -53.001s6.5 -43.667 6.5 -69v-338h20v338c0 28 -2.66699 53.5 -8 76.5s-14.333 42.667 -27 59
s-29.334 29.166 -50.001 38.499s-46.667 14 -78 14c-40 0 -74.667 -11 -104 -33s-49 -51 -59 -87h-2c-8.66699 38 -26.5 67.833 -53.5 89.5s-60.5 31.834 -100.5 30.501c-20 0 -38.833 -3.5 -56.5 -10.5s-33.834 -16.833 -48.501 -29.5s-27 -27.334 -37 -44.001
s-17.333 -35 -22 -55h-2v127h-20z" />
    <glyph glyph-name="n" unicode="n" 
d="M55 514v-514h20v291c0 28.667 4 56 12 82s19.833 48.833 35.5 68.5s35.167 35.334 58.5 47.001s50.333 17.5 81 17.5c22 0 42.833 -3.16699 62.5 -9.5s37 -16.333 52 -30s26.833 -31 35.5 -52s13 -46.5 13 -76.5v-338h20v341c0 30 -4.5 56.5 -13.5 79.5
s-21.667 42.333 -38 58s-35.666 27.5 -57.999 35.5s-46.833 12 -73.5 12c-25.333 0 -48.333 -3.5 -69 -10.5s-38.834 -16.833 -54.501 -29.5s-28.667 -27.334 -39 -44.001s-17.833 -35 -22.5 -55h-2v127h-20z" />
    <glyph glyph-name="o" unicode="o" horiz-adv-x="519" 
d="M48 257c0 32 4.5 63 13.5 93s22.5 56.5 40.5 79.5s40.167 41.5 66.5 55.5s56.833 21 91.5 21c34 0 64.167 -7 90.5 -21s48.5 -32.5 66.5 -55.5s31.5 -49.5 40.5 -79.5s13.5 -61 13.5 -93c0 -32.667 -4.5 -64 -13.5 -94s-22.5 -56.5 -40.5 -79.5
s-40.167 -41.333 -66.5 -55s-56.5 -20.5 -90.5 -20.5c-34.667 0 -65.167 6.83301 -91.5 20.5s-48.5 32 -66.5 55s-31.5 49.5 -40.5 79.5s-13.5 61.333 -13.5 94zM28 257c0 -35.333 5 -69.166 15 -101.499s24.833 -60.833 44.5 -85.5s43.834 -44.334 72.501 -59.001
s61.667 -22 99 -22c38 0 71.333 7.33301 100 22s52.834 34.334 72.501 59.001s34.5 53.167 44.5 85.5s15 66.166 15 101.499s-5 69.166 -15 101.499s-24.833 60.833 -44.5 85.5s-43.834 44.5 -72.501 59.5s-61.667 22.5 -99 22.5c-38 0 -71.333 -7.5 -100 -22.5
s-52.834 -34.833 -72.501 -59.5s-34.5 -53.167 -44.5 -85.5s-15 -66.166 -15 -101.499z" />
    <glyph glyph-name="p" unicode="p" horiz-adv-x="537" 
d="M75 -176l0.00195312 319.998h2c12 -46.667 35.667 -84.167 71 -112.5s80.333 -42.5 135 -42.5c35.333 0 66.666 7.16699 93.999 21.5s50.166 33.833 68.499 58.5s32.333 53.334 42 86.001s14.5 67 14.5 103c0 38.667 -5 74.334 -15 107.001s-24.5 61 -43.5 85
s-42 42.667 -69 56s-57.5 20 -91.5 20c-26 0 -50.167 -3.83301 -72.5 -11.5s-42.166 -18.5 -59.499 -32.5s-32.333 -30.5 -45 -49.5s-22.334 -39.833 -29.001 -62.5h-2v144h-20v-690h20zM283.002 7.99805c-62.667 0 -112.999 21.501 -150.999 64.501s-57 104.833 -57 185.5
c0 33.333 4.66699 65 14 95s22.833 56.333 40.5 79s39.5 40.667 65.5 54s55.333 20 88 20c33.333 0 62.5 -6.66699 87.5 -20s45.667 -31.5 62 -54.5s28.666 -49.333 36.999 -79s12.5 -61.167 12.5 -94.5c0 -30 -3.83301 -59.833 -11.5 -89.5s-19.5 -56.334 -35.5 -80.001
s-36.5 -43 -61.5 -58s-55.167 -22.5 -90.5 -22.5z" />
    <glyph glyph-name="q" unicode="q" horiz-adv-x="537" 
d="M455 258c0 -80.667 -19 -142.501 -57 -185.501s-88.333 -64.5 -151 -64.5c-34.667 0 -64.667 7.5 -90 22.5s-46 34.333 -62 58s-27.833 50.334 -35.5 80.001s-11.5 59.5 -11.5 89.5c0 33.333 4.16699 64.833 12.5 94.5s20.666 56 36.999 79s37 41.167 62 54.5
s54.167 20 87.5 20s62.833 -6.66699 88.5 -20s47.334 -31.333 65.001 -54s31.167 -49 40.5 -79s14 -61.667 14 -95zM455 513.999l0.00195312 -143.998h-2c-6.66699 22.667 -16.167 43.5 -28.5 62.5s-27.333 35.5 -45 49.5s-37.667 24.833 -60 32.5s-46.5 11.5 -72.5 11.5
c-34 0 -64.5 -6.66699 -91.5 -20s-50 -32 -69 -56s-33.5 -52.333 -43.5 -85s-15 -68.334 -15 -107.001c0 -36 4.83301 -70.333 14.5 -103s23.667 -61.334 42 -86.001s41.166 -44.167 68.499 -58.5s58.666 -21.5 93.999 -21.5c54.667 0 99.667 14.167 135 42.5
s59 65.833 71 112.5h2v-320h20v690h-20z" />
    <glyph glyph-name="r" unicode="r" horiz-adv-x="259" 
d="M75 0l-0.000976562 290.999c0 28 4 55.333 12 82s20.333 50.167 37 70.5s37.834 36.333 63.501 48s56.167 16.5 91.5 14.5v20c-30.667 0.666992 -57.5 -2.66602 -80.5 -9.99902s-42.833 -17.333 -59.5 -30s-30 -27.5 -40 -44.5s-17.333 -35.167 -22 -54.5h-2v127h-20
v-514h20z" />
    <glyph glyph-name="s" unicode="s" horiz-adv-x="463" 
d="M390 362l20.001 0.000976562c0 57.333 -16.667 99 -50 125s-78.666 39 -135.999 39c-32 0 -59 -4 -81 -12s-40 -18.333 -54 -31s-24 -26.667 -30 -42s-9 -30 -9 -44c0 -28 5 -50.333 15 -67s25.667 -29.667 47 -39c14.667 -6.66699 31.334 -12.667 50.001 -18
s40.334 -11 65.001 -17l65 -16c21.333 -5.33301 40.166 -12.5 56.499 -21.5s29.666 -20.5 39.999 -34.5s15.5 -32.333 15.5 -55c0 -22 -5.16699 -40.667 -15.5 -56s-23.5 -27.833 -39.5 -37.5s-33.833 -16.667 -53.5 -21s-38.834 -6.5 -57.501 -6.5
c-60.667 0 -107.167 13.5 -139.5 40.5s-48.5 69.5 -48.5 127.5h-20c0 -64.667 17.5 -112 52.5 -142s86.833 -45 155.5 -45c22 0 44.167 2.5 66.5 7.5s42.333 13.167 60 24.5s32 26 43 44s16.5 40 16.5 66c0 24.667 -4.83301 44.667 -14.5 60s-22.334 28 -38.001 38
s-33.334 17.833 -53.001 23.5l-59.5 16.5l-73.5 19c-21 5.33301 -40.5 11.666 -58.5 18.999c-17.333 7.33301 -31.166 17.833 -41.499 31.5s-15.5 33.167 -15.5 58.5c0 4.66699 1.33301 13 4 25s9 24.167 19 36.5s25.333 23.333 46 33s49 14.5 85 14.5
c24.667 0 47.167 -2.66699 67.5 -8s37.833 -13.833 52.5 -25.5s26 -26.5 34 -44.5s12 -40 12 -66z" />
    <glyph glyph-name="t" unicode="t" horiz-adv-x="241" 
d="M110 494h116.001v20h-116v162h-20v-162h-94v-20h94v-398c0 -36.667 8.16699 -61.834 24.5 -75.501s36.166 -20.5 59.499 -20.5c15.333 0 25.833 0.333008 31.5 1l17.5 2v20c-3.33301 -1.33301 -9 -2.16602 -17 -2.49902s-17 -0.5 -27 -0.5c-8 0 -16 0.5 -24 1.5
s-15.333 4.16699 -22 9.5s-12.167 13.333 -16.5 24s-6.5 25.667 -6.5 45v394z" />
    <glyph glyph-name="u" unicode="u" 
d="M445 0v514.002h-20v-291c0 -28.667 -4 -56 -12 -82s-19.833 -48.833 -35.5 -68.5s-35.167 -35.334 -58.5 -47.001s-50.333 -17.5 -81 -17.5c-22 0 -42.833 3.16699 -62.5 9.5s-37 16.333 -52 30s-26.833 31 -35.5 52s-13 46.5 -13 76.5v338h-20v-341
c0 -30 4.5 -56.5 13.5 -79.5s21.667 -42.333 38 -58s35.666 -27.334 57.999 -35.001s46.833 -11.5 73.5 -11.5c50.667 0 91.834 13 123.501 39s52.167 59 61.5 99h2v-127h20z" />
    <glyph glyph-name="v" unicode="v" horiz-adv-x="407" 
d="M397 514l-184 -494h-2l-199 494h-23l211 -514h25l194 514h-22z" />
    <glyph glyph-name="w" unicode="w" horiz-adv-x="685" 
d="M673 514l-156 -494h-2l-158 494h-31l-159 -494h-2l-153 494h-19l159 -514h28l161 494h2l160 -494h26l164 514h-20z" />
    <glyph glyph-name="x" unicode="x" horiz-adv-x="407" 
d="M380 514l-177 -233l-173 233h-26l187 -248l-205 -266h24l193 251l194 -251h25l-206 266l188 248h-24z" />
    <glyph glyph-name="y" unicode="y" horiz-adv-x="407" 
d="M398 514l-184 -487.001l-204 487h-21l214 -509l-37 -95c-6 -15.333 -12.5 -27.5 -19.5 -36.5s-15 -15.667 -24 -20s-19.667 -7 -32 -8s-27.166 -1.5 -44.499 -1.5v-20c15.333 0 29.833 0.5 43.5 1.5s26.167 3.83301 37.5 8.5s21.666 11.834 30.999 21.501
s17.333 23.167 24 40.5l237 618h-21z" />
    <glyph glyph-name="z" unicode="z" horiz-adv-x="407" 
d="M402 20h-376l360 469v25h-354v-20h333l-360 -469v-25h397v20z" />
    <glyph glyph-name="braceleft" unicode="{" horiz-adv-x="333" 
d="M230 -176l49.999 -0.000976562v20h-48c-9.33301 0 -17.5 1.5 -24.5 4.5s-12.667 8.5 -17 16.5s-7.66602 19.167 -9.99902 33.5s-3.5 32.5 -3.5 54.5v161c0 38 -6.5 72.167 -19.5 102.5s-30.5 50.833 -52.5 61.5c12.667 5.33301 23.5 14 32.5 26s16.5 25.667 22.5 41
s10.333 31.333 13 48s4 32.334 4 47.001v164c0 41.333 4.16699 69.5 12.5 84.5s22.5 22.5 42.5 22.5h48v20h-50c-28 0 -47.167 -8.66699 -57.5 -26s-15.5 -45 -15.5 -83v-165c0 -20 -1.66699 -39.667 -5 -59s-8.16602 -36.666 -14.499 -51.999s-13.833 -28 -22.5 -38
s-18.667 -16 -30 -18v-20c29.333 -19.333 48.666 -42.833 57.999 -70.5s14 -61.834 14 -102.501v-162c0 -38 5.16699 -66 15.5 -84s29.5 -27 57.5 -27z" />
    <glyph glyph-name="bar" unicode="|" horiz-adv-x="222" 
d="M101 -213h20v999h-20v-999z" />
    <glyph glyph-name="braceright" unicode="}" horiz-adv-x="333" 
d="M103 731l-49.999 0.00195312v-20h48c9.33301 0 17.5 -1.5 24.5 -4.5s12.667 -8.5 17 -16.5s7.66602 -19.167 9.99902 -33.5s3.5 -32.5 3.5 -54.5v-162c0 -38 6.5 -72.167 19.5 -102.5s30.5 -50.833 52.5 -61.5c-12.667 -5.33301 -23.5 -14 -32.5 -26
s-16.5 -25.667 -22.5 -41s-10.333 -31.333 -13 -48s-4 -32.334 -4 -47.001v-163c0 -41.333 -4.16699 -69.5 -12.5 -84.5s-22.5 -22.5 -42.5 -22.5h-48v-20h50c28 0 47.167 8.66699 57.5 26s15.5 45 15.5 83v164c0 20 1.66699 39.667 5 59s8.16602 36.666 14.499 51.999
s14 28 23 38s18.833 16 29.5 18v20c-29.333 18.667 -48.666 42 -57.999 70s-14 62.333 -14 103v163c0 38 -5.16699 66 -15.5 84s-29.5 27 -57.5 27z" />
    <glyph glyph-name="asciitilde" unicode="~" horiz-adv-x="600" 
d="M523 295l-20 6.00098l-18 -26c-6 -8.66699 -12.5 -16.334 -19.5 -23.001s-14.667 -12.167 -23 -16.5s-17.5 -6.5 -27.5 -6.5c-13.333 0 -28.833 3.66699 -46.5 11l-56.5 24c-19.333 9.33301 -39.166 17.666 -59.499 24.999s-39.5 10.333 -57.5 9
c-28 0 -51.5 -8.66699 -70.5 -26s-34.833 -37.666 -47.5 -60.999l20 -6c12 21.333 25.667 38.833 41 52.5s34.333 20.5 57 20.5c26 0 48.5 -4.16699 67.5 -12.5l54.5 -24.5l49 -21.5c15.333 -7 31.333 -10.5 48 -10.5c13.333 0 25.166 2.5 35.499 7.5s19.833 11.5 28.5 19.5
s16.667 17.167 24 27.5s14.333 20.833 21 31.5z" />
    <glyph glyph-name="nonbreakingspace" unicode="&#xa0;" horiz-adv-x="278" 
 />
    <glyph glyph-name="exclamdown" unicode="&#xa1;" horiz-adv-x="185" 
d="M103 360h-20v-536h20v536zM103 542h-20v-98h20v98z" />
    <glyph glyph-name="cent" unicode="&#xa2;" horiz-adv-x="556" 
d="M292 8l0.000976562 497.002c23.333 -0.666992 45.166 -4.16699 65.499 -10.5s38.333 -15.5 54 -27.5s28.667 -27.167 39 -45.5s17.5 -39.5 21.5 -63.5h20c-3.33301 27.333 -10.666 51.166 -21.999 71.499s-25.833 37.5 -43.5 51.5s-38 24.667 -61 32
s-47.5 11.333 -73.5 12v88h-20v-88c-35.333 -1.33301 -66.333 -9.83301 -93 -25.5s-48.834 -35.834 -66.501 -60.501s-31 -52.667 -40 -84s-13.5 -63.666 -13.5 -96.999c0 -34.667 4.33301 -67.834 13 -99.501s21.834 -59.834 39.501 -84.501s39.834 -44.667 66.501 -60
s58 -23.666 94 -24.999v-109h20v109c55.333 0.666992 101.5 17.167 138.5 49.5s59.167 77.833 66.5 136.5h-20c-2.66699 -24 -9 -46.167 -19 -66.5s-22.833 -38 -38.5 -53s-33.834 -26.667 -54.501 -35s-43.334 -12.5 -68.001 -12.5h-5zM272.001 505.002v-496.999
c-32.667 1.33301 -61.167 9.33301 -85.5 24s-44.5 33.667 -60.5 57s-27.833 49.666 -35.5 78.999s-11.5 59.333 -11.5 90c0 30 3.83301 59.5 11.5 88.5s19.5 55 35.5 78s36.167 41.833 60.5 56.5s52.833 22.667 85.5 24z" />
    <glyph glyph-name="sterling" unicode="&#xa3;" horiz-adv-x="556" 
d="M296 365h-158.001c-6.66699 13.333 -14.167 27.333 -22.5 42s-16.333 29.667 -24 45s-14 30.833 -19 46.5s-7.5 31.167 -7.5 46.5c0 29.333 5.83301 54.5 17.5 75.5s27.167 38.167 46.5 51.5s41.333 23.166 66 29.499s50 9.5 76 9.5c33.333 0 63.666 -5 90.999 -15
s50.333 -24.833 69 -44.5s32.5 -43.834 41.5 -72.501s11.833 -61.667 8.5 -99h20c4 38.667 1.5 73.5 -7.5 104.5s-23.667 57.333 -44 79s-45.666 38.334 -75.999 50.001s-64.5 17.5 -102.5 17.5c-28.667 0 -56.667 -3.66699 -84 -11s-51.5 -18.666 -72.5 -33.999
s-37.833 -34.666 -50.5 -57.999s-19 -51 -19 -83c0 -15.333 2.5 -31 7.5 -47s11 -31.667 18 -47s14.5 -30.333 22.5 -45l22 -41h-66v-20h76c10 -17.333 17.833 -38 23.5 -62s8.5 -48.667 8.5 -74c0 -40 -11.5 -77.333 -34.5 -112s-50.833 -66 -83.5 -94l18 -19
c19.333 14.667 39.166 26.5 59.499 35.5s42.166 13.5 65.499 13.5c15.333 0 30.833 -2.83301 46.5 -8.5s31.834 -11.167 48.501 -16.5c16.667 -6 33.334 -11.5 50.001 -16.5s33.334 -7.5 50.001 -7.5c30.667 0 58.667 6.33301 84 19s52.666 35.667 81.999 69l-13 14l-36 -33
c-11.333 -10 -23 -18.833 -35 -26.5s-24.667 -13.5 -38 -17.5s-28 -6 -44 -6c-15.333 0 -31 2.66699 -47 8s-32.333 11.333 -49 18l-49 16c-16.667 5.33301 -33.334 8 -50.001 8c-20.667 0 -39.667 -3.83301 -57 -11.5s-32.333 -16.167 -45 -25.5l-2 2
c30.667 26 54.834 54.833 72.501 86.5s26.5 66.5 26.5 104.5c0 23.333 -2.16699 46.666 -6.5 69.999s-12.166 45.333 -23.499 66h149v20z" />
    <glyph glyph-name="currency" unicode="&#xa4;" horiz-adv-x="556" 
d="M506 340c0 -31.333 -6 -60.833 -18 -88.5s-28.333 -51.834 -49 -72.501s-44.834 -37 -72.501 -49s-57.167 -18 -88.5 -18s-60.833 6 -88.5 18s-51.834 28.333 -72.501 49s-37 44.834 -49 72.501s-18 57.167 -18 88.5s6 60.833 18 88.5s28.333 51.834 49 72.501
s44.834 37 72.501 49s57.167 18 88.5 18s60.833 -6 88.5 -18s51.834 -28.333 72.501 -49s37 -44.834 49 -72.501s18 -57.167 18 -88.5zM503 579l-57 -57c-23.333 22 -49.5 38.5 -78.5 49.5s-58.833 16.5 -89.5 16.5c-30 0 -59.5 -5.5 -88.5 -16.5s-55.5 -27.5 -79.5 -49.5
l-57 57l-14 -14l57 -57c-21.333 -23.333 -37.5 -49.5 -48.5 -78.5s-16.833 -58.833 -17.5 -89.5c0 -30 5.5 -59.5 16.5 -88.5s27.5 -55.5 49.5 -79.5l-57 -57l14 -14l57 57c24 -22 50.5 -38.5 79.5 -49.5s58.5 -16.5 88.5 -16.5c30.667 0.666992 60.5 6.5 89.5 17.5
s55.167 27.167 78.5 48.5l57 -57l14 14l-57 57c22 24 38.5 50.5 49.5 79.5s16.5 58.5 16.5 88.5c0 30.667 -5.5 60.5 -16.5 89.5s-27.5 55.167 -49.5 78.5l57 57z" />
    <glyph glyph-name="yen" unicode="&#xa5;" horiz-adv-x="556" 
d="M287 203v102h147v20h-136l237 389h-22l-234 -383h-2l-234 383h-22l237 -389h-138v-20h147v-102h-147v-20h147v-183h20v183h147v20h-147z" />
    <glyph glyph-name="brokenbar" unicode="&#xa6;" horiz-adv-x="222" 
d="M121 661h-20v-250h20v250zM121 -88v249h-20v-249h20z" />
    <glyph glyph-name="section" unicode="&#xa7;" horiz-adv-x="556" 
d="M479 205c0 -17.333 -4.16504 -33.1709 -12.498 -47.5039s-18.5 -26.666 -30.5 -36.999s-24.667 -18.833 -38 -25.5s-25 -11 -35 -13l-40 27l-48 31.5l-50.5 32.5l-47.5 30c-23.333 14.667 -41.666 28.834 -54.999 42.501s-23.333 26.334 -30 38.001
s-10.834 22.5 -12.501 32.5s-2.5 18.667 -2.5 26c0 21.333 4.16699 39.833 12.5 55.5s18.333 28.834 30 39.501s23.5 19.167 35.5 25.5s21.667 10.5 29 12.5l27 -15.5l36 -20c12.667 -7 25 -14.167 37 -21.5s22 -13.666 30 -18.999c34 -22 61.667 -41.333 83 -58
s38.166 -32.334 50.499 -47.001s20.666 -29 24.999 -43s6.5 -29.333 6.5 -46zM422.002 545.995l19.9941 -0.0078125c0 28 -4 53.333 -12 76s-19.333 42 -34 58s-32.667 28.5 -54 37.5s-45 13.5 -71 13.5c-13.333 0 -29 -1.66699 -47 -5s-35.333 -9.83301 -52 -19.5
s-30.667 -23.167 -42 -40.5s-17 -40 -17 -68s5.5 -50.333 16.5 -67s23.167 -30.667 36.5 -42c-14 -5.33301 -27.5 -12.5 -40.5 -21.5s-24.5 -19.5 -34.5 -31.5s-18.167 -25.333 -24.5 -40s-9.5 -30 -9.5 -46c0 -14 1.16699 -27.333 3.5 -40s7.33301 -25.5 15 -38.5
s18.5 -26.333 32.5 -40s33 -28.5 57 -44.5l93.5 -59.5c32.333 -19.667 59.833 -37.5 82.5 -53.5c18 -12.667 32.167 -24 42.5 -34s18.333 -19.667 24 -29s9.33398 -19.166 11.001 -29.499s2.5 -22.166 2.5 -35.499c0 -11.333 -2.66699 -23.666 -8 -36.999
s-13.666 -25.666 -24.999 -36.999s-26 -20.833 -44 -28.5s-40 -11.5 -66 -11.5c-56 0.666992 -96 17 -120 49s-35.667 73.333 -35 124h-20c-1.33301 -62.667 13.334 -110.5 44.001 -143.5s74.334 -49.5 131.001 -49.5c20.667 0 40.334 2.66699 59.001 8
s35.334 13.5 50.001 24.5s26.834 24.833 36.501 41.5s15.5 36.667 17.5 60c1.33301 20 -1.66699 40 -9 60s-24 40.667 -50 62c10 2.66699 21.833 8 35.5 16s26.5 17.833 38.5 29.5s22.167 25.167 30.5 40.5s12.5 32 12.5 50c0 20 -2.33301 37.833 -7 53.5
s-13.5 31.5 -26.5 47.5s-30.667 32.833 -53 50.5s-51.5 37.834 -87.5 60.501c-14 8.66699 -26.5 16 -37.5 22l-32.5 18l-31.5 18.5c-10.333 6.33301 -21.5 13.833 -33.5 22.5c-15.333 11.333 -28.333 24.333 -39 39s-16.667 34.667 -18 60
c-1.33301 22.667 2.66699 41.334 12 56.001s21 26.334 35 35.001s29.167 14.834 45.5 18.501s30.833 5.5 43.5 5.5c50 0 87.667 -14.5 113 -43.5s38.666 -69.5 39.999 -121.5z" />
    <glyph glyph-name="dieresis" unicode="&#xa8;" horiz-adv-x="130" 
d="M133 590h20v81h-20v-81zM-22 590h20v81h-20v-81z" />
    <glyph glyph-name="copyright" unicode="&#xa9;" horiz-adv-x="800" 
d="M46 357c0 48.667 9.16699 94.5 27.5 137.5s43.5 80.5 75.5 112.5s69.5 57.333 112.5 76s89.167 28 138.5 28c48.667 0 94.5 -9.33301 137.5 -28s80.5 -44 112.5 -76s57.333 -69.5 76 -112.5s28 -88.833 28 -137.5c0 -49.333 -9.33301 -95.5 -28 -138.5
s-44 -80.5 -76 -112.5s-69.5 -57.167 -112.5 -75.5s-88.833 -27.5 -137.5 -27.5c-49.333 0 -95.5 9.16699 -138.5 27.5s-80.5 43.5 -112.5 75.5s-57.167 69.5 -75.5 112.5s-27.5 89.167 -27.5 138.5zM26 357c0 -52 9.83301 -100.667 29.5 -146s46.334 -84.833 80.001 -118.5
s73.167 -60.167 118.5 -79.5s94 -29 146 -29s100.667 9.66699 146 29s84.833 45.833 118.5 79.5s60.334 73.167 80.001 118.5s29.5 94 29.5 146s-9.83301 100.667 -29.5 146s-46.334 84.833 -80.001 118.5s-73.167 60.334 -118.5 80.001s-94 29.5 -146 29.5
s-100.667 -9.83301 -146 -29.5s-84.833 -46.334 -118.5 -80.001s-60.334 -73.167 -80.001 -118.5s-29.5 -94 -29.5 -146zM573 428h20.0029c-3.33301 24 -10.333 45.5 -21 64.5s-24.334 34.833 -41.001 47.5s-35.5 22.334 -56.5 29.001s-43.167 10 -66.5 10
c-34 0 -64.5 -5.66699 -91.5 -17s-49.667 -27.166 -68 -47.499s-32.5 -44.333 -42.5 -72s-15 -58.167 -15 -91.5c0 -32.667 5.16699 -63 15.5 -91s25 -52.333 44 -73s42.167 -37 69.5 -49s57.666 -18 90.999 -18c46 0 85.167 14.5 117.5 43.5s53.833 66.5 64.5 112.5h-20
c-10.667 -44 -31.167 -77.667 -61.5 -101s-63.833 -35 -100.5 -35c-31.333 0 -59.333 5.5 -84 16.5s-45.667 26.167 -63 45.5s-30.5 41.833 -39.5 67.5s-13.5 53.167 -13.5 82.5s4.33301 56.666 13 81.999s21.5 47.166 38.5 65.499s37.667 32.833 62 43.5
s52.166 16 83.499 16c20 0 39.167 -2.66699 57.5 -8s35 -13.5 50 -24.5s27.5 -24.667 37.5 -41s16.667 -35.5 20 -57.5z" />
    <glyph glyph-name="ordfeminine" unicode="&#xaa;" horiz-adv-x="300" 
d="M300 374l0.00585938 20c-8.66699 -1.33301 -16.5 -1.33301 -23.5 0s-10.5 7.66602 -10.5 18.999v190c-1.33301 33.333 -13 56.5 -35 69.5s-49.333 19.5 -82 19.5c-40 0 -70.5 -9.16699 -91.5 -27.5s-33.167 -43.833 -36.5 -76.5h20c3.33301 26 13.666 46.5 30.999 61.5
s43 22.5 77 22.5s58.667 -6 74 -18s23 -33 23 -63c0 -12 -3.5 -21 -10.5 -27s-16.333 -10.167 -28 -12.5s-24.834 -3.66602 -39.501 -3.99902s-29.667 -0.833008 -45 -1.5c-15.333 -1.33301 -30.333 -3.16602 -45 -5.49902s-27.834 -6.83301 -39.501 -13.5s-21 -16 -28 -28
s-10.5 -28 -10.5 -48c0 -14.667 3.16699 -27.334 9.5 -38.001s14.666 -19.5 24.999 -26.5s22.166 -12 35.499 -15s27.333 -4.5 42 -4.5c36 0 65.167 6.5 87.5 19.5s37.166 30.5 44.499 52.5v7h2v-41c0 -11.333 3.5 -19.333 10.5 -24s15.167 -7 24.5 -7h19zM246.006 552
l-0.00292969 -47.998c0 -32.667 -11.333 -60.334 -34 -83.001s-56 -34 -100 -34c-11.333 0 -22.5 1.16699 -33.5 3.5s-20.833 6 -29.5 11s-15.667 11.5 -21 19.5s-8 18 -8 30c0.666992 19.333 5.83398 34.166 15.501 44.499s22 17.833 37 22.5s31.5 7.5 49.5 8.5l52 3
c16.667 1 31.334 3 44.001 6s21.334 8.5 26.001 16.5h2z" />
    <glyph glyph-name="guillemotleft" unicode="&#xab;" horiz-adv-x="352" 
d="M262 121v35l-83 112l83 112v35l-103 -139v-16zM169 121v35l-83 112l83 112v35l-103 -139v-16z" />
    <glyph glyph-name="logicalnot" unicode="&#xac;" horiz-adv-x="600" 
d="M532 340v-247h20v267h-504v-20h484z" />
    <glyph glyph-name="uni00AD" unicode="&#xad;" horiz-adv-x="333" 
d="M254 278v-20h-175v20h175z" />
    <glyph glyph-name="registered" unicode="&#xae;" horiz-adv-x="800" 
d="M46 357c0 48.667 9.16699 94.5 27.5 137.5s43.5 80.5 75.5 112.5s69.5 57.333 112.5 76s89.167 28 138.5 28c48.667 0 94.5 -9.33301 137.5 -28s80.5 -44 112.5 -76s57.333 -69.5 76 -112.5s28 -88.833 28 -137.5c0 -49.333 -9.33301 -95.5 -28 -138.5
s-44 -80.5 -76 -112.5s-69.5 -57.167 -112.5 -75.5s-88.833 -27.5 -137.5 -27.5c-49.333 0 -95.5 9.16699 -138.5 27.5s-80.5 43.5 -112.5 75.5s-57.167 69.5 -75.5 112.5s-27.5 89.167 -27.5 138.5zM26 357c0 -52 9.83301 -100.667 29.5 -146s46.334 -84.833 80.001 -118.5
s73.167 -60.167 118.5 -79.5s94 -29 146 -29s100.667 9.66699 146 29s84.833 45.833 118.5 79.5s60.334 73.167 80.001 118.5s29.5 94 29.5 146s-9.83301 100.667 -29.5 146s-46.334 84.833 -80.001 118.5s-73.167 60.334 -118.5 80.001s-94 29.5 -146 29.5
s-100.667 -9.83301 -146 -29.5s-84.833 -46.334 -118.5 -80.001s-60.334 -73.167 -80.001 -118.5s-29.5 -94 -29.5 -146zM398 354h-104v191h119c16 0 31.5 -1.33301 46.5 -4s28.167 -7.5 39.5 -14.5s20.5 -16.667 27.5 -29s10.5 -28.5 10.5 -48.5
c0 -21.333 -4.5 -38.333 -13.5 -51s-20.333 -22.167 -34 -28.5s-28.667 -10.5 -45 -12.5s-31.833 -3 -46.5 -3zM274 565l0.000976562 -430h20v199h98h15h8c2.66699 0 5.33398 0.333008 8.00098 1l129 -200h25l-132 202c15.333 1.33301 29.666 4.5 42.999 9.5
s25.166 12 35.499 21s18.5 20.333 24.5 34s9 29.5 9 47.5c0 36.667 -11.5 65.167 -34.5 85.5s-58.833 30.5 -107.5 30.5h-141z" />
    <glyph glyph-name="macron" unicode="&#xaf;" horiz-adv-x="130" 
d="M181 628v20h-231v-20h231z" />
    <glyph glyph-name="degree" unicode="&#xb0;" horiz-adv-x="400" 
d="M343 549c0 19.333 -3.66797 37.667 -11.001 55s-17.5 32.5 -30.5 45.5s-28.167 23.333 -45.5 31s-36 11.5 -56 11.5s-38.667 -3.83301 -56 -11.5s-32.5 -18 -45.5 -31s-23.167 -28.167 -30.5 -45.5s-11 -35.666 -11 -54.999c0 -20.667 3.66699 -39.834 11 -57.501
s17.5 -33 30.5 -46s28.167 -23.167 45.5 -30.5s36 -11 56 -11s38.833 3.83301 56.5 11.5s32.834 18 45.501 31s22.667 28.333 30 46s11 36.5 11 56.5zM322.999 549.001c0 -17.333 -3.16699 -33.6699 -9.5 -49.0029s-15 -28.666 -26 -39.999s-24 -20.166 -39 -26.499
s-31.167 -9.5 -48.5 -9.5c-16.667 0 -32.334 3.16699 -47.001 9.5s-27.667 15 -39 26s-20.333 24.167 -27 39.5s-10 32 -10 50c0 16 3.33301 31.333 10 46s15.667 27.834 27 39.501s24.333 20.834 39 27.501s30.334 10 47.001 10c18 0 34.5 -3.33301 49.5 -10
s28 -15.667 39 -27s19.5 -24.333 25.5 -39s9 -30.334 9 -47.001z" />
    <glyph glyph-name="plusminus" unicode="&#xb1;" horiz-adv-x="600" 
d="M48 20v-20h504v20h-504zM290 506v-198h-242v-20h242v-198h20v198h242v20h-242v198h-20z" />
    <glyph glyph-name="twosuperior" unicode="&#xb2;" horiz-adv-x="333" 
d="M316 297l-275.002 0.000976562c0.666992 10 4.83398 20.167 12.501 30.5s17.5 20.833 29.5 31.5s25.667 21.167 41 31.5l48 31.5c27.333 18 49.666 34.167 66.999 48.5s30.833 28 40.5 41s16.167 25.5 19.5 37.5s5 25 5 39c0 18 -3.5 33.667 -10.5 47
s-16.667 24.166 -29 32.499s-26.666 14.5 -42.999 18.5s-34.166 6 -53.499 6c-51.333 0 -87.5 -12.167 -108.5 -36.5s-32.167 -59.166 -33.5 -104.499h20c-0.666992 38 8.5 67.667 27.5 89s50.5 32 94.5 32c34 0 61.833 -6.83301 83.5 -20.5s32.5 -34.834 32.5 -63.501
c0 -16.667 -3.5 -32 -10.5 -46s-16.333 -27.167 -28 -39.5s-25.167 -24 -40.5 -35s-31.333 -21.833 -48 -32.5l-50 -33c-16.667 -10.667 -31.5 -22 -44.5 -34s-23.667 -25.333 -32 -40s-12.5 -31.667 -12.5 -51h298v20z" />
    <glyph glyph-name="threesuperior" unicode="&#xb3;" horiz-adv-x="333" 
d="M24 559l20.001 -0.00390625c0 40 11.167 68.833 33.5 86.5s54.5 26.5 96.5 26.5c15.333 0 30.166 -1 44.499 -3s27 -6 38 -12s20 -14.167 27 -24.5s10.5 -23.833 10.5 -40.5c0 -16 -3.33301 -29.5 -10 -40.5s-15.667 -19.667 -27 -26s-24 -11 -38 -14
s-28.667 -4.5 -44 -4.5h-26v-21h24c16 0 31.833 -1.5 47.5 -4.5s29.5 -8.16699 41.5 -15.5s21.667 -17.166 29 -29.499s11 -27.833 11 -46.5c0 -16.667 -3.66699 -31.167 -11 -43.5s-17 -22.666 -29 -30.999s-25.833 -14.666 -41.5 -18.999s-31.834 -6.5 -48.501 -6.5
c-44 0 -79.333 10.333 -106 31s-38.334 52 -35.001 94h-20c-2.66699 -46.667 10.833 -82.5 40.5 -107.5s70.167 -37.5 121.5 -37.5c20 0 39 2.66699 57 8s33.833 13.166 47.5 23.499s24.5 23 32.5 38s12 31.833 12 50.5c0 17.333 -3 32.333 -9 45s-14 23.334 -24 32.001
s-21.667 15.167 -35 19.5s-27.333 7.16602 -42 8.49902v2c30 0 54.5 8.83301 73.5 26.5s28.5 40.5 28.5 68.5c0 20 -4.16699 36.333 -12.5 49s-19.166 22.834 -32.499 30.501s-28.166 13 -44.499 16s-32.833 4.5 -49.5 4.5c-22 0 -42.333 -2.83301 -61 -8.5
s-34.834 -14.167 -48.501 -25.5s-24.167 -25.166 -31.5 -41.499s-10.666 -35.5 -9.99902 -57.5z" />
    <glyph glyph-name="acute" unicode="&#xb4;" horiz-adv-x="130" 
d="M171 731h-29l-132 -144h15z" />
    <glyph glyph-name="mu" unicode="&#xb5;" horiz-adv-x="556" 
d="M472 0l-0.000976562 514.001h-20v-291c0 -28.667 -4 -56 -12 -82s-19.833 -48.833 -35.5 -68.5s-35.167 -35.334 -58.5 -47.001s-50.333 -17.5 -81 -17.5c-22 0 -42.833 3.16699 -62.5 9.5s-37 16.333 -52 30s-26.833 31 -35.5 52s-13 46.5 -13 76.5v338h-19v-690h20v257
h2c15.333 -34 37.333 -57.833 66 -71.5s60 -20.5 94 -20.5c50.667 0 91.834 13 123.501 39s52.167 59 61.5 99h2v-127h20z" />
    <glyph glyph-name="paragraph" unicode="&#xb6;" horiz-adv-x="600" 
d="M491 714h-202.001c-70.667 0 -125.5 -16.667 -164.5 -50s-58.5 -82 -58.5 -146c0 -26 5.33301 -50.5 16 -73.5s25.834 -43.167 45.501 -60.5s43.167 -31 70.5 -41s57.333 -15 90 -15v-467h20v833h163v-833h20v853z" />
    <glyph glyph-name="periodcentered" unicode="&#xb7;" horiz-adv-x="278" 
d="M107 340c0 -9.33301 3 -17 9 -23s13.667 -9 23 -9s17 3 23 9s9 13.667 9 23s-3 17 -9 23s-13.667 9 -23 9s-17 -3 -23 -9s-9 -13.667 -9 -23z" />
    <glyph glyph-name="cedilla" unicode="&#xb8;" horiz-adv-x="130" 
d="M-15 -146l-9.00098 -18.999c9.33301 -3.33301 20.833 -7 34.5 -11s29.167 -6 46.5 -6c13.333 0 25.833 1 37.5 3s22 5.83301 31 11.5s16.167 13.167 21.5 22.5s8 21.333 8 36c0 22 -7.66699 37.5 -23 46.5s-32.666 13.5 -51.999 13.5c-9.33301 0 -16 -0.833008 -20 -2.5
s-8.33301 -2.83398 -13 -3.50098l41 55h-20l-57 -72l15 -10c14.667 8.66699 32.667 13 54 13c5.33301 0 11.166 -0.833008 17.499 -2.5s12.166 -4 17.499 -7s10 -7.16699 14 -12.5s6 -11.333 6 -18c0 -10 -2.33301 -18.5 -7 -25.5s-10.667 -12.5 -18 -16.5
s-15.666 -6.83301 -24.999 -8.5s-18.666 -2.5 -27.999 -2.5c-13.333 0 -26 1.66699 -38 5s-23.333 7 -34 11z" />
    <glyph glyph-name="onesuperior" unicode="&#xb9;" horiz-adv-x="333" 
d="M181 662l0.00195312 -384.999h20v408h-22c-18 -19.333 -35.333 -34.833 -52 -46.5s-38.334 -21.5 -65.001 -29.5v-19c21.333 6 43.166 15.167 65.499 27.5s39.5 27.166 51.5 44.499h2z" />
    <glyph glyph-name="ordmasculine" unicode="&#xba;" horiz-adv-x="300" 
d="M20 531c0 17.333 3 34.5 9 51.5s14.5 32.167 25.5 45.5s24.667 24 41 32s34.833 12 55.5 12s39 -4 55 -12s29.5 -18.667 40.5 -32s19.5 -28.5 25.5 -45.5s9 -34.167 9 -51.5c0 -18 -3 -35.667 -9 -53s-14.5 -32.666 -25.5 -45.999s-24.5 -24.166 -40.5 -32.499
s-34.333 -12.5 -55 -12.5s-39.167 4.16699 -55.5 12.5s-30 19.166 -41 32.499s-19.5 28.666 -25.5 45.999s-9 35 -9 53zM0 531c0 -21.333 3.33496 -41.833 10.002 -61.5s16.334 -37.167 29.001 -52.5s28.334 -27.5 47.001 -36.5s40 -13.5 64 -13.5
c25.333 0 47.333 4.5 66 13.5s34.334 21.167 47.001 36.5s22.167 32.833 28.5 52.5s9.5 40.167 9.5 61.5s-3.16699 41.666 -9.5 60.999s-15.833 36.333 -28.5 51s-28.334 26.5 -47.001 35.5s-40.334 13.5 -65.001 13.5s-46.334 -4.5 -65.001 -13.5
s-34.334 -20.833 -47.001 -35.5s-22.334 -31.667 -29.001 -51s-10 -39.666 -10 -60.999z" />
    <glyph glyph-name="guillemotright" unicode="&#xbb;" horiz-adv-x="352" 
d="M90 415v-35l83 -112l-83 -112v-35l103 139v16zM183 415v-35l83 -112l-83 -112v-35l103 139v16z" />
    <glyph glyph-name="onequarter" unicode="&#xbc;" horiz-adv-x="834" 
d="M221 662l0.00195312 -384.999h20v408h-22c-18 -19.333 -35.333 -34.833 -52 -46.5s-38.334 -21.5 -65.001 -29.5v-19c21.333 6 43.166 15.167 65.499 27.5s39.5 27.166 51.5 44.499h2zM620.002 714.001l-476 -747h23l476 747h-23zM635.002 381.001v-259h-200l198 257z
M414.002 102.001h221v-102h20v102h76v20h-76v286h-25l-216 -281v-25z" />
    <glyph glyph-name="onehalf" unicode="&#xbd;" horiz-adv-x="834" 
d="M770 20l-275.002 0.000976562c0.666992 10 4.83398 20.167 12.501 30.5s17.5 20.833 29.5 31.5s25.667 21.167 41 31.5l48 31.5c27.333 18 49.666 34.167 66.999 48.5s30.833 28 40.5 41s16.167 25.5 19.5 37.5s5 25 5 39c0 18 -3.5 33.667 -10.5 47
s-16.667 24.166 -29 32.499s-26.666 14.5 -42.999 18.5s-34.166 6 -53.499 6c-51.333 0 -87.5 -12.167 -108.5 -36.5s-32.167 -59.166 -33.5 -104.499h20c-0.666992 38 8.5 67.667 27.5 89s50.5 32 94.5 32c34 0 61.833 -6.83301 83.5 -20.5s32.5 -34.834 32.5 -63.501
c0 -16.667 -3.5 -32 -10.5 -46s-16.333 -27.167 -28 -39.5s-25.167 -24 -40.5 -35s-31.333 -21.833 -48 -32.5l-50 -33c-16.667 -10.667 -31.5 -22 -44.5 -34s-23.667 -25.333 -32 -40s-12.5 -31.667 -12.5 -51h298v20zM183.998 662.001l0.00195312 -384.999h20v408h-22
c-18 -19.333 -35.333 -34.833 -52 -46.5s-38.334 -21.5 -65.001 -29.5v-19c21.333 6 43.166 15.167 65.499 27.5s39.5 27.166 51.5 44.499h2zM573 714.002l-476 -747h23l476 747h-23z" />
    <glyph glyph-name="threequarters" unicode="&#xbe;" horiz-adv-x="834" 
d="M68 559l20.001 -0.00292969c0 40 11.167 68.833 33.5 86.5s54.5 26.5 96.5 26.5c15.333 0 30.166 -1 44.499 -3s27 -6 38 -12s20 -14.167 27 -24.5s10.5 -23.833 10.5 -40.5c0 -16 -3.33301 -29.5 -10 -40.5s-15.667 -19.667 -27 -26s-24 -11 -38 -14
s-28.667 -4.5 -44 -4.5h-26v-21c2.66699 0.666992 6.66699 1 12 1h12c16 0 31.833 -1.5 47.5 -4.5s29.5 -8.33301 41.5 -16s21.667 -17.667 29 -30s11 -27.833 11 -46.5c0 -16.667 -3.66699 -31.167 -11 -43.5s-17 -22.666 -29 -30.999s-25.833 -14.666 -41.5 -18.999
s-31.834 -6.5 -48.501 -6.5c-44 0 -79.333 10.333 -106 31s-38.334 52 -35.001 94h-20c-2.66699 -46.667 10.833 -82.5 40.5 -107.5s70.167 -37.5 121.5 -37.5c20 0 39 2.66699 57 8s33.833 13.166 47.5 23.499s24.5 23 32.5 38s12 31.833 12 50.5c0 17.333 -3 32.333 -9 45
s-14 23.334 -24 32.001s-21.667 15.167 -35 19.5s-27.333 7.16602 -42 8.49902v2c30 0 54.5 8.83301 73.5 26.5s28.5 40.5 28.5 68.5c0 20 -4.16699 36.333 -12.5 49s-19.166 22.834 -32.499 30.501s-28.166 13 -44.499 16s-32.833 4.5 -49.5 4.5
c-22 0 -42.333 -2.83301 -61 -8.5s-34.834 -14.167 -48.501 -25.5s-24.167 -25.166 -31.5 -41.499s-10.666 -35.5 -9.99902 -57.5zM674.001 713.997l-476 -747h23l476 747h-23zM683.001 380.997v-259h-200l198 257zM462.001 101.997h221v-102h20v102h76v20h-76v286h-25
l-216 -281v-25z" />
    <glyph glyph-name="questiondown" unicode="&#xbf;" 
d="M268 542h-20v-98h20v98zM465 49l-19.9961 0.00390625c1.33301 -32 -2 -61.333 -10 -88s-20.333 -49.5 -37 -68.5s-37.5 -33.833 -62.5 -44.5s-54.167 -16 -87.5 -16c-25.333 0 -48.833 3.16699 -70.5 9.5s-40.334 15.666 -56.001 27.999s-28 27.666 -37 45.999
s-13.5 39.166 -13.5 62.499c0 25.333 4.33301 47.666 13 66.999s18.667 36 30 50s22.333 25.333 33 34s18 15 22 19c18.667 18 34.334 35 47.001 51s22.667 32.167 30 48.5s12.666 33.5 15.999 51.5s5 38.333 5 61h-20c0 -24 -1.83301 -45 -5.5 -63
s-9.33398 -34.5 -17.001 -49.5s-17.834 -29.667 -30.501 -44s-28 -30.166 -46 -47.499l-28.5 -26.5c-11 -10.333 -21.667 -22.5 -32 -36.5s-19 -30.5 -26 -49.5s-10.5 -40.833 -10.5 -65.5c0 -26.667 5.16699 -50.334 15.5 -71.001s24.333 -38 42 -52s38.5 -24.667 62.5 -32
s49.667 -11 77 -11c35.333 0 66.666 5.83301 93.999 17.5s50.333 28 69 49s32.667 46 42 75s13.333 60.833 12 95.5z" />
    <glyph glyph-name="Agrave" unicode="&#xc0;" horiz-adv-x="575" 
d="M185 909l139 -144h15l-125 144h-29zM106 235h364l94 -235h22l-282 714h-26l-289 -714h22zM462 255h-348l176 439h2z" />
    <glyph glyph-name="Aacute" unicode="&#xc1;" horiz-adv-x="575" 
d="M394 909h-29l-132 -144h15zM106 235h364l94 -235h22l-282 714h-26l-289 -714h22zM462 255h-348l176 439h2z" />
    <glyph glyph-name="Acircumflex" unicode="&#xc2;" horiz-adv-x="575" 
d="M389 770h20l-114 139h-15l-113 -139h20l99 123zM106 235h364l94 -235h22l-282 714h-26l-289 -714h22zM462 255h-348l176 439h2z" />
    <glyph glyph-name="Atilde" unicode="&#xc3;" horiz-adv-x="575" 
d="M156 780l20 0.000976562c0 6 1.16699 12.5 3.5 19.5s5.66602 13.5 9.99902 19.5s9.5 10.833 15.5 14.5s12.333 5.5 19 5.5c10.667 0 21 -3 31 -9s20 -12.667 30 -20s20.333 -14 31 -20s22.334 -9 35.001 -9c23.333 0 40.666 7.66699 51.999 23s17 32.666 17 51.999h-20
c0 -14 -4.33301 -26.667 -13 -38s-20.667 -17 -36 -17c-10 0 -20 3 -30 9s-20.333 12.667 -31 20s-21.5 14 -32.5 20s-22.167 9 -33.5 9c-8.66699 0 -17.167 -2.33301 -25.5 -7s-15.666 -10.834 -21.999 -18.501s-11.333 -16.167 -15 -25.5s-5.5 -18.666 -5.5 -27.999z
M106 235.001h364l94 -235h22l-282 714h-26l-289 -714h22zM462 255.001h-348l176 439h2z" />
    <glyph glyph-name="Adieresis" unicode="&#xc4;" horiz-adv-x="575" 
d="M356 768h20v81h-20v-81zM200 768h20v81h-20v-81zM106 235h364l94 -235h22l-282 714h-26l-289 -714h22zM462 255h-348l176 439h2z" />
    <glyph glyph-name="Aring" unicode="&#xc5;" horiz-adv-x="575" 
d="M356 824c0 -18.667 -6.66699 -34.667 -20 -48s-29.333 -20 -48 -20s-34.667 6.66699 -48 20s-20 29.333 -20 48s6.66699 34.667 20 48s29.333 20 48 20s34.667 -6.66699 48 -20s20 -29.333 20 -48zM376 824c0 12 -2.33301 23.333 -7 34s-11 20 -19 28
s-17.333 14.333 -28 19s-22 7 -34 7s-23.333 -2.33301 -34 -7s-20 -11 -28 -19s-14.333 -17.333 -19 -28s-7 -22 -7 -34s2.33301 -23.333 7 -34s11 -20 19 -28s17.333 -14.333 28 -19s22 -7 34 -7s23.333 2.33301 34 7s20 11 28 19s14.333 17.333 19 28s7 22 7 34zM106 235
h364l94 -235h22l-282 714h-26l-289 -714h22zM462 255h-348l176 439h2z" />
    <glyph glyph-name="AE" unicode="&#xc6;" horiz-adv-x="852" 
d="M376 696h47v-402h-258zM155 274h268v-274h412v20h-392v342h360v20h-360v312h392v20h-469l-377 -714h21z" />
    <glyph glyph-name="Ccedilla" unicode="&#xc7;" horiz-adv-x="685" 
d="M626 500l19.998 -0.00292969c-0.666992 22 -7 46.333 -19 73s-29.833 51.834 -53.5 75.501s-53.167 43.334 -88.5 59.001s-76.666 23.5 -123.999 23.5c-60.667 0 -112.334 -11.667 -155.001 -35s-77.334 -53.333 -104.001 -90s-46.167 -77.5 -58.5 -122.5
s-18.5 -89.167 -18.5 -132.5c0 -52 7.5 -100 22.5 -144s36 -82.167 63 -114.5s59.333 -57.833 97 -76.5s79.167 -29 124.5 -31l-44 -57l15 -10c14.667 8.66699 32.667 13 54 13c5.33301 0 11.166 -0.833008 17.499 -2.5s12.166 -4 17.499 -7s10 -7.16699 14 -12.5
s6 -11.333 6 -18c0 -10 -2.33301 -18.5 -7 -25.5s-10.667 -12.5 -18 -16.5s-15.666 -6.83301 -24.999 -8.5s-18.666 -2.5 -27.999 -2.5c-13.333 0 -26 1.66699 -38 5s-23.667 7 -35 11l-9 -19c9.33301 -3.33301 21 -7 35 -11s29.667 -6 47 -6c13.333 0 25.833 1 37.5 3
s22 5.83301 31 11.5s16.167 13.167 21.5 22.5s8 21.333 8 36c0 22 -7.66699 37.5 -23 46.5s-32.666 13.5 -51.999 13.5c-9.33301 0 -16 -0.833008 -20 -2.5s-8.33301 -2.83398 -13 -3.50098l29 39c44 0.666992 83.833 8.33398 119.5 23.001s66.5 35 92.5 61
s47.167 57 63.5 93s27.5 75.667 33.5 119h-20c-5.33301 -39.333 -15.666 -76 -30.999 -110s-35.333 -63.333 -60 -88s-54 -44 -88 -58s-72.333 -21 -115 -21c-48 0 -90.833 9.66699 -128.5 29s-69.5 45 -95.5 77s-45.667 69 -59 111s-20 85.667 -20 131
c0 37.333 5.5 77 16.5 119s28.833 80.833 53.5 116.5s57.167 65.334 97.5 89.001s89.833 35.5 148.5 35.5c38.667 0 73.834 -6.16699 105.501 -18.5s59 -28.5 82 -48.5s41.167 -42.5 54.5 -67.5s21 -50.5 23 -76.5z" />
    <glyph glyph-name="Egrave" unicode="&#xc8;" horiz-adv-x="537" 
d="M166 909l139 -144h15l-125 144h-29zM74 20v342h427v20h-427v312h454v20h-474v-714h478v20h-458z" />
    <glyph glyph-name="Eacute" unicode="&#xc9;" horiz-adv-x="537" 
d="M375 909h-29l-132 -144h15zM74 20v342h427v20h-427v312h454v20h-474v-714h478v20h-458z" />
    <glyph glyph-name="Ecircumflex" unicode="&#xca;" horiz-adv-x="537" 
d="M370 770h20l-114 139h-15l-113 -139h20l99 123zM74 20v342h427v20h-427v312h454v20h-474v-714h478v20h-458z" />
    <glyph glyph-name="Edieresis" unicode="&#xcb;" horiz-adv-x="537" 
d="M337 768h20v81h-20v-81zM181 768h20v81h-20v-81zM74 20v342h427v20h-427v312h454v20h-474v-714h478v20h-458z" />
    <glyph glyph-name="Igrave" unicode="&#xcc;" horiz-adv-x="128" 
d="M-38 909l138 -144h15l-124 144h-29zM54 714v-714h20v714h-20z" />
    <glyph glyph-name="Iacute" unicode="&#xcd;" horiz-adv-x="128" 
d="M170 909h-29l-132 -144h15zM54 714v-714h20v714h-20z" />
    <glyph glyph-name="Icircumflex" unicode="&#xce;" horiz-adv-x="128" 
d="M165 770h20l-114 139h-15l-112 -139h20l98 123zM54 714v-714h20v714h-20z" />
    <glyph glyph-name="Idieresis" unicode="&#xcf;" horiz-adv-x="128" 
d="M132 768h20v81h-20v-81zM-23 768h20v81h-20v-81zM54 714v-714h20v714h-20z" />
    <glyph glyph-name="Eth" unicode="&#xd0;" horiz-adv-x="648" 
d="M74 362h297v20h-297v312h225c36 0 71.167 -5 105.5 -15s65.166 -27.833 92.499 -53.5s49.333 -60.167 66 -103.5s25 -98.333 25 -165c0 -57.333 -8.16699 -107.166 -24.5 -149.499s-38.666 -77.333 -66.999 -105s-61.333 -48.334 -99 -62.001s-77.5 -20.5 -119.5 -20.5
h-204v342zM-9 362l62.999 0.00195312v-362h219c43.333 0 85 6.66699 125 20s75.667 34.166 107 62.499s56.333 65.166 75 110.499s28 100 28 164c0 70 -9.16699 128 -27.5 174s-42 82.5 -71 109.5s-61.667 46 -98 57s-72.166 16.5 -107.499 16.5h-250v-332h-63v-20z" />
    <glyph glyph-name="Ntilde" unicode="&#xd1;" horiz-adv-x="648" 
d="M192 780l20 0.000976562c0 6 1.16699 12.5 3.5 19.5s5.66602 13.5 9.99902 19.5s9.5 10.833 15.5 14.5s12.333 5.5 19 5.5c10.667 0 21 -3 31 -9s20 -12.667 30 -20s20.333 -14 31 -20s22.334 -9 35.001 -9c23.333 0 40.666 7.66699 51.999 23s17 32.666 17 51.999h-20
c0 -14 -4.33301 -26.667 -13 -38s-20.667 -17 -36 -17c-10 0 -20 3 -30 9s-20.333 12.667 -31 20s-21.5 14 -32.5 20s-22.167 9 -33.5 9c-8.66699 0 -17.167 -2.33301 -25.5 -7s-15.666 -10.834 -21.999 -18.501s-11.333 -16.167 -15 -25.5s-5.5 -18.666 -5.5 -27.999z
M54 714.001v-714h20v689h2l488 -689h30v714h-20v-689h-2l-488 689h-30z" />
    <glyph glyph-name="Ograve" unicode="&#xd2;" horiz-adv-x="721" 
d="M258 909l139 -144h15l-125 144h-29zM32 357c0 -50.667 7.16699 -98.667 21.5 -144s35.333 -85 63 -119s62 -60.833 103 -80.5s88.167 -29.5 141.5 -29.5s100.5 9.83301 141.5 29.5s75.333 46.5 103 80.5s48.667 73.667 63 119s21.5 93.333 21.5 144
s-7.16699 98.667 -21.5 144s-35.333 85 -63 119s-62 61 -103 81s-88.167 30 -141.5 30s-100.5 -10 -141.5 -30s-75.333 -47 -103 -81s-48.667 -73.667 -63 -119s-21.5 -93.333 -21.5 -144zM52 357c0.666992 51.333 8.16699 98.666 22.5 141.999
s34.666 80.666 60.999 111.999s58.5 55.833 96.5 73.5s81 26.5 129 26.5s91 -8.83301 129 -26.5s70.167 -42.167 96.5 -73.5s46.666 -68.666 60.999 -111.999s21.833 -90.666 22.5 -141.999c-0.666992 -51.333 -8.16699 -98.666 -22.5 -141.999
s-34.666 -80.666 -60.999 -111.999s-58.5 -55.833 -96.5 -73.5s-81 -26.5 -129 -26.5s-91 8.83301 -129 26.5s-70.167 42.167 -96.5 73.5s-46.666 68.666 -60.999 111.999s-21.833 90.666 -22.5 141.999z" />
    <glyph glyph-name="Oacute" unicode="&#xd3;" horiz-adv-x="721" 
d="M467 909h-29l-132 -144h15zM32 357c0 -50.667 7.16699 -98.667 21.5 -144s35.333 -85 63 -119s62 -60.833 103 -80.5s88.167 -29.5 141.5 -29.5s100.5 9.83301 141.5 29.5s75.333 46.5 103 80.5s48.667 73.667 63 119s21.5 93.333 21.5 144s-7.16699 98.667 -21.5 144
s-35.333 85 -63 119s-62 61 -103 81s-88.167 30 -141.5 30s-100.5 -10 -141.5 -30s-75.333 -47 -103 -81s-48.667 -73.667 -63 -119s-21.5 -93.333 -21.5 -144zM52 357c0.666992 51.333 8.16699 98.666 22.5 141.999s34.666 80.666 60.999 111.999s58.5 55.833 96.5 73.5
s81 26.5 129 26.5s91 -8.83301 129 -26.5s70.167 -42.167 96.5 -73.5s46.666 -68.666 60.999 -111.999s21.833 -90.666 22.5 -141.999c-0.666992 -51.333 -8.16699 -98.666 -22.5 -141.999s-34.666 -80.666 -60.999 -111.999s-58.5 -55.833 -96.5 -73.5
s-81 -26.5 -129 -26.5s-91 8.83301 -129 26.5s-70.167 42.167 -96.5 73.5s-46.666 68.666 -60.999 111.999s-21.833 90.666 -22.5 141.999z" />
    <glyph glyph-name="Ocircumflex" unicode="&#xd4;" horiz-adv-x="721" 
d="M462 770h20l-114 139h-15l-113 -139h20l99 123zM32 357c0 -50.667 7.16699 -98.667 21.5 -144s35.333 -85 63 -119s62 -60.833 103 -80.5s88.167 -29.5 141.5 -29.5s100.5 9.83301 141.5 29.5s75.333 46.5 103 80.5s48.667 73.667 63 119s21.5 93.333 21.5 144
s-7.16699 98.667 -21.5 144s-35.333 85 -63 119s-62 61 -103 81s-88.167 30 -141.5 30s-100.5 -10 -141.5 -30s-75.333 -47 -103 -81s-48.667 -73.667 -63 -119s-21.5 -93.333 -21.5 -144zM52 357c0.666992 51.333 8.16699 98.666 22.5 141.999
s34.666 80.666 60.999 111.999s58.5 55.833 96.5 73.5s81 26.5 129 26.5s91 -8.83301 129 -26.5s70.167 -42.167 96.5 -73.5s46.666 -68.666 60.999 -111.999s21.833 -90.666 22.5 -141.999c-0.666992 -51.333 -8.16699 -98.666 -22.5 -141.999
s-34.666 -80.666 -60.999 -111.999s-58.5 -55.833 -96.5 -73.5s-81 -26.5 -129 -26.5s-91 8.83301 -129 26.5s-70.167 42.167 -96.5 73.5s-46.666 68.666 -60.999 111.999s-21.833 90.666 -22.5 141.999z" />
    <glyph glyph-name="Otilde" unicode="&#xd5;" horiz-adv-x="721" 
d="M229 780l20 0.000976562c0 6 1.16699 12.5 3.5 19.5s5.66602 13.5 9.99902 19.5s9.5 10.833 15.5 14.5s12.333 5.5 19 5.5c10.667 0 21 -3 31 -9s20 -12.667 30 -20s20.333 -14 31 -20s22.334 -9 35.001 -9c23.333 0 40.666 7.66699 51.999 23s17 32.666 17 51.999h-20
c0 -14 -4.33301 -26.667 -13 -38s-20.667 -17 -36 -17c-10 0 -20 3 -30 9s-20.333 12.667 -31 20s-21.5 14 -32.5 20s-22.167 9 -33.5 9c-8.66699 0 -17.167 -2.33301 -25.5 -7s-15.666 -10.834 -21.999 -18.501s-11.333 -16.167 -15 -25.5s-5.5 -18.666 -5.5 -27.999z
M32 357.001c0 -50.667 7.16699 -98.667 21.5 -144s35.333 -85 63 -119s62 -60.833 103 -80.5s88.167 -29.5 141.5 -29.5s100.5 9.83301 141.5 29.5s75.333 46.5 103 80.5s48.667 73.667 63 119s21.5 93.333 21.5 144s-7.16699 98.667 -21.5 144s-35.333 85 -63 119
s-62 61 -103 81s-88.167 30 -141.5 30s-100.5 -10 -141.5 -30s-75.333 -47 -103 -81s-48.667 -73.667 -63 -119s-21.5 -93.333 -21.5 -144zM52 357.001c0.666992 51.333 8.16699 98.666 22.5 141.999s34.666 80.666 60.999 111.999s58.5 55.833 96.5 73.5s81 26.5 129 26.5
s91 -8.83301 129 -26.5s70.167 -42.167 96.5 -73.5s46.666 -68.666 60.999 -111.999s21.833 -90.666 22.5 -141.999c-0.666992 -51.333 -8.16699 -98.666 -22.5 -141.999s-34.666 -80.666 -60.999 -111.999s-58.5 -55.833 -96.5 -73.5s-81 -26.5 -129 -26.5
s-91 8.83301 -129 26.5s-70.167 42.167 -96.5 73.5s-46.666 68.666 -60.999 111.999s-21.833 90.666 -22.5 141.999z" />
    <glyph glyph-name="Odieresis" unicode="&#xd6;" horiz-adv-x="721" 
d="M429 768h20v81h-20v-81zM273 768h20v81h-20v-81zM32 357c0 -50.667 7.16699 -98.667 21.5 -144s35.333 -85 63 -119s62 -60.833 103 -80.5s88.167 -29.5 141.5 -29.5s100.5 9.83301 141.5 29.5s75.333 46.5 103 80.5s48.667 73.667 63 119s21.5 93.333 21.5 144
s-7.16699 98.667 -21.5 144s-35.333 85 -63 119s-62 61 -103 81s-88.167 30 -141.5 30s-100.5 -10 -141.5 -30s-75.333 -47 -103 -81s-48.667 -73.667 -63 -119s-21.5 -93.333 -21.5 -144zM52 357c0.666992 51.333 8.16699 98.666 22.5 141.999
s34.666 80.666 60.999 111.999s58.5 55.833 96.5 73.5s81 26.5 129 26.5s91 -8.83301 129 -26.5s70.167 -42.167 96.5 -73.5s46.666 -68.666 60.999 -111.999s21.833 -90.666 22.5 -141.999c-0.666992 -51.333 -8.16699 -98.666 -22.5 -141.999
s-34.666 -80.666 -60.999 -111.999s-58.5 -55.833 -96.5 -73.5s-81 -26.5 -129 -26.5s-91 8.83301 -129 26.5s-70.167 42.167 -96.5 73.5s-46.666 68.666 -60.999 111.999s-21.833 90.666 -22.5 141.999z" />
    <glyph glyph-name="multiply" unicode="&#xd7;" horiz-adv-x="600" 
d="M96 443l190 -190l-190 -190l14 -14l189 191l191 -191l14 14l-191 190l191 190l-14 13l-191 -191l-189 191z" />
    <glyph glyph-name="Oslash" unicode="&#xd8;" horiz-adv-x="721" 
d="M113 98l-73.001 -81.001l15 -12l71 79c28 -32 61.5 -56.667 100.5 -74s83.833 -26 134.5 -26c53.333 0 100.5 9.83301 141.5 29.5s75.333 46.5 103 80.5s48.667 73.667 63 119s21.5 93.333 21.5 144s-6.66699 98.167 -20 142.5s-34 83.5 -62 117.5l61 68l-15 12l-59 -65
c-28 30.667 -61.5 54.834 -100.5 72.501s-83.5 26.5 -133.5 26.5c-53.333 0 -100.5 -10 -141.5 -30s-75.333 -47 -103 -81s-48.667 -73.667 -63 -119s-21.5 -93.333 -21.5 -144c0 -50 6.83301 -97.167 20.5 -141.5s33.834 -83.5 60.501 -117.5zM139.999 98.999l454 501.997
c49.333 -62 74.666 -143.333 75.999 -244c-0.666992 -51.333 -8.16699 -98.666 -22.5 -141.999s-34.666 -80.666 -60.999 -111.999s-58.5 -55.833 -96.5 -73.5s-81 -26.5 -129 -26.5s-90.333 8.33301 -127 25s-68 40.334 -94 71.001zM580.999 616.996l-454.001 -502.998
c-48.667 62 -73.667 143 -75 243c0.666992 51.333 8.16699 98.666 22.5 141.999s34.666 80.666 60.999 111.999s58.5 55.833 96.5 73.5s81 26.5 129 26.5c46.667 0 88.334 -8.16699 125.001 -24.5s68.334 -39.5 95.001 -69.5z" />
    <glyph glyph-name="Ugrave" unicode="&#xd9;" horiz-adv-x="632" 
d="M213 909l139 -144h15l-125 144h-29zM558 714v-448c0 -86 -19.667 -151.333 -59 -196s-100.333 -67 -183 -67s-143.667 22.333 -183 67s-59 110 -59 196v448h-20v-448c0 -96 22.333 -167 67 -213s109.667 -69 195 -69s150.333 23 195 69s67 117 67 213v448h-20z" />
    <glyph glyph-name="Uacute" unicode="&#xda;" horiz-adv-x="632" 
d="M422 909h-29l-132 -144h15zM558 714v-448c0 -86 -19.667 -151.333 -59 -196s-100.333 -67 -183 -67s-143.667 22.333 -183 67s-59 110 -59 196v448h-20v-448c0 -96 22.333 -167 67 -213s109.667 -69 195 -69s150.333 23 195 69s67 117 67 213v448h-20z" />
    <glyph glyph-name="Ucircumflex" unicode="&#xdb;" horiz-adv-x="632" 
d="M417 770h20l-114 139h-15l-113 -139h20l99 123zM558 714v-448c0 -86 -19.667 -151.333 -59 -196s-100.333 -67 -183 -67s-143.667 22.333 -183 67s-59 110 -59 196v448h-20v-448c0 -96 22.333 -167 67 -213s109.667 -69 195 -69s150.333 23 195 69s67 117 67 213v448h-20
z" />
    <glyph glyph-name="Udieresis" unicode="&#xdc;" horiz-adv-x="632" 
d="M384 768h20v81h-20v-81zM228 768h20v81h-20v-81zM558 714v-448c0 -86 -19.667 -151.333 -59 -196s-100.333 -67 -183 -67s-143.667 22.333 -183 67s-59 110 -59 196v448h-20v-448c0 -96 22.333 -167 67 -213s109.667 -69 195 -69s150.333 23 195 69s67 117 67 213v448
h-20z" />
    <glyph glyph-name="Yacute" unicode="&#xdd;" horiz-adv-x="538" 
d="M375 931h-29l-132 -144h15zM544 714l-275 -392l-273 392h-25l288 -413v-301h20v301l289 413h-24z" />
    <glyph glyph-name="Thorn" unicode="&#xde;" horiz-adv-x="574" 
d="M343 590l-269 0.00195312v124h-20v-714h20v201h259c33.333 0 63.833 4.16699 91.5 12.5s51.5 20.666 71.5 36.999s35.667 36.666 47 60.999s17 52.166 17 83.499c0 64.667 -19 113.334 -57 146.001s-91.333 49 -160 49zM74 221.002v349h269
c66.667 0 116.167 -15 148.5 -45s48.5 -73.333 48.5 -130c0 -28 -5 -52.667 -15 -74s-23.833 -39.5 -41.5 -54.5s-38.5 -26.333 -62.5 -34s-50 -11.5 -78 -11.5h-269z" />
    <glyph glyph-name="germandbls" unicode="&#xdf;" horiz-adv-x="481" 
d="M202 407l0.00292969 -19.998c33.333 0 64.166 -2.33301 92.499 -7s52.666 -13.5 72.999 -26.5s36.166 -31 47.499 -54s17 -52.833 17 -89.5c0 -38 -5.66699 -69.667 -17 -95s-27.166 -45.333 -47.499 -60s-44.5 -24.667 -72.5 -30s-59 -7 -93 -5v-20
c47.333 -1.33301 87 2.83398 119 12.501s57.667 23.667 77 42s33.166 40.666 41.499 66.999s12.5 55.833 12.5 88.5c0 52.667 -12.833 95.834 -38.5 129.501s-67.5 53.167 -125.5 58.5v2c42.667 7.33301 74.5 25.5 95.5 54.5s31.5 64.5 31.5 106.5
c0 26 -5.16699 49.167 -15.5 69.5s-24 37.666 -41 51.999s-36.5 25.166 -58.5 32.499s-45 11 -69 11c-21.333 0 -42.5 -2.83301 -63.5 -8.5s-39.833 -15.167 -56.5 -28.5s-30.167 -30.833 -40.5 -52.5s-15.5 -48.5 -15.5 -80.5v-556h20v553c0 34.667 5.66699 62.167 17 82.5
s25.166 35.666 41.499 45.999s33.5 17 51.5 20s33.333 4.5 46 4.5c22.667 0 44 -3.33301 64 -10s37.333 -16.167 52 -28.5s26.334 -27.5 35.001 -45.5s13 -38.333 13 -61c0 -29.333 -5.33301 -54 -16 -74s-24.834 -36 -42.501 -48s-38.167 -20.5 -61.5 -25.5
s-47.666 -7.16699 -72.999 -6.5z" />
    <glyph glyph-name="agrave" unicode="&#xe0;" horiz-adv-x="481" 
d="M138 709l139 -144h15l-125 144h-29zM54 355l19.9941 -0.00585938c3.33301 48 20 85.167 50 111.5s72 39.5 126 39.5c34 0 61 -4.5 81 -13.5s35.167 -20.5 45.5 -34.5s16.833 -29.333 19.5 -46s4 -32.667 4 -48c0 -19.333 -3.83301 -34.166 -11.5 -44.499
s-19.667 -18 -36 -23s-37.166 -8.33301 -62.499 -10s-55.666 -3.5 -90.999 -5.5c-21.333 -1.33301 -42.666 -4.16602 -63.999 -8.49902s-40.333 -12 -57 -23s-30.167 -26.167 -40.5 -45.5s-15.5 -45 -15.5 -77c0 -46 15.667 -80.5 47 -103.5s73 -34.5 125 -34.5
c26.667 0 51.334 3.5 74.001 10.5s42.834 16.5 60.501 28.5s32.334 25.667 44.001 41s20.167 31.333 25.5 48h2v-67c0 -19.333 5.5 -32.5 16.5 -39.5s23.833 -10.5 38.5 -10.5h30v20c-6.66699 -0.666992 -13.834 -1.16699 -21.501 -1.5s-14.834 0.333984 -21.501 2.00098
s-12 4.83398 -16 9.50098s-6 12 -6 22v327c-0.666992 28 -5.66699 51.333 -15 70s-21.666 33.834 -36.999 45.501s-33.166 19.834 -53.499 24.501s-41.833 7 -64.5 7c-32 0 -59.833 -4.33301 -83.5 -13s-43.667 -20.667 -60 -36s-28.833 -33.5 -37.5 -54.5
s-13.667 -43.5 -15 -67.5zM399.994 301.994l-0.000976562 -95.0029c0 -25.333 -4.5 -50 -13.5 -74s-22.333 -45.167 -40 -63.5s-39.5 -33.166 -65.5 -44.499s-55.667 -17 -89 -17c-28 0 -51.5 3.5 -70.5 10.5s-34.5 16 -46.5 27s-20.5 23.667 -25.5 38
s-7.5 28.833 -7.5 43.5c0 27.333 4.33301 49.5 13 66.5s20.334 30.333 35.001 40s31.5 16.334 50.5 20.001s38.5 6.16699 58.5 7.5s40.5 2.33301 61.5 3s40.5 2.33398 58.5 5.00098s34 6.5 48 11.5s24.333 12.167 31 21.5h2z" />
    <glyph glyph-name="aacute" unicode="&#xe1;" horiz-adv-x="481" 
d="M347 709h-29l-132 -144h15zM54 355l19.9941 -0.00585938c3.33301 48 20 85.167 50 111.5s72 39.5 126 39.5c34 0 61 -4.5 81 -13.5s35.167 -20.5 45.5 -34.5s16.833 -29.333 19.5 -46s4 -32.667 4 -48c0 -19.333 -3.83301 -34.166 -11.5 -44.499s-19.667 -18 -36 -23
s-37.166 -8.33301 -62.499 -10s-55.666 -3.5 -90.999 -5.5c-21.333 -1.33301 -42.666 -4.16602 -63.999 -8.49902s-40.333 -12 -57 -23s-30.167 -26.167 -40.5 -45.5s-15.5 -45 -15.5 -77c0 -46 15.667 -80.5 47 -103.5s73 -34.5 125 -34.5c26.667 0 51.334 3.5 74.001 10.5
s42.834 16.5 60.501 28.5s32.334 25.667 44.001 41s20.167 31.333 25.5 48h2v-67c0 -19.333 5.5 -32.5 16.5 -39.5s23.833 -10.5 38.5 -10.5h30v20c-6.66699 -0.666992 -13.834 -1.16699 -21.501 -1.5s-14.834 0.333984 -21.501 2.00098s-12 4.83398 -16 9.50098
s-6 12 -6 22v327c-0.666992 28 -5.66699 51.333 -15 70s-21.666 33.834 -36.999 45.501s-33.166 19.834 -53.499 24.501s-41.833 7 -64.5 7c-32 0 -59.833 -4.33301 -83.5 -13s-43.667 -20.667 -60 -36s-28.833 -33.5 -37.5 -54.5s-13.667 -43.5 -15 -67.5zM399.994 301.994
l-0.000976562 -95.0029c0 -25.333 -4.5 -50 -13.5 -74s-22.333 -45.167 -40 -63.5s-39.5 -33.166 -65.5 -44.499s-55.667 -17 -89 -17c-28 0 -51.5 3.5 -70.5 10.5s-34.5 16 -46.5 27s-20.5 23.667 -25.5 38s-7.5 28.833 -7.5 43.5c0 27.333 4.33301 49.5 13 66.5
s20.334 30.333 35.001 40s31.5 16.334 50.5 20.001s38.5 6.16699 58.5 7.5s40.5 2.33301 61.5 3s40.5 2.33398 58.5 5.00098s34 6.5 48 11.5s24.333 12.167 31 21.5h2z" />
    <glyph glyph-name="acircumflex" unicode="&#xe2;" horiz-adv-x="481" 
d="M342 570h20l-114 139h-15l-113 -139h20l99 123zM54 355l19.9941 -0.00585938c3.33301 48 20 85.167 50 111.5s72 39.5 126 39.5c34 0 61 -4.5 81 -13.5s35.167 -20.5 45.5 -34.5s16.833 -29.333 19.5 -46s4 -32.667 4 -48c0 -19.333 -3.83301 -34.166 -11.5 -44.499
s-19.667 -18 -36 -23s-37.166 -8.33301 -62.499 -10s-55.666 -3.5 -90.999 -5.5c-21.333 -1.33301 -42.666 -4.16602 -63.999 -8.49902s-40.333 -12 -57 -23s-30.167 -26.167 -40.5 -45.5s-15.5 -45 -15.5 -77c0 -46 15.667 -80.5 47 -103.5s73 -34.5 125 -34.5
c26.667 0 51.334 3.5 74.001 10.5s42.834 16.5 60.501 28.5s32.334 25.667 44.001 41s20.167 31.333 25.5 48h2v-67c0 -19.333 5.5 -32.5 16.5 -39.5s23.833 -10.5 38.5 -10.5h30v20c-6.66699 -0.666992 -13.834 -1.16699 -21.501 -1.5s-14.834 0.333984 -21.501 2.00098
s-12 4.83398 -16 9.50098s-6 12 -6 22v327c-0.666992 28 -5.66699 51.333 -15 70s-21.666 33.834 -36.999 45.501s-33.166 19.834 -53.499 24.501s-41.833 7 -64.5 7c-32 0 -59.833 -4.33301 -83.5 -13s-43.667 -20.667 -60 -36s-28.833 -33.5 -37.5 -54.5
s-13.667 -43.5 -15 -67.5zM399.994 301.994l-0.000976562 -95.0029c0 -25.333 -4.5 -50 -13.5 -74s-22.333 -45.167 -40 -63.5s-39.5 -33.166 -65.5 -44.499s-55.667 -17 -89 -17c-28 0 -51.5 3.5 -70.5 10.5s-34.5 16 -46.5 27s-20.5 23.667 -25.5 38
s-7.5 28.833 -7.5 43.5c0 27.333 4.33301 49.5 13 66.5s20.334 30.333 35.001 40s31.5 16.334 50.5 20.001s38.5 6.16699 58.5 7.5s40.5 2.33301 61.5 3s40.5 2.33398 58.5 5.00098s34 6.5 48 11.5s24.333 12.167 31 21.5h2z" />
    <glyph glyph-name="atilde" unicode="&#xe3;" horiz-adv-x="481" 
d="M109 580l20 0.000976562c0 6 1.16699 12.5 3.5 19.5s5.66602 13.5 9.99902 19.5s9.5 10.833 15.5 14.5s12.333 5.5 19 5.5c10.667 0 21 -3 31 -9s20 -12.667 30 -20s20.333 -14 31 -20s22.334 -9 35.001 -9c23.333 0 40.666 7.66699 51.999 23s17 32.666 17 51.999h-20
c0 -14 -4.33301 -26.667 -13 -38s-20.667 -17 -36 -17c-10 0 -20 3 -30 9s-20.333 12.667 -31 20s-21.5 14 -32.5 20s-22.167 9 -33.5 9c-8.66699 0 -17.167 -2.33301 -25.5 -7s-15.666 -10.834 -21.999 -18.501s-11.333 -16.167 -15 -25.5s-5.5 -18.666 -5.5 -27.999z
M54 355.001l19.9941 -0.00585938c3.33301 48 20 85.167 50 111.5s72 39.5 126 39.5c34 0 61 -4.5 81 -13.5s35.167 -20.5 45.5 -34.5s16.833 -29.333 19.5 -46s4 -32.667 4 -48c0 -19.333 -3.83301 -34.166 -11.5 -44.499s-19.667 -18 -36 -23s-37.166 -8.33301 -62.499 -10
s-55.666 -3.5 -90.999 -5.5c-21.333 -1.33301 -42.666 -4.16602 -63.999 -8.49902s-40.333 -12 -57 -23s-30.167 -26.167 -40.5 -45.5s-15.5 -45 -15.5 -77c0 -46 15.667 -80.5 47 -103.5s73 -34.5 125 -34.5c26.667 0 51.334 3.5 74.001 10.5s42.834 16.5 60.501 28.5
s32.334 25.667 44.001 41s20.167 31.333 25.5 48h2v-67c0 -19.333 5.5 -32.5 16.5 -39.5s23.833 -10.5 38.5 -10.5h30v20c-6.66699 -0.666992 -13.834 -1.16699 -21.501 -1.5s-14.834 0.333984 -21.501 2.00098s-12 4.83398 -16 9.50098s-6 12 -6 22v327
c-0.666992 28 -5.66699 51.333 -15 70s-21.666 33.834 -36.999 45.501s-33.166 19.834 -53.499 24.501s-41.833 7 -64.5 7c-32 0 -59.833 -4.33301 -83.5 -13s-43.667 -20.667 -60 -36s-28.833 -33.5 -37.5 -54.5s-13.667 -43.5 -15 -67.5zM399.994 301.995
l-0.000976562 -95.0029c0 -25.333 -4.5 -50 -13.5 -74s-22.333 -45.167 -40 -63.5s-39.5 -33.166 -65.5 -44.499s-55.667 -17 -89 -17c-28 0 -51.5 3.5 -70.5 10.5s-34.5 16 -46.5 27s-20.5 23.667 -25.5 38s-7.5 28.833 -7.5 43.5c0 27.333 4.33301 49.5 13 66.5
s20.334 30.333 35.001 40s31.5 16.334 50.5 20.001s38.5 6.16699 58.5 7.5s40.5 2.33301 61.5 3s40.5 2.33398 58.5 5.00098s34 6.5 48 11.5s24.333 12.167 31 21.5h2z" />
    <glyph glyph-name="adieresis" unicode="&#xe4;" horiz-adv-x="481" 
d="M309 568h20v81h-20v-81zM153 568h20v81h-20v-81zM54 355l19.9941 -0.00585938c3.33301 48 20 85.167 50 111.5s72 39.5 126 39.5c34 0 61 -4.5 81 -13.5s35.167 -20.5 45.5 -34.5s16.833 -29.333 19.5 -46s4 -32.667 4 -48c0 -19.333 -3.83301 -34.166 -11.5 -44.499
s-19.667 -18 -36 -23s-37.166 -8.33301 -62.499 -10s-55.666 -3.5 -90.999 -5.5c-21.333 -1.33301 -42.666 -4.16602 -63.999 -8.49902s-40.333 -12 -57 -23s-30.167 -26.167 -40.5 -45.5s-15.5 -45 -15.5 -77c0 -46 15.667 -80.5 47 -103.5s73 -34.5 125 -34.5
c26.667 0 51.334 3.5 74.001 10.5s42.834 16.5 60.501 28.5s32.334 25.667 44.001 41s20.167 31.333 25.5 48h2v-67c0 -19.333 5.5 -32.5 16.5 -39.5s23.833 -10.5 38.5 -10.5h30v20c-6.66699 -0.666992 -13.834 -1.16699 -21.501 -1.5s-14.834 0.333984 -21.501 2.00098
s-12 4.83398 -16 9.50098s-6 12 -6 22v327c-0.666992 28 -5.66699 51.333 -15 70s-21.666 33.834 -36.999 45.501s-33.166 19.834 -53.499 24.501s-41.833 7 -64.5 7c-32 0 -59.833 -4.33301 -83.5 -13s-43.667 -20.667 -60 -36s-28.833 -33.5 -37.5 -54.5
s-13.667 -43.5 -15 -67.5zM399.994 301.994l-0.000976562 -95.0029c0 -25.333 -4.5 -50 -13.5 -74s-22.333 -45.167 -40 -63.5s-39.5 -33.166 -65.5 -44.499s-55.667 -17 -89 -17c-28 0 -51.5 3.5 -70.5 10.5s-34.5 16 -46.5 27s-20.5 23.667 -25.5 38
s-7.5 28.833 -7.5 43.5c0 27.333 4.33301 49.5 13 66.5s20.334 30.333 35.001 40s31.5 16.334 50.5 20.001s38.5 6.16699 58.5 7.5s40.5 2.33301 61.5 3s40.5 2.33398 58.5 5.00098s34 6.5 48 11.5s24.333 12.167 31 21.5h2z" />
    <glyph glyph-name="aring" unicode="&#xe5;" horiz-adv-x="481" 
d="M309 674c0 -18.667 -6.66699 -34.667 -20 -48s-29.333 -20 -48 -20s-34.667 6.66699 -48 20s-20 29.333 -20 48s6.66699 34.667 20 48s29.333 20 48 20s34.667 -6.66699 48 -20s20 -29.333 20 -48zM329 674c0 12 -2.33301 23.333 -7 34s-11 20 -19 28
s-17.333 14.333 -28 19s-22 7 -34 7s-23.333 -2.33301 -34 -7s-20 -11 -28 -19s-14.333 -17.333 -19 -28s-7 -22 -7 -34s2.33301 -23.333 7 -34s11 -20 19 -28s17.333 -14.333 28 -19s22 -7 34 -7s23.333 2.33301 34 7s20 11 28 19s14.333 17.333 19 28s7 22 7 34zM54 355
l19.9941 -0.00585938c3.33301 48 20 85.167 50 111.5s72 39.5 126 39.5c34 0 61 -4.5 81 -13.5s35.167 -20.5 45.5 -34.5s16.833 -29.333 19.5 -46s4 -32.667 4 -48c0 -19.333 -3.83301 -34.166 -11.5 -44.499s-19.667 -18 -36 -23s-37.166 -8.33301 -62.499 -10
s-55.666 -3.5 -90.999 -5.5c-21.333 -1.33301 -42.666 -4.16602 -63.999 -8.49902s-40.333 -12 -57 -23s-30.167 -26.167 -40.5 -45.5s-15.5 -45 -15.5 -77c0 -46 15.667 -80.5 47 -103.5s73 -34.5 125 -34.5c26.667 0 51.334 3.5 74.001 10.5s42.834 16.5 60.501 28.5
s32.334 25.667 44.001 41s20.167 31.333 25.5 48h2v-67c0 -19.333 5.5 -32.5 16.5 -39.5s23.833 -10.5 38.5 -10.5h30v20c-6.66699 -0.666992 -13.834 -1.16699 -21.501 -1.5s-14.834 0.333984 -21.501 2.00098s-12 4.83398 -16 9.50098s-6 12 -6 22v327
c-0.666992 28 -5.66699 51.333 -15 70s-21.666 33.834 -36.999 45.501s-33.166 19.834 -53.499 24.501s-41.833 7 -64.5 7c-32 0 -59.833 -4.33301 -83.5 -13s-43.667 -20.667 -60 -36s-28.833 -33.5 -37.5 -54.5s-13.667 -43.5 -15 -67.5zM399.994 301.994
l-0.000976562 -95.0029c0 -25.333 -4.5 -50 -13.5 -74s-22.333 -45.167 -40 -63.5s-39.5 -33.166 -65.5 -44.499s-55.667 -17 -89 -17c-28 0 -51.5 3.5 -70.5 10.5s-34.5 16 -46.5 27s-20.5 23.667 -25.5 38s-7.5 28.833 -7.5 43.5c0 27.333 4.33301 49.5 13 66.5
s20.334 30.333 35.001 40s31.5 16.334 50.5 20.001s38.5 6.16699 58.5 7.5s40.5 2.33301 61.5 3s40.5 2.33398 58.5 5.00098s34 6.5 48 11.5s24.333 12.167 31 21.5h2z" />
    <glyph glyph-name="ae" unicode="&#xe6;" horiz-adv-x="889" 
d="M64 355l19.9971 -0.00292969c3.33301 48 20 85.167 50 111.5s72 39.5 126 39.5c34 0 61 -4.5 81 -13.5s35.167 -20.5 45.5 -34.5s16.833 -29.333 19.5 -46s4 -32.667 4 -48c0 -19.333 -3.83301 -34.166 -11.5 -44.499s-19.667 -18 -36 -23s-37.166 -8.33301 -62.499 -10
s-55.666 -3.5 -90.999 -5.5c-21.333 -1.33301 -42.666 -4.16602 -63.999 -8.49902s-40.333 -12 -57 -23s-30.167 -26.167 -40.5 -45.5s-15.5 -45 -15.5 -77c0 -46 15.667 -80.5 47 -103.5s73 -34.5 125 -34.5c27.333 0 53 3.66699 77 11s45.5 18.166 64.5 32.499
s35 31.833 48 52.5s22.167 44 27.5 70h2c13.333 -54 38 -95.333 74 -124s82 -42.667 138 -42c30 0 57.833 4.5 83.5 13.5s48 21.833 67 38.5s34.5 36.667 46.5 60s19.333 49 22 77h-20c-3.33301 -28 -10.833 -52.5 -22.5 -73.5s-26.334 -38.667 -44.001 -53
s-37.834 -25.166 -60.501 -32.499s-46.667 -11 -72 -11c-36.667 0 -67.834 6.33301 -93.501 19s-46.5 30.167 -62.5 52.5s-27.833 48.333 -35.5 78s-12.167 61.5 -13.5 95.5h427c1.33301 36 -2.16699 70.5 -10.5 103.5s-21.5 62 -39.5 87s-41 45 -69 60
s-61.667 22.5 -101 22.5c-26.667 0 -51.167 -3.83301 -73.5 -11.5s-42.166 -18.167 -59.499 -31.5s-32 -29.166 -44 -47.499s-21.333 -38.166 -28 -59.499h-2c-0.666992 28.667 -5.66699 52.667 -15 72s-21.666 34.666 -36.999 45.999s-33.166 19.5 -53.499 24.5
s-41.833 7.5 -64.5 7.5c-32 0 -59.833 -4.33301 -83.5 -13s-43.667 -20.667 -60 -36s-28.833 -33.5 -37.5 -54.5s-13.667 -43.5 -15 -67.5zM409.997 301.997l-0.000976562 -95.0029c0 -25.333 -4.5 -50 -13.5 -74s-22.333 -45.167 -40 -63.5s-39.5 -33.166 -65.5 -44.499
s-55.667 -17 -89 -17c-28 0 -51.5 3.5 -70.5 10.5s-34.5 16 -46.5 27s-20.5 23.667 -25.5 38s-7.5 28.833 -7.5 43.5c0 27.333 4.33301 49.5 13 66.5s20.334 30.333 35.001 40s31.5 16.334 50.5 20.001s38.5 6.16699 58.5 7.5s40.5 2.33301 61.5 3
s40.5 2.33398 58.5 5.00098s34 6.5 48 11.5s24.333 12.167 31 21.5h2zM836.996 272.994h-406.999c2.66699 35.333 9 67.333 19 96s23.667 53.167 41 73.5s38.333 36 63 47s52.667 16.5 84 16.5c34 0 63.5 -6.16699 88.5 -18.5s45.667 -29 62 -50s28.666 -45.667 36.999 -74
s12.5 -58.5 12.5 -90.5z" />
    <glyph glyph-name="ccedilla" unicode="&#xe7;" 
d="M469 175l-19.9971 0.000976562c-2 -26 -8.33301 -49.167 -19 -69.5s-24.5 -37.833 -41.5 -52.5s-36.5 -25.834 -58.5 -33.501s-45.667 -11.5 -71 -11.5c-34 0 -64 6.5 -90 19.5s-47.667 30.5 -65 52.5s-30.5 47.333 -39.5 76s-13.5 58.667 -13.5 90
c0 30 3.83301 60.5 11.5 91.5s20 59 37 84s39.667 45.333 68 61s62.833 23.5 103.5 23.5c21.333 0 41.666 -3 60.999 -9s36.666 -15.167 51.999 -27.5s28.333 -27.666 39 -45.999s18 -40.166 22 -65.499h20c-3.33301 27.333 -10.833 51.5 -22.5 72.5
s-26.167 38.5 -43.5 52.5s-37 24.667 -59 32s-45 11 -69 11c-40.667 0 -76.167 -7.66699 -106.5 -23s-55.333 -35.833 -75 -61.5s-34.334 -55.334 -44.001 -89.001s-14.5 -69.167 -14.5 -106.5c0 -34 4.66699 -66.167 14 -96.5s23.166 -57 41.499 -80
s40.833 -41.5 67.5 -55.5s57 -21.667 91 -23l-49 -63l15 -10c14.667 8.66699 32.667 13 54 13c5.33301 0 11.166 -0.833008 17.499 -2.5s12.166 -4 17.499 -7s10 -7.16699 14 -12.5s6 -11.333 6 -18c0 -10 -2.33301 -18.5 -7 -25.5s-10.667 -12.5 -18 -16.5
s-15.666 -6.83301 -24.999 -8.5s-18.666 -2.5 -27.999 -2.5c-13.333 0 -26 1.66699 -38 5s-23.667 7 -35 11l-9 -19c9.33301 -3.33301 21 -7 35 -11s29.667 -6 47 -6c13.333 0 25.833 1 37.5 3s22 5.83301 31 11.5s16.167 13.167 21.5 22.5s8 21.333 8 36
c0 22 -7.66699 37.5 -23 46.5s-32.666 13.5 -51.999 13.5c-9.33301 0 -16 -0.833008 -20 -2.5s-8.33301 -2.83398 -13 -3.50098l33 45c56.667 1.33301 103.5 18 140.5 50s58.167 77 63.5 135z" />
    <glyph glyph-name="egrave" unicode="&#xe8;" 
d="M147 709l139 -144h15l-125 144h-29zM45 253l430.002 -0.00195312c1.33301 35.333 -2.16699 69.333 -10.5 102s-21.666 61.667 -39.999 87s-42 45.666 -71 60.999s-63.5 23 -103.5 23c-28.667 0 -56.667 -6 -84 -18s-51.333 -29.5 -72 -52.5
s-37.334 -51.167 -50.001 -84.5s-19 -71.333 -19 -114c0 -38 4.33301 -73.5 13 -106.5s22 -61.667 40 -86s41.167 -43.166 69.5 -56.499s62.5 -19.666 102.5 -18.999c58.667 0 108 16.5 148 49.5s63.667 79.5 71 139.5h-20c-8.66699 -56.667 -30.834 -99.167 -66.501 -127.5
s-80.5 -42.5 -134.5 -42.5c-36.667 0 -67.667 6.33301 -93 19s-46 30 -62 52s-27.833 47.833 -35.5 77.5s-11.834 61.834 -12.501 96.501zM455.002 272.998l-409.997 -0.00292969c2 36 8.66699 68.333 20 97s26.166 53.167 44.499 73.5s39.666 35.833 63.999 46.5
s50.5 16 78.5 16c33.333 0 62.666 -6.16699 87.999 -18.5s46.5 -29.166 63.5 -50.499s29.833 -46.166 38.5 -74.499s13 -58.166 13 -89.499z" />
    <glyph glyph-name="eacute" unicode="&#xe9;" 
d="M356 709h-29l-132 -144h15zM45 253l430.002 -0.00195312c1.33301 35.333 -2.16699 69.333 -10.5 102s-21.666 61.667 -39.999 87s-42 45.666 -71 60.999s-63.5 23 -103.5 23c-28.667 0 -56.667 -6 -84 -18s-51.333 -29.5 -72 -52.5s-37.334 -51.167 -50.001 -84.5
s-19 -71.333 -19 -114c0 -38 4.33301 -73.5 13 -106.5s22 -61.667 40 -86s41.167 -43.166 69.5 -56.499s62.5 -19.666 102.5 -18.999c58.667 0 108 16.5 148 49.5s63.667 79.5 71 139.5h-20c-8.66699 -56.667 -30.834 -99.167 -66.501 -127.5s-80.5 -42.5 -134.5 -42.5
c-36.667 0 -67.667 6.33301 -93 19s-46 30 -62 52s-27.833 47.833 -35.5 77.5s-11.834 61.834 -12.501 96.501zM455.002 272.998l-409.997 -0.00292969c2 36 8.66699 68.333 20 97s26.166 53.167 44.499 73.5s39.666 35.833 63.999 46.5s50.5 16 78.5 16
c33.333 0 62.666 -6.16699 87.999 -18.5s46.5 -29.166 63.5 -50.499s29.833 -46.166 38.5 -74.499s13 -58.166 13 -89.499z" />
    <glyph glyph-name="ecircumflex" unicode="&#xea;" 
d="M351 570h20l-114 139h-15l-113 -139h20l99 123zM45 253l430.002 -0.00195312c1.33301 35.333 -2.16699 69.333 -10.5 102s-21.666 61.667 -39.999 87s-42 45.666 -71 60.999s-63.5 23 -103.5 23c-28.667 0 -56.667 -6 -84 -18s-51.333 -29.5 -72 -52.5
s-37.334 -51.167 -50.001 -84.5s-19 -71.333 -19 -114c0 -38 4.33301 -73.5 13 -106.5s22 -61.667 40 -86s41.167 -43.166 69.5 -56.499s62.5 -19.666 102.5 -18.999c58.667 0 108 16.5 148 49.5s63.667 79.5 71 139.5h-20c-8.66699 -56.667 -30.834 -99.167 -66.501 -127.5
s-80.5 -42.5 -134.5 -42.5c-36.667 0 -67.667 6.33301 -93 19s-46 30 -62 52s-27.833 47.833 -35.5 77.5s-11.834 61.834 -12.501 96.501zM455.002 272.998l-409.997 -0.00292969c2 36 8.66699 68.333 20 97s26.166 53.167 44.499 73.5s39.666 35.833 63.999 46.5
s50.5 16 78.5 16c33.333 0 62.666 -6.16699 87.999 -18.5s46.5 -29.166 63.5 -50.499s29.833 -46.166 38.5 -74.499s13 -58.166 13 -89.499z" />
    <glyph glyph-name="edieresis" unicode="&#xeb;" 
d="M318 568h20v81h-20v-81zM162 568h20v81h-20v-81zM45 253l430.002 -0.00195312c1.33301 35.333 -2.16699 69.333 -10.5 102s-21.666 61.667 -39.999 87s-42 45.666 -71 60.999s-63.5 23 -103.5 23c-28.667 0 -56.667 -6 -84 -18s-51.333 -29.5 -72 -52.5
s-37.334 -51.167 -50.001 -84.5s-19 -71.333 -19 -114c0 -38 4.33301 -73.5 13 -106.5s22 -61.667 40 -86s41.167 -43.166 69.5 -56.499s62.5 -19.666 102.5 -18.999c58.667 0 108 16.5 148 49.5s63.667 79.5 71 139.5h-20c-8.66699 -56.667 -30.834 -99.167 -66.501 -127.5
s-80.5 -42.5 -134.5 -42.5c-36.667 0 -67.667 6.33301 -93 19s-46 30 -62 52s-27.833 47.833 -35.5 77.5s-11.834 61.834 -12.501 96.501zM455.002 272.998l-409.997 -0.00292969c2 36 8.66699 68.333 20 97s26.166 53.167 44.499 73.5s39.666 35.833 63.999 46.5
s50.5 16 78.5 16c33.333 0 62.666 -6.16699 87.999 -18.5s46.5 -29.166 63.5 -50.499s29.833 -46.166 38.5 -74.499s13 -58.166 13 -89.499z" />
    <glyph glyph-name="igrave" unicode="&#xec;" horiz-adv-x="130" 
d="M-37 709l138 -144h15l-124 144h-29zM55 0h20v514h-20v-514z" />
    <glyph glyph-name="iacute" unicode="&#xed;" horiz-adv-x="130" 
d="M171 709h-29l-132 -144h15zM55 0h20v514h-20v-514z" />
    <glyph glyph-name="icircumflex" unicode="&#xee;" horiz-adv-x="130" 
d="M166 570h20l-114 139h-15l-112 -139h20l98 123zM55 0h20v514h-20v-514z" />
    <glyph glyph-name="idieresis" unicode="&#xef;" horiz-adv-x="130" 
d="M133 568h20v81h-20v-81zM-22 568h20v81h-20v-81zM55 0h20v514h-20v-514z" />
    <glyph glyph-name="eth" unicode="&#xf0;" horiz-adv-x="519" 
d="M48 248c0 30.667 4.5 60.334 13.5 89.001s22.5 54.167 40.5 76.5s40.167 40.166 66.5 53.499s56.833 20 91.5 20c34 0 64.167 -6.66699 90.5 -20s48.5 -31.166 66.5 -53.499s31.5 -47.833 40.5 -76.5s13.5 -58.334 13.5 -89.001s-4.5 -60.5 -13.5 -89.5
s-22.5 -54.5 -40.5 -76.5s-40.167 -39.667 -66.5 -53s-56.5 -20 -90.5 -20c-34.667 0 -65.167 6.66699 -91.5 20s-48.5 31 -66.5 53s-31.5 47.5 -40.5 76.5s-13.5 58.833 -13.5 89.5zM249 648l-121.002 -67.001l15 -15l122 68c12 -10 25.167 -22.167 39.5 -36.5
s28.833 -30.333 43.5 -48s28.834 -36.167 42.501 -55.5s25.5 -39 35.5 -59h-4c-19.333 25.333 -43.5 43.666 -72.5 54.999s-58.833 17 -89.5 17c-38 0 -71.333 -7.16699 -100 -21.5s-52.834 -33.5 -72.501 -57.5s-34.5 -51.5 -44.5 -82.5s-15 -63.5 -15 -97.5
s5 -66.667 15 -98s24.833 -58.833 44.5 -82.5s43.834 -42.5 72.501 -56.5s61.667 -21 99 -21c38 0 71.333 7 100 21s52.834 32.833 72.501 56.5s34.5 51.167 44.5 82.5s15 64 15 98c0 36.667 -4 71.667 -12 105s-20.333 66 -37 98s-38 63.833 -64 95.5
s-56.667 63.834 -92 96.501l120 67l-15 16l-123 -68c-12 10 -26.167 20.667 -42.5 32s-34.166 22 -53.499 32l-16 -14c19.333 -10 36.666 -20.167 51.999 -30.5s29 -20.166 41 -29.499z" />
    <glyph glyph-name="ntilde" unicode="&#xf1;" 
d="M118 580l20 0.000976562c0 6 1.16699 12.5 3.5 19.5s5.66602 13.5 9.99902 19.5s9.5 10.833 15.5 14.5s12.333 5.5 19 5.5c10.667 0 21 -3 31 -9s20 -12.667 30 -20s20.333 -14 31 -20s22.334 -9 35.001 -9c23.333 0 40.666 7.66699 51.999 23s17 32.666 17 51.999h-20
c0 -14 -4.33301 -26.667 -13 -38s-20.667 -17 -36 -17c-10 0 -20 3 -30 9s-20.333 12.667 -31 20s-21.5 14 -32.5 20s-22.167 9 -33.5 9c-8.66699 0 -17.167 -2.33301 -25.5 -7s-15.666 -10.834 -21.999 -18.501s-11.333 -16.167 -15 -25.5s-5.5 -18.666 -5.5 -27.999z
M55 514.001v-514h20v291c0 28.667 4 56 12 82s19.833 48.833 35.5 68.5s35.167 35.334 58.5 47.001s50.333 17.5 81 17.5c22 0 42.833 -3.16699 62.5 -9.5s37 -16.333 52 -30s26.833 -31 35.5 -52s13 -46.5 13 -76.5v-338h20v341c0 30 -4.5 56.5 -13.5 79.5
s-21.667 42.333 -38 58s-35.666 27.5 -57.999 35.5s-46.833 12 -73.5 12c-25.333 0 -48.333 -3.5 -69 -10.5s-38.834 -16.833 -54.501 -29.5s-28.667 -27.334 -39 -44.001s-17.833 -35 -22.5 -55h-2v127h-20z" />
    <glyph glyph-name="ograve" unicode="&#xf2;" horiz-adv-x="519" 
d="M157 709l139 -144h15l-125 144h-29zM48 257c0 32 4.5 63 13.5 93s22.5 56.5 40.5 79.5s40.167 41.5 66.5 55.5s56.833 21 91.5 21c34 0 64.167 -7 90.5 -21s48.5 -32.5 66.5 -55.5s31.5 -49.5 40.5 -79.5s13.5 -61 13.5 -93c0 -32.667 -4.5 -64 -13.5 -94
s-22.5 -56.5 -40.5 -79.5s-40.167 -41.333 -66.5 -55s-56.5 -20.5 -90.5 -20.5c-34.667 0 -65.167 6.83301 -91.5 20.5s-48.5 32 -66.5 55s-31.5 49.5 -40.5 79.5s-13.5 61.333 -13.5 94zM28 257c0 -35.333 5 -69.166 15 -101.499s24.833 -60.833 44.5 -85.5
s43.834 -44.334 72.501 -59.001s61.667 -22 99 -22c38 0 71.333 7.33301 100 22s52.834 34.334 72.501 59.001s34.5 53.167 44.5 85.5s15 66.166 15 101.499s-5 69.166 -15 101.499s-24.833 60.833 -44.5 85.5s-43.834 44.5 -72.501 59.5s-61.667 22.5 -99 22.5
c-38 0 -71.333 -7.5 -100 -22.5s-52.834 -34.833 -72.501 -59.5s-34.5 -53.167 -44.5 -85.5s-15 -66.166 -15 -101.499z" />
    <glyph glyph-name="oacute" unicode="&#xf3;" horiz-adv-x="519" 
d="M366 709h-29l-132 -144h15zM48 257c0 32 4.5 63 13.5 93s22.5 56.5 40.5 79.5s40.167 41.5 66.5 55.5s56.833 21 91.5 21c34 0 64.167 -7 90.5 -21s48.5 -32.5 66.5 -55.5s31.5 -49.5 40.5 -79.5s13.5 -61 13.5 -93c0 -32.667 -4.5 -64 -13.5 -94
s-22.5 -56.5 -40.5 -79.5s-40.167 -41.333 -66.5 -55s-56.5 -20.5 -90.5 -20.5c-34.667 0 -65.167 6.83301 -91.5 20.5s-48.5 32 -66.5 55s-31.5 49.5 -40.5 79.5s-13.5 61.333 -13.5 94zM28 257c0 -35.333 5 -69.166 15 -101.499s24.833 -60.833 44.5 -85.5
s43.834 -44.334 72.501 -59.001s61.667 -22 99 -22c38 0 71.333 7.33301 100 22s52.834 34.334 72.501 59.001s34.5 53.167 44.5 85.5s15 66.166 15 101.499s-5 69.166 -15 101.499s-24.833 60.833 -44.5 85.5s-43.834 44.5 -72.501 59.5s-61.667 22.5 -99 22.5
c-38 0 -71.333 -7.5 -100 -22.5s-52.834 -34.833 -72.501 -59.5s-34.5 -53.167 -44.5 -85.5s-15 -66.166 -15 -101.499z" />
    <glyph glyph-name="ocircumflex" unicode="&#xf4;" horiz-adv-x="519" 
d="M361 570h20l-114 139h-15l-113 -139h20l99 123zM48 257c0 32 4.5 63 13.5 93s22.5 56.5 40.5 79.5s40.167 41.5 66.5 55.5s56.833 21 91.5 21c34 0 64.167 -7 90.5 -21s48.5 -32.5 66.5 -55.5s31.5 -49.5 40.5 -79.5s13.5 -61 13.5 -93c0 -32.667 -4.5 -64 -13.5 -94
s-22.5 -56.5 -40.5 -79.5s-40.167 -41.333 -66.5 -55s-56.5 -20.5 -90.5 -20.5c-34.667 0 -65.167 6.83301 -91.5 20.5s-48.5 32 -66.5 55s-31.5 49.5 -40.5 79.5s-13.5 61.333 -13.5 94zM28 257c0 -35.333 5 -69.166 15 -101.499s24.833 -60.833 44.5 -85.5
s43.834 -44.334 72.501 -59.001s61.667 -22 99 -22c38 0 71.333 7.33301 100 22s52.834 34.334 72.501 59.001s34.5 53.167 44.5 85.5s15 66.166 15 101.499s-5 69.166 -15 101.499s-24.833 60.833 -44.5 85.5s-43.834 44.5 -72.501 59.5s-61.667 22.5 -99 22.5
c-38 0 -71.333 -7.5 -100 -22.5s-52.834 -34.833 -72.501 -59.5s-34.5 -53.167 -44.5 -85.5s-15 -66.166 -15 -101.499z" />
    <glyph glyph-name="otilde" unicode="&#xf5;" horiz-adv-x="519" 
d="M128 580l20 0.000976562c0 6 1.16699 12.5 3.5 19.5s5.66602 13.5 9.99902 19.5s9.5 10.833 15.5 14.5s12.333 5.5 19 5.5c10.667 0 21 -3 31 -9s20 -12.667 30 -20s20.333 -14 31 -20s22.334 -9 35.001 -9c23.333 0 40.666 7.66699 51.999 23s17 32.666 17 51.999h-20
c0 -14 -4.33301 -26.667 -13 -38s-20.667 -17 -36 -17c-10 0 -20 3 -30 9s-20.333 12.667 -31 20s-21.5 14 -32.5 20s-22.167 9 -33.5 9c-8.66699 0 -17.167 -2.33301 -25.5 -7s-15.666 -10.834 -21.999 -18.501s-11.333 -16.167 -15 -25.5s-5.5 -18.666 -5.5 -27.999z
M48 257.001c0 32 4.5 63 13.5 93s22.5 56.5 40.5 79.5s40.167 41.5 66.5 55.5s56.833 21 91.5 21c34 0 64.167 -7 90.5 -21s48.5 -32.5 66.5 -55.5s31.5 -49.5 40.5 -79.5s13.5 -61 13.5 -93c0 -32.667 -4.5 -64 -13.5 -94s-22.5 -56.5 -40.5 -79.5
s-40.167 -41.333 -66.5 -55s-56.5 -20.5 -90.5 -20.5c-34.667 0 -65.167 6.83301 -91.5 20.5s-48.5 32 -66.5 55s-31.5 49.5 -40.5 79.5s-13.5 61.333 -13.5 94zM28 257.001c0 -35.333 5 -69.166 15 -101.499s24.833 -60.833 44.5 -85.5s43.834 -44.334 72.501 -59.001
s61.667 -22 99 -22c38 0 71.333 7.33301 100 22s52.834 34.334 72.501 59.001s34.5 53.167 44.5 85.5s15 66.166 15 101.499s-5 69.166 -15 101.499s-24.833 60.833 -44.5 85.5s-43.834 44.5 -72.501 59.5s-61.667 22.5 -99 22.5c-38 0 -71.333 -7.5 -100 -22.5
s-52.834 -34.833 -72.501 -59.5s-34.5 -53.167 -44.5 -85.5s-15 -66.166 -15 -101.499z" />
    <glyph glyph-name="odieresis" unicode="&#xf6;" horiz-adv-x="519" 
d="M328 568h20v81h-20v-81zM172 568h20v81h-20v-81zM48 257c0 32 4.5 63 13.5 93s22.5 56.5 40.5 79.5s40.167 41.5 66.5 55.5s56.833 21 91.5 21c34 0 64.167 -7 90.5 -21s48.5 -32.5 66.5 -55.5s31.5 -49.5 40.5 -79.5s13.5 -61 13.5 -93c0 -32.667 -4.5 -64 -13.5 -94
s-22.5 -56.5 -40.5 -79.5s-40.167 -41.333 -66.5 -55s-56.5 -20.5 -90.5 -20.5c-34.667 0 -65.167 6.83301 -91.5 20.5s-48.5 32 -66.5 55s-31.5 49.5 -40.5 79.5s-13.5 61.333 -13.5 94zM28 257c0 -35.333 5 -69.166 15 -101.499s24.833 -60.833 44.5 -85.5
s43.834 -44.334 72.501 -59.001s61.667 -22 99 -22c38 0 71.333 7.33301 100 22s52.834 34.334 72.501 59.001s34.5 53.167 44.5 85.5s15 66.166 15 101.499s-5 69.166 -15 101.499s-24.833 60.833 -44.5 85.5s-43.834 44.5 -72.501 59.5s-61.667 22.5 -99 22.5
c-38 0 -71.333 -7.5 -100 -22.5s-52.834 -34.833 -72.501 -59.5s-34.5 -53.167 -44.5 -85.5s-15 -66.166 -15 -101.499z" />
    <glyph glyph-name="divide" unicode="&#xf7;" horiz-adv-x="600" 
d="M300 0c15.333 0 26 4 32 12s9 17.667 9 29s-4 21 -12 29s-17.667 12 -29 12s-21 -3.83301 -29 -11.5s-12 -17.5 -12 -29.5c0 -11.333 3.16699 -21 9.5 -29s16.833 -12 31.5 -12zM300 424c15.333 0 26 4 32 12s9 17.667 9 29s-4 21 -12 29s-17.667 12 -29 12
s-21 -3.83301 -29 -11.5s-12 -17.5 -12 -29.5c0 -11.333 3.16699 -21 9.5 -29s16.833 -12 31.5 -12zM48 243h504v20h-504v-20z" />
    <glyph glyph-name="oslash" unicode="&#xf8;" horiz-adv-x="519" 
d="M472 496l-45 -47.001c-19.333 24 -43 42.833 -71 56.5s-60 20.5 -96 20.5c-38 0 -71.333 -7.5 -100 -22.5s-52.834 -34.833 -72.501 -59.5s-34.5 -53.167 -44.5 -85.5s-15 -66.166 -15 -101.499c0 -32 4.16699 -63 12.5 -93s20.833 -56.667 37.5 -80l-60 -62l14 -14
l57 59c19.333 -24 43 -43 71 -57s61 -21 99 -21s71.333 7.33301 100 22s52.834 34.334 72.501 59.001s34.5 53.167 44.5 85.5s15 66.166 15 101.499c0 34 -4.33301 66 -13 96s-21.667 56.667 -39 80l47 49zM104 82.999l320 335.001c15.333 -22.667 27 -47.667 35 -75
s12 -56 12 -86c0 -32.667 -4.5 -64 -13.5 -94s-22.5 -56.5 -40.5 -79.5s-40.167 -41.333 -66.5 -55s-56.5 -20.5 -90.5 -20.5c-34.667 0 -65 6.66699 -91 20s-47.667 31.666 -65 54.999zM412 434l-320 -335.001c-29.333 44.667 -44 97.334 -44 158.001c0 32 4.5 63 13.5 93
s22.5 56.5 40.5 79.5s40.167 41.5 66.5 55.5s56.833 21 91.5 21c34 0 63.5 -6.5 88.5 -19.5s46.167 -30.5 63.5 -52.5z" />
    <glyph glyph-name="ugrave" unicode="&#xf9;" 
d="M147 709l139 -144h15l-125 144h-29zM445 0v514.002h-20v-291c0 -28.667 -4 -56 -12 -82s-19.833 -48.833 -35.5 -68.5s-35.167 -35.334 -58.5 -47.001s-50.333 -17.5 -81 -17.5c-22 0 -42.833 3.16699 -62.5 9.5s-37 16.333 -52 30s-26.833 31 -35.5 52
s-13 46.5 -13 76.5v338h-20v-341c0 -30 4.5 -56.5 13.5 -79.5s21.667 -42.333 38 -58s35.666 -27.334 57.999 -35.001s46.833 -11.5 73.5 -11.5c50.667 0 91.834 13 123.501 39s52.167 59 61.5 99h2v-127h20z" />
    <glyph glyph-name="uacute" unicode="&#xfa;" 
d="M356 709h-29l-132 -144h15zM445 0v514.002h-20v-291c0 -28.667 -4 -56 -12 -82s-19.833 -48.833 -35.5 -68.5s-35.167 -35.334 -58.5 -47.001s-50.333 -17.5 -81 -17.5c-22 0 -42.833 3.16699 -62.5 9.5s-37 16.333 -52 30s-26.833 31 -35.5 52s-13 46.5 -13 76.5v338
h-20v-341c0 -30 4.5 -56.5 13.5 -79.5s21.667 -42.333 38 -58s35.666 -27.334 57.999 -35.001s46.833 -11.5 73.5 -11.5c50.667 0 91.834 13 123.501 39s52.167 59 61.5 99h2v-127h20z" />
    <glyph glyph-name="ucircumflex" unicode="&#xfb;" 
d="M351 570h20l-114 139h-15l-113 -139h20l99 123zM445 0v514.002h-20v-291c0 -28.667 -4 -56 -12 -82s-19.833 -48.833 -35.5 -68.5s-35.167 -35.334 -58.5 -47.001s-50.333 -17.5 -81 -17.5c-22 0 -42.833 3.16699 -62.5 9.5s-37 16.333 -52 30s-26.833 31 -35.5 52
s-13 46.5 -13 76.5v338h-20v-341c0 -30 4.5 -56.5 13.5 -79.5s21.667 -42.333 38 -58s35.666 -27.334 57.999 -35.001s46.833 -11.5 73.5 -11.5c50.667 0 91.834 13 123.501 39s52.167 59 61.5 99h2v-127h20z" />
    <glyph glyph-name="udieresis" unicode="&#xfc;" 
d="M318 568h20v81h-20v-81zM162 568h20v81h-20v-81zM445 0v514.002h-20v-291c0 -28.667 -4 -56 -12 -82s-19.833 -48.833 -35.5 -68.5s-35.167 -35.334 -58.5 -47.001s-50.333 -17.5 -81 -17.5c-22 0 -42.833 3.16699 -62.5 9.5s-37 16.333 -52 30s-26.833 31 -35.5 52
s-13 46.5 -13 76.5v338h-20v-341c0 -30 4.5 -56.5 13.5 -79.5s21.667 -42.333 38 -58s35.666 -27.334 57.999 -35.001s46.833 -11.5 73.5 -11.5c50.667 0 91.834 13 123.501 39s52.167 59 61.5 99h2v-127h20z" />
    <glyph glyph-name="yacute" unicode="&#xfd;" horiz-adv-x="407" 
d="M310 731h-29l-132 -144h15zM398 514l-184 -487.001l-204 487h-21l214 -509l-37 -95c-6 -15.333 -12.5 -27.5 -19.5 -36.5s-15 -15.667 -24 -20s-19.667 -7 -32 -8s-27.166 -1.5 -44.499 -1.5v-20c15.333 0 29.833 0.5 43.5 1.5s26.167 3.83301 37.5 8.5
s21.666 11.834 30.999 21.501s17.333 23.167 24 40.5l237 618h-21z" />
    <glyph glyph-name="thorn" unicode="&#xfe;" horiz-adv-x="537" 
d="M75 -176l-0.000976562 319.997h2c12 -46.667 36.167 -84.167 72.5 -112.5s80.833 -42.5 133.5 -42.5c38 0 70.833 7.16699 98.5 21.5s50.5 33.833 68.5 58.5s31.167 53.334 39.5 86.001s12.5 67 12.5 103c0 38.667 -4.66699 74.334 -14 107.001s-23.166 61 -41.499 85
s-41.166 42.667 -68.499 56s-59 20 -95 20c-56.667 0 -101.834 -14.667 -135.501 -44s-57.167 -66.666 -70.5 -111.999h-2v344h-20v-890h20zM481.999 257.997c0 -30 -3.16797 -59.832 -9.50098 -89.499s-17.333 -56.334 -33 -80.001s-36.167 -43 -61.5 -58
s-57 -22.5 -95 -22.5c-30 0 -57.833 5.5 -83.5 16.5s-47.667 27.167 -66 48.5s-32.666 47.5 -42.999 78.5s-15.5 66.5 -15.5 106.5c0 33.333 4.33301 65 13 95s21.5 56.333 38.5 79s38.667 40.667 65 54s56.833 20 91.5 20c35.333 0 65.5 -6.66699 90.5 -20
s45.5 -31.5 61.5 -54.5s27.833 -49.333 35.5 -79s11.5 -61.167 11.5 -94.5z" />
    <glyph glyph-name="ydieresis" unicode="&#xff;" horiz-adv-x="407" 
d="M272 590h20v81h-20v-81zM116 590h20v81h-20v-81zM398 514l-184 -487.001l-204 487h-21l214 -509l-37 -95c-6 -15.333 -12.5 -27.5 -19.5 -36.5s-15 -15.667 -24 -20s-19.667 -7 -32 -8s-27.166 -1.5 -44.499 -1.5v-20c15.333 0 29.833 0.5 43.5 1.5
s26.167 3.83301 37.5 8.5s21.666 11.834 30.999 21.501s17.333 23.167 24 40.5l237 618h-21z" />
    <glyph glyph-name="Amacron" unicode="&#x100;" horiz-adv-x="575" 
d="M106 235h364l94 -235h22l-282 714h-26l-289 -714h22zM462 255h-348l176 439h2zM171 764v20h231v-20h-231z" />
    <glyph glyph-name="amacron" unicode="&#x101;" horiz-adv-x="481" 
d="M54 355l19.9941 -0.00585938c3.33301 48 20 85.167 50 111.5s72 39.5 126 39.5c34 0 61 -4.5 81 -13.5s35.167 -20.5 45.5 -34.5s16.833 -29.333 19.5 -46s4 -32.667 4 -48c0 -19.333 -3.83301 -34.166 -11.5 -44.499s-19.667 -18 -36 -23s-37.166 -8.33301 -62.499 -10
s-55.666 -3.5 -90.999 -5.5c-21.333 -1.33301 -42.666 -4.16602 -63.999 -8.49902s-40.333 -12 -57 -23s-30.167 -26.167 -40.5 -45.5s-15.5 -45 -15.5 -77c0 -46 15.667 -80.5 47 -103.5s73 -34.5 125 -34.5c26.667 0 51.334 3.5 74.001 10.5s42.834 16.5 60.501 28.5
s32.334 25.667 44.001 41s20.167 31.333 25.5 48h2v-67c0 -19.333 5.5 -32.5 16.5 -39.5s23.833 -10.5 38.5 -10.5h30v20c-6.66699 -0.666992 -13.834 -1.16699 -21.501 -1.5s-14.834 0.333984 -21.501 2.00098s-12 4.83398 -16 9.50098s-6 12 -6 22v327
c-0.666992 28 -5.66699 51.333 -15 70s-21.666 33.834 -36.999 45.501s-33.166 19.834 -53.499 24.501s-41.833 7 -64.5 7c-32 0 -59.833 -4.33301 -83.5 -13s-43.667 -20.667 -60 -36s-28.833 -33.5 -37.5 -54.5s-13.667 -43.5 -15 -67.5zM399.994 301.994
l-0.000976562 -95.0029c0 -25.333 -4.5 -50 -13.5 -74s-22.333 -45.167 -40 -63.5s-39.5 -33.166 -65.5 -44.499s-55.667 -17 -89 -17c-28 0 -51.5 3.5 -70.5 10.5s-34.5 16 -46.5 27s-20.5 23.667 -25.5 38s-7.5 28.833 -7.5 43.5c0 27.333 4.33301 49.5 13 66.5
s20.334 30.333 35.001 40s31.5 16.334 50.5 20.001s38.5 6.16699 58.5 7.5s40.5 2.33301 61.5 3s40.5 2.33398 58.5 5.00098s34 6.5 48 11.5s24.333 12.167 31 21.5h2zM136.993 578.991v20h231v-20h-231z" />
    <glyph glyph-name="Abreve" unicode="&#x102;" horiz-adv-x="575" 
d="M106 235h364l94 -235h22l-282 714h-26l-289 -714h22zM462 255h-348l176 439h2zM184 871c3.33301 -26 14.001 -47 32.001 -63s40.333 -24 67 -24c28.667 0 52.667 7 72 21s30.666 36 33.999 66h20c-4 -34 -17.5 -60.333 -40.5 -79s-51.5 -28 -85.5 -28
c-32.667 0 -59.667 9.83301 -81 29.5s-34 45.5 -38 77.5h20v0z" />
    <glyph glyph-name="abreve" unicode="&#x103;" horiz-adv-x="481" 
d="M54 355l19.9941 -0.00585938c3.33301 48 20 85.167 50 111.5s72 39.5 126 39.5c34 0 61 -4.5 81 -13.5s35.167 -20.5 45.5 -34.5s16.833 -29.333 19.5 -46s4 -32.667 4 -48c0 -19.333 -3.83301 -34.166 -11.5 -44.499s-19.667 -18 -36 -23s-37.166 -8.33301 -62.499 -10
s-55.666 -3.5 -90.999 -5.5c-21.333 -1.33301 -42.666 -4.16602 -63.999 -8.49902s-40.333 -12 -57 -23s-30.167 -26.167 -40.5 -45.5s-15.5 -45 -15.5 -77c0 -46 15.667 -80.5 47 -103.5s73 -34.5 125 -34.5c26.667 0 51.334 3.5 74.001 10.5s42.834 16.5 60.501 28.5
s32.334 25.667 44.001 41s20.167 31.333 25.5 48h2v-67c0 -19.333 5.5 -32.5 16.5 -39.5s23.833 -10.5 38.5 -10.5h30v20c-6.66699 -0.666992 -13.834 -1.16699 -21.501 -1.5s-14.834 0.333984 -21.501 2.00098s-12 4.83398 -16 9.50098s-6 12 -6 22v327
c-0.666992 28 -5.66699 51.333 -15 70s-21.666 33.834 -36.999 45.501s-33.166 19.834 -53.499 24.501s-41.833 7 -64.5 7c-32 0 -59.833 -4.33301 -83.5 -13s-43.667 -20.667 -60 -36s-28.833 -33.5 -37.5 -54.5s-13.667 -43.5 -15 -67.5zM399.994 301.994
l-0.000976562 -95.0029c0 -25.333 -4.5 -50 -13.5 -74s-22.333 -45.167 -40 -63.5s-39.5 -33.166 -65.5 -44.499s-55.667 -17 -89 -17c-28 0 -51.5 3.5 -70.5 10.5s-34.5 16 -46.5 27s-20.5 23.667 -25.5 38s-7.5 28.833 -7.5 43.5c0 27.333 4.33301 49.5 13 66.5
s20.334 30.333 35.001 40s31.5 16.334 50.5 20.001s38.5 6.16699 58.5 7.5s40.5 2.33301 61.5 3s40.5 2.33398 58.5 5.00098s34 6.5 48 11.5s24.333 12.167 31 21.5h2zM149.993 685.991c3.33301 -26 14.001 -47 32.001 -63s40.333 -24 67 -24c28.667 0 52.667 7 72 21
s30.666 36 33.999 66h20c-4 -34 -17.5 -60.333 -40.5 -79s-51.5 -28 -85.5 -28c-32.667 0 -59.667 9.83301 -81 29.5s-34 45.5 -38 77.5h20v0z" />
    <glyph glyph-name="Aogonek" unicode="&#x104;" horiz-adv-x="575" 
d="M586 0c-37.333 -28.667 -63.6689 -52.4971 -79.002 -71.4971s-23 -36.833 -23 -53.5c0 -10.667 4 -20.834 12 -30.501s21.333 -14.5 40 -14.5c16 0 31 3.66699 45 11s24.667 14.666 32 21.999l14 -13c-9.33301 -9.33301 -21.666 -18 -36.999 -26s-34.666 -12 -57.999 -12
c-25.333 0 -43.333 6 -54 18s-16 26.667 -16 44c0 12 2.83301 23.667 8.5 35s13 22.166 22 32.499s19.167 20.333 30.5 30l35 28.5h6l-94 235h-364l-95 -235h-22l289 714h26zM291.997 694.003h-2l-176 -439h348z" />
    <glyph glyph-name="aogonek" unicode="&#x105;" horiz-adv-x="481" 
d="M54 355c1.33301 24 6.33691 46.5088 15.0039 67.5088s21.167 39.167 37.5 54.5s36.333 27.333 60 36s51.5 13 83.5 13c22.667 0 44.167 -2.33301 64.5 -7s38.166 -12.834 53.499 -24.501s27.666 -26.834 36.999 -45.501s14.333 -42 15 -70v-327c0 -10 2 -17.333 6 -22
s9.33301 -7.83398 16 -9.50098s13.834 -2.33398 21.501 -2.00098s14.834 0.833008 21.501 1.5v-20c-38 -28.667 -64.667 -52.5 -80 -71.5s-23 -36.833 -23 -53.5c0 -10.667 4 -20.834 12 -30.501s21.333 -14.5 40 -14.5c16 0 31 3.66699 45 11s24.667 14.666 32 21.999
l14 -13c-9.33301 -9.33301 -21.666 -18 -36.999 -26s-34.666 -12 -57.999 -12c-25.333 0 -43.333 6 -54 18s-16 26.667 -16 44c0 12 2.83301 23.667 8.5 35s13 22.166 22 32.499s19.167 20.333 30.5 30l35 28.5h-1c-14.667 0 -27.5 3.5 -38.5 10.5s-16.5 20.167 -16.5 39.5
v67h-2c-5.33301 -16.667 -13.833 -32.667 -25.5 -48s-26.334 -29 -44.001 -41s-37.834 -21.5 -60.501 -28.5s-47.334 -10.5 -74.001 -10.5c-52 0 -93.667 11.5 -125 34.5s-47 57.5 -47 103.5c0 32 5.16699 57.667 15.5 77s23.833 34.5 40.5 45.5s35.667 18.667 57 23
s42.666 7.16602 63.999 8.49902c35.333 2 65.666 3.83301 90.999 5.5s46.166 5 62.499 10s28.333 12.667 36 23s11.5 25.166 11.5 44.499c0 15.333 -1.33301 31.333 -4 48s-9.16699 32 -19.5 46s-25.5 25.5 -45.5 34.5s-47 13.5 -81 13.5c-54 0 -96 -13.167 -126 -39.5
s-46.667 -63.5 -50 -111.5h-20zM398.004 302.009c-6.66699 -9.33301 -16.999 -16.4971 -30.999 -21.4971s-30 -8.83301 -48 -11.5s-37.5 -4.33398 -58.5 -5.00098s-41.5 -1.66699 -61.5 -3s-39.5 -3.83301 -58.5 -7.5s-35.833 -10.334 -50.5 -20.001
s-26.334 -23 -35.001 -40s-13 -39.167 -13 -66.5c0 -14.667 2.5 -29.167 7.5 -43.5s13.5 -27 25.5 -38s27.5 -20 46.5 -27s42.5 -10.5 70.5 -10.5c33.333 0 63 5.66699 89 17s47.833 26.166 65.5 44.499s31 39.5 40 63.5s13.5 48.667 13.5 74v95h-2z" />
    <glyph glyph-name="Cacute" unicode="&#x106;" horiz-adv-x="685" 
d="M662 280c-6 -43.333 -17.332 -83.1631 -33.999 -119.496s-38.167 -67.5 -64.5 -93.5s-57.5 -46.333 -93.5 -61s-76.667 -22 -122 -22c-47.333 0 -90.833 9.16699 -130.5 27.5s-73.667 43.666 -102 75.999s-50.5 71 -66.5 116s-24 94.167 -24 147.5
c0 43.333 6.16699 87.5 18.5 132.5s31.833 85.833 58.5 122.5s61.334 66.667 104.001 90s94.334 35 155.001 35c47.333 0 88.666 -7.83301 123.999 -23.5s64.833 -35.334 88.5 -59.001s41.5 -48.834 53.5 -75.501s18.333 -51 19 -73h-20c-2 26 -9.66699 51.5 -23 76.5
s-31.5 47.5 -54.5 67.5s-50.333 36.167 -82 48.5s-66.834 18.5 -105.501 18.5c-58.667 0 -108.167 -11.833 -148.5 -35.5s-72.833 -53.334 -97.5 -89.001s-42.5 -74.5 -53.5 -116.5s-16.5 -81.667 -16.5 -119c0 -45.333 6.66699 -89 20 -131s33 -79 59 -111
s57.833 -57.667 95.5 -77s80.5 -29 128.5 -29c42.667 0 81 7 115 21s63.333 33.333 88 58s44.667 54 60 88s25.666 70.667 30.999 110h20zM317.001 765.003h-15l132 144h29z" />
    <glyph glyph-name="cacute" unicode="&#x107;" 
d="M469 175c-2.66699 -28.667 -9.67383 -54.5 -21.0068 -77.5s-26.166 -42.5 -44.499 -58.5s-39.666 -28.333 -63.999 -37s-51.166 -13 -80.499 -13c-36.667 0 -69.167 6.83301 -97.5 20.5s-52.166 32.167 -71.499 55.5s-34 50.5 -44 81.5s-15 64.167 -15 99.5
c0 37.333 4.83301 72.833 14.5 106.5s24.334 63.334 44.001 89.001s44.667 46.167 75 61.5s65.833 23 106.5 23c24 0 47 -3.66699 69 -11s41.667 -18 59 -32s31.833 -31.5 43.5 -52.5s19.167 -45.167 22.5 -72.5h-20c-4 25.333 -11.333 47.166 -22 65.499
s-23.667 33.666 -39 45.999s-32.666 21.5 -51.999 27.5s-39.666 9 -60.999 9c-40.667 0 -75.167 -7.83301 -103.5 -23.5s-51 -36 -68 -61s-29.333 -53 -37 -84s-11.5 -61.5 -11.5 -91.5c0 -31.333 4.5 -61.333 13.5 -90s22.167 -54 39.5 -76s39 -39.5 65 -52.5
s56 -19.5 90 -19.5c25.333 0 49 3.83301 71 11.5s41.5 18.834 58.5 33.501s30.833 32.167 41.5 52.5s17 43.5 19 69.5h20zM223.993 565h-15l132 144h29z" />
    <glyph glyph-name="Ccircumflex" unicode="&#x108;" horiz-adv-x="685" 
d="M662 280l-20.001 -0.00292969c-5.33301 -39.333 -15.666 -76 -30.999 -110s-35.333 -63.333 -60 -88s-54 -44 -88 -58s-72.333 -21 -115 -21c-48 0 -90.833 9.66699 -128.5 29s-69.5 45 -95.5 77s-45.667 69 -59 111s-20 85.667 -20 131c0 37.333 5.5 77 16.5 119
s28.833 80.833 53.5 116.5s57.167 65.334 97.5 89.001s89.833 35.5 148.5 35.5c38.667 0 73.834 -6.16699 105.501 -18.5s59 -28.5 82 -48.5s41.167 -42.5 54.5 -67.5s21 -50.5 23 -76.5h20c-0.666992 22 -7 46.333 -19 73s-29.833 51.834 -53.5 75.501
s-53.167 43.334 -88.5 59.001s-76.666 23.5 -123.999 23.5c-60.667 0 -112.334 -11.667 -155.001 -35s-77.334 -53.333 -104.001 -90s-46.167 -77.5 -58.5 -122.5s-18.5 -89.167 -18.5 -132.5c0 -53.333 8 -102.5 24 -147.5s38.167 -83.667 66.5 -116
s62.333 -57.666 102 -75.999s83.167 -27.5 130.5 -27.5c45.333 0 86 7.33301 122 22s67.167 35 93.5 61s47.833 57.167 64.5 93.5s28 76.166 34 119.499zM339.999 903.997l-98 -123h-20l112 139h15l114 -139h-20z" />
    <glyph glyph-name="ccircumflex" unicode="&#x109;" 
d="M469 175h-19.9932c-2 -26 -8.33301 -49.167 -19 -69.5s-24.5 -37.833 -41.5 -52.5s-36.5 -25.834 -58.5 -33.501s-45.667 -11.5 -71 -11.5c-34 0 -64 6.5 -90 19.5s-47.667 30.5 -65 52.5s-30.5 47.333 -39.5 76s-13.5 58.667 -13.5 90c0 30 3.83301 60.5 11.5 91.5
s20 59 37 84s39.667 45.333 68 61s62.833 23.5 103.5 23.5c21.333 0 41.666 -3 60.999 -9s36.666 -15.167 51.999 -27.5s28.333 -27.666 39 -45.999s18 -40.166 22 -65.499h20c-3.33301 27.333 -10.833 51.5 -22.5 72.5s-26.167 38.5 -43.5 52.5s-37 24.667 -59 32
s-45 11 -69 11c-40.667 0 -76.167 -7.66699 -106.5 -23s-55.333 -35.833 -75 -61.5s-34.334 -55.334 -44.001 -89.001s-14.5 -69.167 -14.5 -106.5c0 -35.333 5 -68.5 15 -99.5s24.667 -58.167 44 -81.5s43.166 -41.833 71.499 -55.5s60.833 -20.5 97.5 -20.5
c29.333 0 56.166 4.33301 80.499 13s45.666 21 63.999 37s33.166 35.5 44.499 58.5s18.333 48.833 21 77.5zM247.007 702l-98 -123h-20l112 139h15l114 -139h-20z" />
    <glyph glyph-name="Cdotaccent" unicode="&#x10a;" horiz-adv-x="685" 
d="M662 280l-20.001 -0.00292969c-5.33301 -39.333 -15.666 -76 -30.999 -110s-35.333 -63.333 -60 -88s-54 -44 -88 -58s-72.333 -21 -115 -21c-48 0 -90.833 9.66699 -128.5 29s-69.5 45 -95.5 77s-45.667 69 -59 111s-20 85.667 -20 131c0 37.333 5.5 77 16.5 119
s28.833 80.833 53.5 116.5s57.167 65.334 97.5 89.001s89.833 35.5 148.5 35.5c38.667 0 73.834 -6.16699 105.501 -18.5s59 -28.5 82 -48.5s41.167 -42.5 54.5 -67.5s21 -50.5 23 -76.5h20c-0.666992 22 -7 46.333 -19 73s-29.833 51.834 -53.5 75.501
s-53.167 43.334 -88.5 59.001s-76.666 23.5 -123.999 23.5c-60.667 0 -112.334 -11.667 -155.001 -35s-77.334 -53.333 -104.001 -90s-46.167 -77.5 -58.5 -122.5s-18.5 -89.167 -18.5 -132.5c0 -53.333 8 -102.5 24 -147.5s38.167 -83.667 66.5 -116
s62.333 -57.666 102 -75.999s83.167 -27.5 130.5 -27.5c45.333 0 86 7.33301 122 22s67.167 35 93.5 61s47.833 57.167 64.5 93.5s28 76.166 34 119.499zM352.999 780.997h-20v81h20v-81z" />
    <glyph glyph-name="cdotaccent" unicode="&#x10b;" 
d="M469 175h-19.9932c-2 -26 -8.33301 -49.167 -19 -69.5s-24.5 -37.833 -41.5 -52.5s-36.5 -25.834 -58.5 -33.501s-45.667 -11.5 -71 -11.5c-34 0 -64 6.5 -90 19.5s-47.667 30.5 -65 52.5s-30.5 47.333 -39.5 76s-13.5 58.667 -13.5 90c0 30 3.83301 60.5 11.5 91.5
s20 59 37 84s39.667 45.333 68 61s62.833 23.5 103.5 23.5c21.333 0 41.666 -3 60.999 -9s36.666 -15.167 51.999 -27.5s28.333 -27.666 39 -45.999s18 -40.166 22 -65.499h20c-3.33301 27.333 -10.833 51.5 -22.5 72.5s-26.167 38.5 -43.5 52.5s-37 24.667 -59 32
s-45 11 -69 11c-40.667 0 -76.167 -7.66699 -106.5 -23s-55.333 -35.833 -75 -61.5s-34.334 -55.334 -44.001 -89.001s-14.5 -69.167 -14.5 -106.5c0 -35.333 5 -68.5 15 -99.5s24.667 -58.167 44 -81.5s43.166 -41.833 71.499 -55.5s60.833 -20.5 97.5 -20.5
c29.333 0 56.166 4.33301 80.499 13s45.666 21 63.999 37s33.166 35.5 44.499 58.5s18.333 48.833 21 77.5zM260.007 579h-20v81h20v-81z" />
    <glyph glyph-name="Ccaron" unicode="&#x10c;" horiz-adv-x="685" 
d="M662 280l-20.001 -0.00292969c-5.33301 -39.333 -15.666 -76 -30.999 -110s-35.333 -63.333 -60 -88s-54 -44 -88 -58s-72.333 -21 -115 -21c-48 0 -90.833 9.66699 -128.5 29s-69.5 45 -95.5 77s-45.667 69 -59 111s-20 85.667 -20 131c0 37.333 5.5 77 16.5 119
s28.833 80.833 53.5 116.5s57.167 65.334 97.5 89.001s89.833 35.5 148.5 35.5c38.667 0 73.834 -6.16699 105.501 -18.5s59 -28.5 82 -48.5s41.167 -42.5 54.5 -67.5s21 -50.5 23 -76.5h20c-0.666992 22 -7 46.333 -19 73s-29.833 51.834 -53.5 75.501
s-53.167 43.334 -88.5 59.001s-76.666 23.5 -123.999 23.5c-60.667 0 -112.334 -11.667 -155.001 -35s-77.334 -53.333 -104.001 -90s-46.167 -77.5 -58.5 -122.5s-18.5 -89.167 -18.5 -132.5c0 -53.333 8 -102.5 24 -147.5s38.167 -83.667 66.5 -116
s62.333 -57.666 102 -75.999s83.167 -27.5 130.5 -27.5c45.333 0 86 7.33301 122 22s67.167 35 93.5 61s47.833 57.167 64.5 93.5s28 76.166 34 119.499zM343.999 796.997l99 123h20l-113 -139h-15l-113 139h20z" />
    <glyph glyph-name="ccaron" unicode="&#x10d;" 
d="M469 175h-19.9932c-2 -26 -8.33301 -49.167 -19 -69.5s-24.5 -37.833 -41.5 -52.5s-36.5 -25.834 -58.5 -33.501s-45.667 -11.5 -71 -11.5c-34 0 -64 6.5 -90 19.5s-47.667 30.5 -65 52.5s-30.5 47.333 -39.5 76s-13.5 58.667 -13.5 90c0 30 3.83301 60.5 11.5 91.5
s20 59 37 84s39.667 45.333 68 61s62.833 23.5 103.5 23.5c21.333 0 41.666 -3 60.999 -9s36.666 -15.167 51.999 -27.5s28.333 -27.666 39 -45.999s18 -40.166 22 -65.499h20c-3.33301 27.333 -10.833 51.5 -22.5 72.5s-26.167 38.5 -43.5 52.5s-37 24.667 -59 32
s-45 11 -69 11c-40.667 0 -76.167 -7.66699 -106.5 -23s-55.333 -35.833 -75 -61.5s-34.334 -55.334 -44.001 -89.001s-14.5 -69.167 -14.5 -106.5c0 -35.333 5 -68.5 15 -99.5s24.667 -58.167 44 -81.5s43.166 -41.833 71.499 -55.5s60.833 -20.5 97.5 -20.5
c29.333 0 56.166 4.33301 80.499 13s45.666 21 63.999 37s33.166 35.5 44.499 58.5s18.333 48.833 21 77.5zM251.007 595l99 123h20l-113 -139h-15l-113 139h20z" />
    <glyph glyph-name="Dcaron" unicode="&#x10e;" horiz-adv-x="648" 
d="M74 20v674h225c36 0 71.167 -5 105.5 -15s65.166 -27.833 92.499 -53.5s49.333 -60.167 66 -103.5s25 -98.333 25 -165c0 -57.333 -8.16699 -107.166 -24.5 -149.499s-38.666 -77.333 -66.999 -105s-61.333 -48.334 -99 -62.001s-77.5 -20.5 -119.5 -20.5h-204zM54 714
l-0.000976562 -713.998h219c43.333 0 85 6.66699 125 20s75.667 34.166 107 62.499s56.333 65.166 75 110.499s28 100 28 164c0 70 -9.16699 128 -27.5 174s-42 82.5 -71 109.5s-61.667 46 -98 57s-72.166 16.5 -107.499 16.5h-250zM331.999 780.002l99 123h20l-113 -139
h-15l-113 139h20z" />
    <glyph glyph-name="dcaron" unicode="&#x10f;" horiz-adv-x="704" 
d="M455 714l-0.00292969 -343.997h-2c-12 46.667 -35.667 84.334 -71 113.001s-80.333 43 -135 43c-35.333 0 -66.666 -7.33301 -93.999 -22s-50.166 -34.334 -68.499 -59.001s-32.333 -53.334 -42 -86.001s-14.5 -67 -14.5 -103c0 -38.667 5 -74.334 15 -107.001
s24.5 -60.834 43.5 -84.501s42 -42.167 69 -55.5s57.5 -20 91.5 -20c52.667 0 96.834 14.333 132.501 43s60.167 66 73.5 112h2v-144h20v714h-20zM454.997 256.003c0 -33.333 -4.66699 -65.001 -14 -95.001s-22.833 -56.333 -40.5 -79s-39.334 -40.667 -65.001 -54
s-55.167 -20 -88.5 -20s-62.5 6.66699 -87.5 20s-45.667 31.5 -62 54.5s-28.666 49.5 -36.999 79.5s-12.5 61.333 -12.5 94c0 30 3.83301 59.833 11.5 89.5s19.5 56.334 35.5 80.001s36.667 43 62 58s55.333 22.5 90 22.5c62.667 0 113 -21.5 151 -64.5
s57 -104.833 57 -185.5zM630.997 714.002h-20.002v-118c0 -25.333 -1.66699 -44.5 -5 -57.5s-10 -22.833 -20 -29.5v-20c8.66699 4.66699 15.834 9.5 21.501 14.5s10.334 11.5 14.001 19.5s6.16699 17.667 7.5 29s2 26 2 44v118z" />
    <glyph glyph-name="Dcroat" unicode="&#x110;" horiz-adv-x="648" 
d="M74 362h297v20h-297v312h225c36 0 71.167 -5 105.5 -15s65.166 -27.833 92.499 -53.5s49.333 -60.167 66 -103.5s25 -98.333 25 -165c0 -57.333 -8.16699 -107.166 -24.5 -149.499s-38.666 -77.333 -66.999 -105s-61.333 -48.334 -99 -62.001s-77.5 -20.5 -119.5 -20.5
h-204v342zM-9 362l62.999 0.00195312v-362h219c43.333 0 85 6.66699 125 20s75.667 34.166 107 62.499s56.333 65.166 75 110.499s28 100 28 164c0 70 -9.16699 128 -27.5 174s-42 82.5 -71 109.5s-61.667 46 -98 57s-72.166 16.5 -107.499 16.5h-250v-332h-63v-20z" />
    <glyph glyph-name="dcroat" unicode="&#x111;" horiz-adv-x="537" 
d="M475 616l0.00292969 -616.003h-20v144h-2c-13.333 -46 -37.833 -83.333 -73.5 -112s-79.834 -43 -132.501 -43c-34 0 -64.5 6.66699 -91.5 20s-50 31.833 -69 55.5s-33.5 51.834 -43.5 84.501s-15 68.334 -15 107.001c0 36 4.83301 70.333 14.5 103
s23.667 61.334 42 86.001s41.166 44.334 68.499 59.001s58.666 22 93.999 22c54.667 0 99.667 -14.333 135 -43s59 -66.334 71 -113.001h2v246h-108v20h108v78h20v-78h102v-20h-102zM455.003 255.997c0 80.667 -19 142.501 -57 185.501s-88.333 64.5 -151 64.5
c-34.667 0 -64.667 -7.5 -90 -22.5s-46 -34.333 -62 -58s-27.833 -50.334 -35.5 -80.001s-11.5 -59.5 -11.5 -89.5c0 -32.667 4.16699 -64 12.5 -94s20.666 -56.5 36.999 -79.5s37 -41.167 62 -54.5s54.167 -20 87.5 -20s62.833 6.66699 88.5 20s47.334 31.333 65.001 54
s31.167 49 40.5 79s14 61.667 14 95z" />
    <glyph glyph-name="Emacron" unicode="&#x112;" horiz-adv-x="537" 
d="M74 20v342h427v20h-427v312h454v20h-474v-714h478v20h-458zM177 764v20h231v-20h-231z" />
    <glyph glyph-name="emacron" unicode="&#x113;" 
d="M45 253l430.002 -0.00195312c1.33301 35.333 -2.16699 69.333 -10.5 102s-21.666 61.667 -39.999 87s-42 45.666 -71 60.999s-63.5 23 -103.5 23c-28.667 0 -56.667 -6 -84 -18s-51.333 -29.5 -72 -52.5s-37.334 -51.167 -50.001 -84.5s-19 -71.333 -19 -114
c0 -38 4.33301 -73.5 13 -106.5s22 -61.667 40 -86s41.167 -43.166 69.5 -56.499s62.5 -19.666 102.5 -18.999c58.667 0 108 16.5 148 49.5s63.667 79.5 71 139.5h-20c-8.66699 -56.667 -30.834 -99.167 -66.501 -127.5s-80.5 -42.5 -134.5 -42.5
c-36.667 0 -67.667 6.33301 -93 19s-46 30 -62 52s-27.833 47.833 -35.5 77.5s-11.834 61.834 -12.501 96.501zM455.002 272.998l-409.997 -0.00292969c2 36 8.66699 68.333 20 97s26.166 53.167 44.499 73.5s39.666 35.833 63.999 46.5s50.5 16 78.5 16
c33.333 0 62.666 -6.16699 87.999 -18.5s46.5 -29.166 63.5 -50.499s29.833 -46.166 38.5 -74.499s13 -58.166 13 -89.499zM135.005 578.995v20h231v-20h-231z" />
    <glyph glyph-name="Ebreve" unicode="&#x114;" horiz-adv-x="537" 
d="M74 20v342h427v20h-427v312h454v20h-474v-714h478v20h-458zM190 871c3.33301 -26 14.001 -47 32.001 -63s40.333 -24 67 -24c28.667 0 52.667 7 72 21s30.666 36 33.999 66h20c-4 -34 -17.5 -60.333 -40.5 -79s-51.5 -28 -85.5 -28c-32.667 0 -59.667 9.83301 -81 29.5
s-34 45.5 -38 77.5h20v0z" />
    <glyph glyph-name="ebreve" unicode="&#x115;" 
d="M45 253l430.002 -0.00195312c1.33301 35.333 -2.16699 69.333 -10.5 102s-21.666 61.667 -39.999 87s-42 45.666 -71 60.999s-63.5 23 -103.5 23c-28.667 0 -56.667 -6 -84 -18s-51.333 -29.5 -72 -52.5s-37.334 -51.167 -50.001 -84.5s-19 -71.333 -19 -114
c0 -38 4.33301 -73.5 13 -106.5s22 -61.667 40 -86s41.167 -43.166 69.5 -56.499s62.5 -19.666 102.5 -18.999c58.667 0 108 16.5 148 49.5s63.667 79.5 71 139.5h-20c-8.66699 -56.667 -30.834 -99.167 -66.501 -127.5s-80.5 -42.5 -134.5 -42.5
c-36.667 0 -67.667 6.33301 -93 19s-46 30 -62 52s-27.833 47.833 -35.5 77.5s-11.834 61.834 -12.501 96.501zM455.002 272.998l-409.997 -0.00292969c2 36 8.66699 68.333 20 97s26.166 53.167 44.499 73.5s39.666 35.833 63.999 46.5s50.5 16 78.5 16
c33.333 0 62.666 -6.16699 87.999 -18.5s46.5 -29.166 63.5 -50.499s29.833 -46.166 38.5 -74.499s13 -58.166 13 -89.499zM148.005 685.995c3.33301 -26 14.001 -47 32.001 -63s40.333 -24 67 -24c28.667 0 52.667 7 72 21s30.666 36 33.999 66h20
c-4 -34 -17.5 -60.333 -40.5 -79s-51.5 -28 -85.5 -28c-32.667 0 -59.667 9.83301 -81 29.5s-34 45.5 -38 77.5h20v0z" />
    <glyph glyph-name="Edotaccent" unicode="&#x116;" horiz-adv-x="537" 
d="M74 20v342h427v20h-427v312h454v20h-474v-714h478v20h-458zM303 764h-20v81h20v-81z" />
    <glyph glyph-name="edotaccent" unicode="&#x117;" 
d="M45 253l430.002 -0.00195312c1.33301 35.333 -2.16699 69.333 -10.5 102s-21.666 61.667 -39.999 87s-42 45.666 -71 60.999s-63.5 23 -103.5 23c-28.667 0 -56.667 -6 -84 -18s-51.333 -29.5 -72 -52.5s-37.334 -51.167 -50.001 -84.5s-19 -71.333 -19 -114
c0 -38 4.33301 -73.5 13 -106.5s22 -61.667 40 -86s41.167 -43.166 69.5 -56.499s62.5 -19.666 102.5 -18.999c58.667 0 108 16.5 148 49.5s63.667 79.5 71 139.5h-20c-8.66699 -56.667 -30.834 -99.167 -66.501 -127.5s-80.5 -42.5 -134.5 -42.5
c-36.667 0 -67.667 6.33301 -93 19s-46 30 -62 52s-27.833 47.833 -35.5 77.5s-11.834 61.834 -12.501 96.501zM455.002 272.998l-409.997 -0.00292969c2 36 8.66699 68.333 20 97s26.166 53.167 44.499 73.5s39.666 35.833 63.999 46.5s50.5 16 78.5 16
c33.333 0 62.666 -6.16699 87.999 -18.5s46.5 -29.166 63.5 -50.499s29.833 -46.166 38.5 -74.499s13 -58.166 13 -89.499zM261.005 578.995h-20v81h20v-81z" />
    <glyph glyph-name="Eogonek" unicode="&#x118;" horiz-adv-x="537" 
d="M532 20l-0.00195312 -19.9971h-43c-38 -28.667 -64.667 -52.5 -80 -71.5s-23 -36.833 -23 -53.5c0 -10.667 4 -20.834 12 -30.501s21.333 -14.5 40 -14.5c16 0 31 3.66699 45 11s24.667 14.666 32 21.999l14 -13c-9.33301 -9.33301 -21.666 -18 -36.999 -26
s-34.666 -12 -57.999 -12c-25.333 0 -43.333 6 -54 18s-16 26.667 -16 44c0 12 2.83301 23.667 8.5 35s13 22.166 22 32.499s19.167 20.333 30.5 30l35 28.5h-406v714h474v-20h-454v-312h427v-20h-427v-342h458z" />
    <glyph glyph-name="eogonek" unicode="&#x119;" 
d="M45 253c0.666992 -34.667 4.83008 -66.8301 12.4971 -96.4971s19.5 -55.5 35.5 -77.5s36.667 -39.333 62 -52s56.333 -19 93 -19c54 0 98.833 14.167 134.5 42.5s57.834 70.833 66.501 127.5h20c-7.33301 -60 -31 -106.667 -71 -140
c-34.667 -28 -76.334 -44 -125.001 -48c-30.667 -24 -52.667 -44.333 -66 -61c-15.333 -19.333 -23 -37.333 -23 -54c0 -10.667 4 -20.834 12 -30.501s21.333 -14.5 40 -14.5c16 0 31 3.66699 45 11s24.667 14.666 32 21.999l14 -13
c-9.33301 -9.33301 -21.666 -18 -36.999 -26s-34.666 -12 -57.999 -12c-25.333 0 -43.333 6 -54 18s-16 26.667 -16 44c0 12 2.83301 23.667 8.5 35s13 22.166 22 32.499s19.167 20.5 30.5 30.5c6.66699 5.33301 13.334 11 20.001 17c-37.333 0 -69.333 6.33301 -96 19
c-28 13.333 -51 32.166 -69 56.499s-31.333 53 -40 86s-13 68.5 -13 106.5c0 42.667 6.33301 80.667 19 114s29.334 61.5 50.001 84.5s44.667 40.5 72 52.5s55.333 18 84 18c40 0 74.5 -7.66699 103.5 -23s52.667 -35.666 71 -60.999s31.666 -54.333 39.999 -87
s11.833 -66.667 10.5 -102h-430zM454.996 273.004c0 31.333 -4.33594 61.1689 -13.0029 89.502s-21.5 53.166 -38.5 74.499s-38.167 38.166 -63.5 50.499s-54.666 18.5 -87.999 18.5c-28 0 -54.167 -5.33301 -78.5 -16s-45.666 -26.167 -63.999 -46.5
s-33.166 -44.833 -44.499 -73.5s-18 -61 -20 -97h410z" />
    <glyph glyph-name="Ecaron" unicode="&#x11a;" horiz-adv-x="537" 
d="M74 20v342h427v20h-427v312h454v20h-474v-714h478v20h-458zM294 780l99 123h20l-113 -139h-15l-113 139h20z" />
    <glyph glyph-name="ecaron" unicode="&#x11b;" 
d="M45 253l430.002 -0.00195312c1.33301 35.333 -2.16699 69.333 -10.5 102s-21.666 61.667 -39.999 87s-42 45.666 -71 60.999s-63.5 23 -103.5 23c-28.667 0 -56.667 -6 -84 -18s-51.333 -29.5 -72 -52.5s-37.334 -51.167 -50.001 -84.5s-19 -71.333 -19 -114
c0 -38 4.33301 -73.5 13 -106.5s22 -61.667 40 -86s41.167 -43.166 69.5 -56.499s62.5 -19.666 102.5 -18.999c58.667 0 108 16.5 148 49.5s63.667 79.5 71 139.5h-20c-8.66699 -56.667 -30.834 -99.167 -66.501 -127.5s-80.5 -42.5 -134.5 -42.5
c-36.667 0 -67.667 6.33301 -93 19s-46 30 -62 52s-27.833 47.833 -35.5 77.5s-11.834 61.834 -12.501 96.501zM455.002 272.998l-409.997 -0.00292969c2 36 8.66699 68.333 20 97s26.166 53.167 44.499 73.5s39.666 35.833 63.999 46.5s50.5 16 78.5 16
c33.333 0 62.666 -6.16699 87.999 -18.5s46.5 -29.166 63.5 -50.499s29.833 -46.166 38.5 -74.499s13 -58.166 13 -89.499zM252.005 594.995l99 123h20l-113 -139h-15l-113 139h20z" />
    <glyph glyph-name="Gcircumflex" unicode="&#x11c;" horiz-adv-x="722" 
d="M377 314h277.004v-37c0 -39.333 -7.33301 -75.833 -22 -109.5s-34.834 -62.667 -60.501 -87s-55.834 -43.333 -90.501 -57s-71.667 -20.5 -111 -20.5c-52.667 0 -98.834 9.33301 -138.501 28s-72.834 44 -99.501 76s-46.667 69.5 -60 112.5s-20 88.833 -20 137.5
s7 94.5 21 137.5s34.5 80.5 61.5 112.5s60 57.333 99 76s83.5 28 133.5 28c37.333 0 71.5 -5.16699 102.5 -15.5s58.333 -25.166 82 -44.499s43.334 -42.5 59.001 -69.5s26.5 -57.167 32.5 -90.5h20c-6 36.667 -17.167 69.667 -33.5 99s-37.333 54.5 -63 75.5
s-55.334 37.167 -89.001 48.5s-70.5 17 -110.5 17c-52.667 0 -99.667 -9.66699 -141 -29s-76.333 -45.833 -105 -79.5s-50.667 -73.334 -66 -119.001s-23 -94.5 -23 -146.5c0 -51.333 7.16699 -99.666 21.5 -144.999s35.5 -84.833 63.5 -118.5s63 -60.334 105 -80.001
s90.333 -29.5 145 -29.5c70.667 0 131 17 181 51s84.667 81.333 104 142h2v-177h20v334h-297v-20zM350.004 904l-98 -123h-20l112 139h15l114 -139h-20z" />
    <glyph glyph-name="gcircumflex" unicode="&#x11d;" horiz-adv-x="519" 
d="M446 172l0.000976562 -155c0 -64 -16.833 -110.833 -50.5 -140.5s-81.834 -44.5 -144.501 -44.5c-22.667 0 -44.5 2.66699 -65.5 8s-39.5 13.666 -55.5 24.999s-28.833 26 -38.5 44s-14.834 39.667 -15.501 65h-20c0.666992 -29.333 6.33398 -54.166 17.001 -74.499
s25 -37 43 -50s38.667 -22.5 62 -28.5s48 -9 74 -9c68 0 120.667 16.5 158 49.5s56 84.833 56 155.5v497h-20v-137h-2c-5.33301 21.333 -13.833 41 -25.5 59s-26 33.667 -43 47s-36.167 23.833 -57.5 31.5s-44.333 11.5 -69 11.5c-36 0 -67.833 -6.66699 -95.5 -20
s-50.834 -31.5 -69.501 -54.5s-32.667 -49.667 -42 -80s-14 -62.833 -14 -97.5c0 -32.667 4.5 -64 13.5 -94s22.333 -56.167 40 -78.5s39.834 -40.166 66.501 -53.499s58 -20 94 -20c22 0 43.833 3.16699 65.5 9.5s41.667 15.666 60 27.999s34.333 27.5 48 45.5
s23.167 38.333 28.5 61h2zM445.001 274c0 -30.667 -4.50098 -59.8311 -13.501 -87.498s-22 -51.667 -39 -72s-38.167 -36.5 -63.5 -48.5s-54.666 -18 -87.999 -18c-31.333 0 -59 5.83301 -83 17.5s-44.167 27.667 -60.5 48s-28.666 44.166 -36.999 71.499s-12.5 57 -12.5 89
c0 31.333 4.16699 61 12.5 89s21 52.667 38 74s38 38.166 63 50.499s54.167 18.5 87.5 18.5c32 0 60.333 -6.5 85 -19.5s45.167 -30.333 61.5 -52s28.666 -46.5 36.999 -74.5s12.5 -56.667 12.5 -86zM244 702.003l-98 -123h-20l112 139h15l114 -139h-20z" />
    <glyph glyph-name="Gbreve" unicode="&#x11e;" horiz-adv-x="722" 
d="M377 314h277.004v-37c0 -39.333 -7.33301 -75.833 -22 -109.5s-34.834 -62.667 -60.501 -87s-55.834 -43.333 -90.501 -57s-71.667 -20.5 -111 -20.5c-52.667 0 -98.834 9.33301 -138.501 28s-72.834 44 -99.501 76s-46.667 69.5 -60 112.5s-20 88.833 -20 137.5
s7 94.5 21 137.5s34.5 80.5 61.5 112.5s60 57.333 99 76s83.5 28 133.5 28c37.333 0 71.5 -5.16699 102.5 -15.5s58.333 -25.166 82 -44.499s43.334 -42.5 59.001 -69.5s26.5 -57.167 32.5 -90.5h20c-6 36.667 -17.167 69.667 -33.5 99s-37.333 54.5 -63 75.5
s-55.334 37.167 -89.001 48.5s-70.5 17 -110.5 17c-52.667 0 -99.667 -9.66699 -141 -29s-76.333 -45.833 -105 -79.5s-50.667 -73.334 -66 -119.001s-23 -94.5 -23 -146.5c0 -51.333 7.16699 -99.666 21.5 -144.999s35.5 -84.833 63.5 -118.5s63 -60.334 105 -80.001
s90.333 -29.5 145 -29.5c70.667 0 131 17 181 51s84.667 81.333 104 142h2v-177h20v334h-297v-20zM250.004 888c3.33301 -26 14.001 -47 32.001 -63s40.333 -24 67 -24c28.667 0 52.667 7 72 21s30.666 36 33.999 66h20c-4 -34 -17.5 -60.333 -40.5 -79s-51.5 -28 -85.5 -28
c-32.667 0 -59.667 9.83301 -81 29.5s-34 45.5 -38 77.5h20v0z" />
    <glyph glyph-name="gbreve" unicode="&#x11f;" horiz-adv-x="519" 
d="M446 172l0.000976562 -155c0 -64 -16.833 -110.833 -50.5 -140.5s-81.834 -44.5 -144.501 -44.5c-22.667 0 -44.5 2.66699 -65.5 8s-39.5 13.666 -55.5 24.999s-28.833 26 -38.5 44s-14.834 39.667 -15.501 65h-20c0.666992 -29.333 6.33398 -54.166 17.001 -74.499
s25 -37 43 -50s38.667 -22.5 62 -28.5s48 -9 74 -9c68 0 120.667 16.5 158 49.5s56 84.833 56 155.5v497h-20v-137h-2c-5.33301 21.333 -13.833 41 -25.5 59s-26 33.667 -43 47s-36.167 23.833 -57.5 31.5s-44.333 11.5 -69 11.5c-36 0 -67.833 -6.66699 -95.5 -20
s-50.834 -31.5 -69.501 -54.5s-32.667 -49.667 -42 -80s-14 -62.833 -14 -97.5c0 -32.667 4.5 -64 13.5 -94s22.333 -56.167 40 -78.5s39.834 -40.166 66.501 -53.499s58 -20 94 -20c22 0 43.833 3.16699 65.5 9.5s41.667 15.666 60 27.999s34.333 27.5 48 45.5
s23.167 38.333 28.5 61h2zM445.001 274c0 -30.667 -4.50098 -59.8311 -13.501 -87.498s-22 -51.667 -39 -72s-38.167 -36.5 -63.5 -48.5s-54.666 -18 -87.999 -18c-31.333 0 -59 5.83301 -83 17.5s-44.167 27.667 -60.5 48s-28.666 44.166 -36.999 71.499s-12.5 57 -12.5 89
c0 31.333 4.16699 61 12.5 89s21 52.667 38 74s38 38.166 63 50.499s54.167 18.5 87.5 18.5c32 0 60.333 -6.5 85 -19.5s45.167 -30.333 61.5 -52s28.666 -46.5 36.999 -74.5s12.5 -56.667 12.5 -86zM144 686.003c3.33301 -26 14.001 -47 32.001 -63s40.333 -24 67 -24
c28.667 0 52.667 7 72 21s30.666 36 33.999 66h20c-4 -34 -17.5 -60.333 -40.5 -79s-51.5 -28 -85.5 -28c-32.667 0 -59.667 9.83301 -81 29.5s-34 45.5 -38 77.5h20v0z" />
    <glyph glyph-name="Gdotaccent" unicode="&#x120;" horiz-adv-x="722" 
d="M377 314h277.004v-37c0 -39.333 -7.33301 -75.833 -22 -109.5s-34.834 -62.667 -60.501 -87s-55.834 -43.333 -90.501 -57s-71.667 -20.5 -111 -20.5c-52.667 0 -98.834 9.33301 -138.501 28s-72.834 44 -99.501 76s-46.667 69.5 -60 112.5s-20 88.833 -20 137.5
s7 94.5 21 137.5s34.5 80.5 61.5 112.5s60 57.333 99 76s83.5 28 133.5 28c37.333 0 71.5 -5.16699 102.5 -15.5s58.333 -25.166 82 -44.499s43.334 -42.5 59.001 -69.5s26.5 -57.167 32.5 -90.5h20c-6 36.667 -17.167 69.667 -33.5 99s-37.333 54.5 -63 75.5
s-55.334 37.167 -89.001 48.5s-70.5 17 -110.5 17c-52.667 0 -99.667 -9.66699 -141 -29s-76.333 -45.833 -105 -79.5s-50.667 -73.334 -66 -119.001s-23 -94.5 -23 -146.5c0 -51.333 7.16699 -99.666 21.5 -144.999s35.5 -84.833 63.5 -118.5s63 -60.334 105 -80.001
s90.333 -29.5 145 -29.5c70.667 0 131 17 181 51s84.667 81.333 104 142h2v-177h20v334h-297v-20zM363.004 781h-20v81h20v-81z" />
    <glyph glyph-name="gdotaccent" unicode="&#x121;" horiz-adv-x="519" 
d="M446 172l0.000976562 -155c0 -64 -16.833 -110.833 -50.5 -140.5s-81.834 -44.5 -144.501 -44.5c-22.667 0 -44.5 2.66699 -65.5 8s-39.5 13.666 -55.5 24.999s-28.833 26 -38.5 44s-14.834 39.667 -15.501 65h-20c0.666992 -29.333 6.33398 -54.166 17.001 -74.499
s25 -37 43 -50s38.667 -22.5 62 -28.5s48 -9 74 -9c68 0 120.667 16.5 158 49.5s56 84.833 56 155.5v497h-20v-137h-2c-5.33301 21.333 -13.833 41 -25.5 59s-26 33.667 -43 47s-36.167 23.833 -57.5 31.5s-44.333 11.5 -69 11.5c-36 0 -67.833 -6.66699 -95.5 -20
s-50.834 -31.5 -69.501 -54.5s-32.667 -49.667 -42 -80s-14 -62.833 -14 -97.5c0 -32.667 4.5 -64 13.5 -94s22.333 -56.167 40 -78.5s39.834 -40.166 66.501 -53.499s58 -20 94 -20c22 0 43.833 3.16699 65.5 9.5s41.667 15.666 60 27.999s34.333 27.5 48 45.5
s23.167 38.333 28.5 61h2zM445.001 274c0 -30.667 -4.50098 -59.8311 -13.501 -87.498s-22 -51.667 -39 -72s-38.167 -36.5 -63.5 -48.5s-54.666 -18 -87.999 -18c-31.333 0 -59 5.83301 -83 17.5s-44.167 27.667 -60.5 48s-28.666 44.166 -36.999 71.499s-12.5 57 -12.5 89
c0 31.333 4.16699 61 12.5 89s21 52.667 38 74s38 38.166 63 50.499s54.167 18.5 87.5 18.5c32 0 60.333 -6.5 85 -19.5s45.167 -30.333 61.5 -52s28.666 -46.5 36.999 -74.5s12.5 -56.667 12.5 -86zM257 579.003h-20v81h20v-81z" />
    <glyph glyph-name="Gcommaaccent" unicode="&#x122;" horiz-adv-x="722" 
d="M377 314h277.004v-37c0 -39.333 -7.33301 -75.833 -22 -109.5s-34.834 -62.667 -60.501 -87s-55.834 -43.333 -90.501 -57s-71.667 -20.5 -111 -20.5c-52.667 0 -98.834 9.33301 -138.501 28s-72.834 44 -99.501 76s-46.667 69.5 -60 112.5s-20 88.833 -20 137.5
s7 94.5 21 137.5s34.5 80.5 61.5 112.5s60 57.333 99 76s83.5 28 133.5 28c37.333 0 71.5 -5.16699 102.5 -15.5s58.333 -25.166 82 -44.499s43.334 -42.5 59.001 -69.5s26.5 -57.167 32.5 -90.5h20c-6 36.667 -17.167 69.667 -33.5 99s-37.333 54.5 -63 75.5
s-55.334 37.167 -89.001 48.5s-70.5 17 -110.5 17c-52.667 0 -99.667 -9.66699 -141 -29s-76.333 -45.833 -105 -79.5s-50.667 -73.334 -66 -119.001s-23 -94.5 -23 -146.5c0 -51.333 7.16699 -99.666 21.5 -144.999s35.5 -84.833 63.5 -118.5s63 -60.334 105 -80.001
s90.333 -29.5 145 -29.5c70.667 0 131 17 181 51s84.667 81.333 104 142h2v-177h20v334h-297v-20zM375.004 -134c0 -18 -0.665039 -32.667 -1.99805 -44s-3.83301 -21 -7.5 -29s-8.33398 -14.5 -14.001 -19.5s-12.834 -9.83301 -21.501 -14.5v20
c10 6.66699 16.667 16.5 20 29.5s5 32.167 5 57.5v118h20v-118z" />
    <glyph glyph-name="gcommaaccent" unicode="&#x123;" horiz-adv-x="519" 
d="M446 172l0.000976562 -155c0 -64 -16.833 -110.833 -50.5 -140.5s-81.834 -44.5 -144.501 -44.5c-22.667 0 -44.5 2.66699 -65.5 8s-39.5 13.666 -55.5 24.999s-28.833 26 -38.5 44s-14.834 39.667 -15.501 65h-20c0.666992 -29.333 6.33398 -54.166 17.001 -74.499
s25 -37 43 -50s38.667 -22.5 62 -28.5s48 -9 74 -9c68 0 120.667 16.5 158 49.5s56 84.833 56 155.5v497h-20v-137h-2c-5.33301 21.333 -13.833 41 -25.5 59s-26 33.667 -43 47s-36.167 23.833 -57.5 31.5s-44.333 11.5 -69 11.5c-36 0 -67.833 -6.66699 -95.5 -20
s-50.834 -31.5 -69.501 -54.5s-32.667 -49.667 -42 -80s-14 -62.833 -14 -97.5c0 -32.667 4.5 -64 13.5 -94s22.333 -56.167 40 -78.5s39.834 -40.166 66.501 -53.499s58 -20 94 -20c22 0 43.833 3.16699 65.5 9.5s41.667 15.666 60 27.999s34.333 27.5 48 45.5
s23.167 38.333 28.5 61h2zM445.001 274c0 -30.667 -4.50098 -59.8311 -13.501 -87.498s-22 -51.667 -39 -72s-38.167 -36.5 -63.5 -48.5s-54.666 -18 -87.999 -18c-31.333 0 -59 5.83301 -83 17.5s-44.167 27.667 -60.5 48s-28.666 44.166 -36.999 71.499s-12.5 57 -12.5 89
c0 31.333 4.16699 61 12.5 89s21 52.667 38 74s38 38.166 63 50.499s54.167 18.5 87.5 18.5c32 0 60.333 -6.5 85 -19.5s45.167 -30.333 61.5 -52s28.666 -46.5 36.999 -74.5s12.5 -56.667 12.5 -86zM224 694.003c0 18 0.665039 32.667 1.99805 44s3.83301 21 7.5 29
s8.33398 14.5 14.001 19.5s12.834 9.83301 21.501 14.5v-20c-10 -6.66699 -16.667 -16.5 -20 -29.5s-5 -32.167 -5 -57.5v-118h-20v118z" />
    <glyph glyph-name="Hcircumflex" unicode="&#x124;" horiz-adv-x="648" 
d="M74 362h500v-362h20v714h-20v-332h-500v332h-20v-714h20v362zM321 887l-98 -123h-20l112 139h15l114 -139h-20z" />
    <glyph glyph-name="hcircumflex" unicode="&#x125;" 
d="M55 714v-714h20v291c0 28.667 4 56 12 82s19.833 48.833 35.5 68.5s35.167 35.334 58.5 47.001s50.333 17.5 81 17.5c22 0 42.833 -3.16699 62.5 -9.5s37 -16.333 52 -30s26.833 -31 35.5 -52s13 -46.5 13 -76.5v-338h20v341c0 30 -4.5 56.5 -13.5 79.5
s-21.667 42.333 -38 58s-35.666 27.5 -57.999 35.5s-46.833 12 -73.5 12c-25.333 0 -48.333 -3.5 -69 -10.5s-38.834 -16.833 -54.501 -29.5s-28.667 -27.334 -39 -44.001s-17.833 -35 -22.5 -55h-2v327h-20zM247 887l-98 -123h-20l112 139h15l114 -139h-20z" />
    <glyph glyph-name="Hbar" unicode="&#x126;" horiz-adv-x="648" 
d="M594 553v-553h-20v362h-500v-362h-20v553h-93v20h93v141h20v-141h500v141h20v-141h97v-20h-97zM574 382v171h-500v-171h500z" />
    <glyph glyph-name="hbar" unicode="&#x127;" 
d="M75 616v-229h2c4.66699 20 12.167 38.333 22.5 55s23.333 31.334 39 44.001s33.834 22.5 54.501 29.5s43.667 10.5 69 10.5c26.667 0 51.167 -4 73.5 -12s41.666 -19.833 57.999 -35.5s29 -35 38 -58s13.5 -49.5 13.5 -79.5v-341h-20v338c0 30 -4.33301 55.5 -13 76.5
s-20.5 38.333 -35.5 52s-32.333 23.667 -52 30s-40.5 9.5 -62.5 9.5c-30.667 0 -57.667 -5.83301 -81 -17.5s-42.833 -27.334 -58.5 -47.001s-27.5 -42.5 -35.5 -68.5s-12 -53.333 -12 -82v-291h-20v616h-108v20h108v78h20v-78h102v-20h-102z" />
    <glyph glyph-name="Itilde" unicode="&#x128;" horiz-adv-x="128" 
d="M54 714v-714h20v714h-20zM-68 764c0 9.33301 1.83301 18.665 5.5 27.998s8.66699 17.833 15 25.5s13.5 13.834 21.5 18.501s16.333 7 25 7c11.333 0 22.5 -3 33.5 -9s21.833 -12.667 32.5 -20s21 -14 31 -20s20 -9 30 -9c15.333 0 27.333 5.66699 36 17s13 24 13 38h20
c0 -19.333 -5.66699 -36.666 -17 -51.999s-28.666 -23 -51.999 -23c-12.667 0 -24.334 3 -35.001 9s-21 12.667 -31 20s-20 14 -30 20s-20.333 9 -31 9c-6.66699 0 -12.834 -1.83301 -18.501 -5.5s-10.667 -8.5 -15 -14.5s-7.66602 -12.5 -9.99902 -19.5
s-3.5 -13.5 -3.5 -19.5h-20v0z" />
    <glyph glyph-name="itilde" unicode="&#x129;" horiz-adv-x="130" 
d="M55 0h20v514h-20v-514zM-67 567c0 9.33301 1.83301 18.665 5.5 27.998s8.66699 17.833 15 25.5s13.5 13.834 21.5 18.501s16.333 7 25 7c11.333 0 22.5 -3 33.5 -9s21.833 -12.667 32.5 -20s21 -14 31 -20s20 -9 30 -9c15.333 0 27.333 5.66699 36 17s13 24 13 38h20
c0 -19.333 -5.66699 -36.666 -17 -51.999s-28.666 -23 -51.999 -23c-12.667 0 -24.334 3 -35.001 9s-21 12.667 -31 20s-20 14 -30 20s-20.333 9 -31 9c-6.66699 0 -12.834 -1.83301 -18.501 -5.5s-10.667 -8.5 -15 -14.5s-7.66602 -12.5 -9.99902 -19.5
s-3.5 -13.5 -3.5 -19.5h-20v0z" />
    <glyph glyph-name="Imacron" unicode="&#x12a;" horiz-adv-x="128" 
d="M54 714v-714h20v714h-20zM-52 764v20h231v-20h-231z" />
    <glyph glyph-name="imacron" unicode="&#x12b;" horiz-adv-x="130" 
d="M55 0h20v514h-20v-514zM-51 567v20h231v-20h-231z" />
    <glyph glyph-name="Ibreve" unicode="&#x12c;" horiz-adv-x="128" 
d="M54 714v-714h20v714h-20zM-37 871h-20.001c4 -32 16.667 -57.833 38 -77.5s48.333 -29.5 81 -29.5c34 0 62.5 9.33301 85.5 28s36.5 45 40.5 79h-20c-3.33301 -30 -14.666 -52 -33.999 -66s-43.333 -21 -72 -21c-26.667 0 -49 8 -67 24s-28.667 37 -32 63z" />
    <glyph glyph-name="ibreve" unicode="&#x12d;" horiz-adv-x="130" 
d="M55 0h20v514h-20v-514zM-37 675h-20.001c4 -32 16.667 -57.833 38 -77.5s48.333 -29.5 81 -29.5c34 0 62.5 9.33301 85.5 28s36.5 45 40.5 79h-20c-3.33301 -30 -14.666 -52 -33.999 -66s-43.333 -21 -72 -21c-26.667 0 -49 8 -67 24s-28.667 37 -32 63z" />
    <glyph glyph-name="Iogonek" unicode="&#x12e;" horiz-adv-x="128" 
d="M54 714v-714h20v714h-20zM106 0c-38 -28.667 -64.6689 -52.4971 -80.002 -71.4971s-23 -36.833 -23 -53.5c0 -10.667 4 -20.834 12 -30.501s21.333 -14.5 40 -14.5c16 0 31 3.66699 45 11s24.667 14.666 32 21.999l14 -13c-9.33301 -9.33301 -21.666 -18 -36.999 -26
s-34.666 -12 -57.999 -12c-25.333 0 -43.333 6 -54 18s-16 26.667 -16 44c0 12 2.83301 23.667 8.5 35s13 22.166 22 32.499s19.167 20.333 30.5 30l35 28.5h29v0z" />
    <glyph glyph-name="iogonek" unicode="&#x12f;" horiz-adv-x="130" 
d="M75 613v101h-20v-101h20zM75 0v514h-20v-514h20zM107 0c-38 -28.667 -64.6689 -52.4971 -80.002 -71.4971s-23 -36.833 -23 -53.5c0 -10.667 4 -20.834 12 -30.501s21.333 -14.5 40 -14.5c16 0 31 3.66699 45 11s24.667 14.666 32 21.999l14 -13
c-9.33301 -9.33301 -21.666 -18 -36.999 -26s-34.666 -12 -57.999 -12c-25.333 0 -43.333 6 -54 18s-16 26.667 -16 44c0 12 2.83301 23.667 8.5 35s13 22.166 22 32.499s19.167 20.333 30.5 30l35 28.5h29v0z" />
    <glyph glyph-name="Idotaccent" unicode="&#x130;" horiz-adv-x="128" 
d="M54 714v-714h20v714h-20zM75 845h-20v-81h20v81z" />
    <glyph glyph-name="dotlessi" unicode="&#x131;" horiz-adv-x="130" 
d="M55 0h20v514h-20v-514z" />
    <glyph glyph-name="IJ" unicode="&#x132;" horiz-adv-x="591" 
d="M54 714v-714h20v714h-20zM512 714l0.000976562 -513.002c0 -37.333 -3.83301 -68.666 -11.5 -93.999s-19 -45.666 -34 -60.999s-33.333 -26.333 -55 -33s-46.834 -10 -75.501 -10c-56 0 -98.333 14.5 -127 43.5s-43 72.833 -43 131.5v43h-20v-43
c0 -28 3.5 -53.833 10.5 -77.5s18.167 -44.167 33.5 -61.5s35 -30.833 59 -40.5s53 -14.5 87 -14.5c36 0 66.5 4.83301 91.5 14.5s45.167 23.5 60.5 41.5s26.5 39.333 33.5 64s10.5 52 10.5 82v528h-20z" />
    <glyph glyph-name="ij" unicode="&#x133;" horiz-adv-x="260" 
d="M75 613v101h-20v-101h20zM75 0v514h-20v-514h20zM205 613v101h-20v-101h20zM205 -74l0.000976562 588h-20v-581c0 -21.333 -1.83301 -38 -5.5 -50s-9.5 -20.833 -17.5 -26.5s-18.667 -9.16699 -32 -10.5s-29.333 -2 -48 -2v-20c19.333 0 36.666 0.833008 51.999 2.5
s28.333 6 39 13s18.667 17.333 24 31s8 32.167 8 55.5z" />
    <glyph glyph-name="Jcircumflex" unicode="&#x134;" horiz-adv-x="463" 
d="M384 714l0.000976562 -513.002c0 -37.333 -3.83301 -68.666 -11.5 -93.999s-19 -45.666 -34 -60.999s-33.333 -26.333 -55 -33s-46.834 -10 -75.501 -10c-56 0 -98.333 14.5 -127 43.5s-43 72.833 -43 131.5v43h-20v-43c0 -28 3.5 -53.833 10.5 -77.5
s18.167 -44.167 33.5 -61.5s35 -30.833 59 -40.5s53 -14.5 87 -14.5c36 0 66.5 4.83301 91.5 14.5s45.167 23.5 60.5 41.5s26.5 39.333 33.5 64s10.5 52 10.5 82v528h-20zM486.001 765.998h20l-114 139h-15l-112 -139h20l98 123z" />
    <glyph glyph-name="jcircumflex" unicode="&#x135;" horiz-adv-x="130" 
d="M75 -74c0 -23.333 -2.66797 -41.833 -8.00098 -55.5s-13.333 -24 -24 -31s-23.667 -11.333 -39 -13s-32.666 -2.5 -51.999 -2.5v20c18.667 0 34.667 0.666992 48 2s24 4.83301 32 10.5s13.833 14.5 17.5 26.5s5.5 28.667 5.5 50v581h20v-588zM62.999 715l-98 -123h-20
l112 139h15l114 -139h-20z" />
    <glyph glyph-name="Kcommaaccent" unicode="&#x136;" horiz-adv-x="593" 
d="M74 253l164 145l354 -398h27l-365 410l345 304h-30l-495 -434v434h-20v-714h20v253zM358 -118c0 -18 -0.665039 -32.667 -1.99805 -44s-3.83301 -21 -7.5 -29s-8.33398 -14.5 -14.001 -19.5s-12.834 -9.83301 -21.501 -14.5v20c10 6.66699 16.667 16.5 20 29.5
s5 32.167 5 57.5v118h20v-118z" />
    <glyph glyph-name="kcommaaccent" unicode="&#x137;" horiz-adv-x="444" 
d="M75 194l133 110l241 -304h27l-253 318l236 196h-29l-355 -295v495h-20v-714h20v194zM287 -118c0 -18 -0.665039 -32.667 -1.99805 -44s-3.83301 -21 -7.5 -29s-8.33398 -14.5 -14.001 -19.5s-12.834 -9.83301 -21.501 -14.5v20c10 6.66699 16.667 16.5 20 29.5
s5 32.167 5 57.5v118h20v-118z" />
    <glyph glyph-name="kgreenlandic" unicode="&#x138;" horiz-adv-x="444" 
d="M75 0h-20v514h20v-295l355 295h29l-236 -196l253 -318h-27l-241 304l-133 -110v-194z" />
    <glyph glyph-name="Lacute" unicode="&#x139;" horiz-adv-x="481" 
d="M491 20h-417v694h-20v-714h437v20zM206 764h-15l132 144h29z" />
    <glyph glyph-name="lacute" unicode="&#x13a;" horiz-adv-x="130" 
d="M55 714v-714h20v714h-20zM-1 764h-15l132 144h29z" />
    <glyph glyph-name="Lcommaaccent" unicode="&#x13b;" horiz-adv-x="481" 
d="M491 20h-417v694h-20v-714h437v20zM294 -118c0 -18 -0.665039 -32.667 -1.99805 -44s-3.83301 -21 -7.5 -29s-8.33398 -14.5 -14.001 -19.5s-12.834 -9.83301 -21.501 -14.5v20c10 6.66699 16.667 16.5 20 29.5s5 32.167 5 57.5v118h20v-118z" />
    <glyph glyph-name="lcommaaccent" unicode="&#x13c;" horiz-adv-x="130" 
d="M55 714v-714h20v714h-20zM87 -118c0 -18 -0.665039 -32.667 -1.99805 -44s-3.83301 -21 -7.5 -29s-8.33398 -14.5 -14.001 -19.5s-12.834 -9.83301 -21.501 -14.5v20c10 6.66699 16.667 16.5 20 29.5s5 32.167 5 57.5v118h20v-118z" />
    <glyph glyph-name="Lcaron" unicode="&#x13d;" horiz-adv-x="481" 
d="M491 20h-417v694h-20v-714h437v20zM273 780l99 123h20l-113 -139h-15l-113 139h20z" />
    <glyph glyph-name="lcaron" unicode="&#x13e;" horiz-adv-x="130" 
d="M55 714v-714h20v714h-20zM66 780l99 123h20l-113 -139h-15l-113 139h20z" />
    <glyph glyph-name="Ldot" unicode="&#x13f;" horiz-adv-x="481" 
d="M491 0h-437v714h20v-694h417v-20zM299 514h20v-98h-20v98z" />
    <glyph glyph-name="ldot" unicode="&#x140;" horiz-adv-x="234" 
d="M75 714v-714h-20v714h20zM169 514h20v-98h-20v98z" />
    <glyph glyph-name="Lslash" unicode="&#x141;" horiz-adv-x="481" 
d="M54 0h437v20h-417v263l248 174v24l-248 -174v407h-20v-421l-73 -52v-24l73 52v-269z" />
    <glyph glyph-name="lslash" unicode="&#x142;" horiz-adv-x="130" 
d="M75 714h-20v-314l-72 -63v-25l72 63v-375h20v392l73 63v25l-73 -63v297z" />
    <glyph glyph-name="Nacute" unicode="&#x143;" horiz-adv-x="648" 
d="M84 714l488 -689h2v689h20v-714h-30l-488 689h-2v-689h-20v714h30zM298 765h-15l132 144h29z" />
    <glyph glyph-name="nacute" unicode="&#x144;" 
d="M75 514v-127h2c4.66699 20 12.167 38.333 22.5 55s23.333 31.334 39 44.001s33.834 22.5 54.501 29.5s43.667 10.5 69 10.5c26.667 0 51.167 -4 73.5 -12s41.666 -19.833 57.999 -35.5s29 -35 38 -58s13.5 -49.5 13.5 -79.5v-341h-20v338c0 30 -4.33301 55.5 -13 76.5
s-20.5 38.333 -35.5 52s-32.333 23.667 -52 30s-40.5 9.5 -62.5 9.5c-30.667 0 -57.667 -5.83301 -81 -17.5s-42.833 -27.334 -58.5 -47.001s-27.5 -42.5 -35.5 -68.5s-12 -53.333 -12 -82v-291h-20v514h20zM214 565h-15l132 144h29z" />
    <glyph glyph-name="Ncommaaccent" unicode="&#x145;" horiz-adv-x="648" 
d="M54 714v-714h20v689h2l488 -689h30v714h-20v-689h-2l-488 689h-30zM346 -118c0 -18 -0.665039 -32.667 -1.99805 -44s-3.83301 -21 -7.5 -29s-8.33398 -14.5 -14.001 -19.5s-12.834 -9.83301 -21.501 -14.5v20c10 6.66699 16.667 16.5 20 29.5s5 32.167 5 57.5v118h20
v-118z" />
    <glyph glyph-name="ncedilla" unicode="&#x146;" 
d="M55 514v-514h20v291c0 28.667 4 56 12 82s19.833 48.833 35.5 68.5s35.167 35.334 58.5 47.001s50.333 17.5 81 17.5c22 0 42.833 -3.16699 62.5 -9.5s37 -16.333 52 -30s26.833 -31 35.5 -52s13 -46.5 13 -76.5v-338h20v341c0 30 -4.5 56.5 -13.5 79.5
s-21.667 42.333 -38 58s-35.666 27.5 -57.999 35.5s-46.833 12 -73.5 12c-25.333 0 -48.333 -3.5 -69 -10.5s-38.834 -16.833 -54.501 -29.5s-28.667 -27.334 -39 -44.001s-17.833 -35 -22.5 -55h-2v127h-20zM272 -118c0 -18 -0.665039 -32.667 -1.99805 -44
s-3.83301 -21 -7.5 -29s-8.33398 -14.5 -14.001 -19.5s-12.834 -9.83301 -21.501 -14.5v20c10 6.66699 16.667 16.5 20 29.5s5 32.167 5 57.5v118h20v-118z" />
    <glyph glyph-name="Ncaron" unicode="&#x147;" horiz-adv-x="648" 
d="M54 714v-714h20v689h2l488 -689h30v714h-20v-689h-2l-488 689h-30zM325 780l99 123h20l-113 -139h-15l-113 139h20z" />
    <glyph glyph-name="ncaron" unicode="&#x148;" 
d="M55 514v-514h20v291c0 28.667 4 56 12 82s19.833 48.833 35.5 68.5s35.167 35.334 58.5 47.001s50.333 17.5 81 17.5c22 0 42.833 -3.16699 62.5 -9.5s37 -16.333 52 -30s26.833 -31 35.5 -52s13 -46.5 13 -76.5v-338h20v341c0 30 -4.5 56.5 -13.5 79.5
s-21.667 42.333 -38 58s-35.666 27.5 -57.999 35.5s-46.833 12 -73.5 12c-25.333 0 -48.333 -3.5 -69 -10.5s-38.834 -16.833 -54.501 -29.5s-28.667 -27.334 -39 -44.001s-17.833 -35 -22.5 -55h-2v127h-20zM251 595l99 123h20l-113 -139h-15l-113 139h20z" />
    <glyph glyph-name="napostrophe" unicode="&#x149;" horiz-adv-x="604" 
d="M99 717h-20.002v-118c0 -25.333 -1.66699 -44.5 -5 -57.5s-10 -22.833 -20 -29.5v-20c8.66699 4.66699 15.834 9.5 21.501 14.5s10.334 11.5 14.001 19.5s6.16699 17.667 7.5 29s2 26 2 44v118zM158.998 514v-514h20v291c0 28.667 4 56 12 82s19.833 48.833 35.5 68.5
s35.167 35.334 58.5 47.001s50.333 17.5 81 17.5c22 0 42.833 -3.16699 62.5 -9.5s37 -16.333 52 -30s26.833 -31 35.5 -52s13 -46.5 13 -76.5v-338h20v341c0 30 -4.5 56.5 -13.5 79.5s-21.667 42.333 -38 58s-35.666 27.5 -57.999 35.5s-46.833 12 -73.5 12
c-25.333 0 -48.333 -3.5 -69 -10.5s-38.834 -16.833 -54.501 -29.5s-28.667 -27.334 -39 -44.001s-17.833 -35 -22.5 -55h-2v127h-20z" />
    <glyph glyph-name="Eng" unicode="&#x14a;" horiz-adv-x="648" 
d="M594 -74c0 -23.333 -2.66797 -41.833 -8.00098 -55.5s-13.333 -24 -24 -31s-23.667 -11.333 -39 -13s-32.666 -2.5 -51.999 -2.5v20c18.667 0 34.667 0.666992 48 2s24 4.83301 32 10.5s13.833 14.5 17.5 26.5s5.5 28.667 5.5 50l-10 67l-488 689h-2v-689h-20v714h30
l490 -689v689h20v-788v0z" />
    <glyph glyph-name="eng" unicode="&#x14b;" 
d="M445 -74c0 -23.333 -2.66797 -41.833 -8.00098 -55.5s-13.333 -24 -24 -31s-23.667 -11.333 -39 -13s-32.666 -2.5 -51.999 -2.5v20c18.667 0 34.667 0.666992 48 2s24 4.83301 32 10.5s13.833 14.5 17.5 26.5s5.5 28.667 5.5 50v405c0 30 -4.33301 55.5 -13 76.5
s-20.5 38.333 -35.5 52s-32.333 23.667 -52 30s-40.5 9.5 -62.5 9.5c-30.667 0 -57.667 -5.83301 -81 -17.5s-42.833 -27.334 -58.5 -47.001s-27.5 -42.5 -35.5 -68.5s-12 -53.333 -12 -82v-291h-20v514h20v-127h2c4.66699 20 12.167 38.333 22.5 55
s23.333 31.334 39 44.001s33.834 22.5 54.501 29.5s43.667 10.5 69 10.5c26.667 0 51.167 -4 73.5 -12s41.666 -19.833 57.999 -35.5s29 -35 38 -58s13.5 -49.5 13.5 -79.5v-415v0z" />
    <glyph glyph-name="Omacron" unicode="&#x14c;" horiz-adv-x="721" 
d="M32 357c0 -50.667 7.16699 -98.667 21.5 -144s35.333 -85 63 -119s62 -60.833 103 -80.5s88.167 -29.5 141.5 -29.5s100.5 9.83301 141.5 29.5s75.333 46.5 103 80.5s48.667 73.667 63 119s21.5 93.333 21.5 144s-7.16699 98.667 -21.5 144s-35.333 85 -63 119
s-62 61 -103 81s-88.167 30 -141.5 30s-100.5 -10 -141.5 -30s-75.333 -47 -103 -81s-48.667 -73.667 -63 -119s-21.5 -93.333 -21.5 -144zM52 357c0.666992 51.333 8.16699 98.666 22.5 141.999s34.666 80.666 60.999 111.999s58.5 55.833 96.5 73.5s81 26.5 129 26.5
s91 -8.83301 129 -26.5s70.167 -42.167 96.5 -73.5s46.666 -68.666 60.999 -111.999s21.833 -90.666 22.5 -141.999c-0.666992 -51.333 -8.16699 -98.666 -22.5 -141.999s-34.666 -80.666 -60.999 -111.999s-58.5 -55.833 -96.5 -73.5s-81 -26.5 -129 -26.5
s-91 8.83301 -129 26.5s-70.167 42.167 -96.5 73.5s-46.666 68.666 -60.999 111.999s-21.833 90.666 -22.5 141.999zM245 781v20h231v-20h-231z" />
    <glyph glyph-name="omacron" unicode="&#x14d;" horiz-adv-x="519" 
d="M48 257c0 32 4.5 63 13.5 93s22.5 56.5 40.5 79.5s40.167 41.5 66.5 55.5s56.833 21 91.5 21c34 0 64.167 -7 90.5 -21s48.5 -32.5 66.5 -55.5s31.5 -49.5 40.5 -79.5s13.5 -61 13.5 -93c0 -32.667 -4.5 -64 -13.5 -94s-22.5 -56.5 -40.5 -79.5
s-40.167 -41.333 -66.5 -55s-56.5 -20.5 -90.5 -20.5c-34.667 0 -65.167 6.83301 -91.5 20.5s-48.5 32 -66.5 55s-31.5 49.5 -40.5 79.5s-13.5 61.333 -13.5 94zM28 257c0 -35.333 5 -69.166 15 -101.499s24.833 -60.833 44.5 -85.5s43.834 -44.334 72.501 -59.001
s61.667 -22 99 -22c38 0 71.333 7.33301 100 22s52.834 34.334 72.501 59.001s34.5 53.167 44.5 85.5s15 66.166 15 101.499s-5 69.166 -15 101.499s-24.833 60.833 -44.5 85.5s-43.834 44.5 -72.501 59.5s-61.667 22.5 -99 22.5c-38 0 -71.333 -7.5 -100 -22.5
s-52.834 -34.833 -72.501 -59.5s-34.5 -53.167 -44.5 -85.5s-15 -66.166 -15 -101.499zM143 579v20h231v-20h-231z" />
    <glyph glyph-name="Obreve" unicode="&#x14e;" horiz-adv-x="721" 
d="M32 357c0 -50.667 7.16699 -98.667 21.5 -144s35.333 -85 63 -119s62 -60.833 103 -80.5s88.167 -29.5 141.5 -29.5s100.5 9.83301 141.5 29.5s75.333 46.5 103 80.5s48.667 73.667 63 119s21.5 93.333 21.5 144s-7.16699 98.667 -21.5 144s-35.333 85 -63 119
s-62 61 -103 81s-88.167 30 -141.5 30s-100.5 -10 -141.5 -30s-75.333 -47 -103 -81s-48.667 -73.667 -63 -119s-21.5 -93.333 -21.5 -144zM52 357c0.666992 51.333 8.16699 98.666 22.5 141.999s34.666 80.666 60.999 111.999s58.5 55.833 96.5 73.5s81 26.5 129 26.5
s91 -8.83301 129 -26.5s70.167 -42.167 96.5 -73.5s46.666 -68.666 60.999 -111.999s21.833 -90.666 22.5 -141.999c-0.666992 -51.333 -8.16699 -98.666 -22.5 -141.999s-34.666 -80.666 -60.999 -111.999s-58.5 -55.833 -96.5 -73.5s-81 -26.5 -129 -26.5
s-91 8.83301 -129 26.5s-70.167 42.167 -96.5 73.5s-46.666 68.666 -60.999 111.999s-21.833 90.666 -22.5 141.999zM258 888c3.33301 -26 14.001 -47 32.001 -63s40.333 -24 67 -24c28.667 0 52.667 7 72 21s30.666 36 33.999 66h20c-4 -34 -17.5 -60.333 -40.5 -79
s-51.5 -28 -85.5 -28c-32.667 0 -59.667 9.83301 -81 29.5s-34 45.5 -38 77.5h20v0z" />
    <glyph glyph-name="obreve" unicode="&#x14f;" horiz-adv-x="519" 
d="M48 257c0 32 4.5 63 13.5 93s22.5 56.5 40.5 79.5s40.167 41.5 66.5 55.5s56.833 21 91.5 21c34 0 64.167 -7 90.5 -21s48.5 -32.5 66.5 -55.5s31.5 -49.5 40.5 -79.5s13.5 -61 13.5 -93c0 -32.667 -4.5 -64 -13.5 -94s-22.5 -56.5 -40.5 -79.5
s-40.167 -41.333 -66.5 -55s-56.5 -20.5 -90.5 -20.5c-34.667 0 -65.167 6.83301 -91.5 20.5s-48.5 32 -66.5 55s-31.5 49.5 -40.5 79.5s-13.5 61.333 -13.5 94zM28 257c0 -35.333 5 -69.166 15 -101.499s24.833 -60.833 44.5 -85.5s43.834 -44.334 72.501 -59.001
s61.667 -22 99 -22c38 0 71.333 7.33301 100 22s52.834 34.334 72.501 59.001s34.5 53.167 44.5 85.5s15 66.166 15 101.499s-5 69.166 -15 101.499s-24.833 60.833 -44.5 85.5s-43.834 44.5 -72.501 59.5s-61.667 22.5 -99 22.5c-38 0 -71.333 -7.5 -100 -22.5
s-52.834 -34.833 -72.501 -59.5s-34.5 -53.167 -44.5 -85.5s-15 -66.166 -15 -101.499zM156 686c3.33301 -26 14.001 -47 32.001 -63s40.333 -24 67 -24c28.667 0 52.667 7 72 21s30.666 36 33.999 66h20c-4 -34 -17.5 -60.333 -40.5 -79s-51.5 -28 -85.5 -28
c-32.667 0 -59.667 9.83301 -81 29.5s-34 45.5 -38 77.5h20v0z" />
    <glyph glyph-name="Ohungarumlaut" unicode="&#x150;" horiz-adv-x="721" 
d="M32 357c0 -50.667 7.16699 -98.667 21.5 -144s35.333 -85 63 -119s62 -60.833 103 -80.5s88.167 -29.5 141.5 -29.5s100.5 9.83301 141.5 29.5s75.333 46.5 103 80.5s48.667 73.667 63 119s21.5 93.333 21.5 144s-7.16699 98.667 -21.5 144s-35.333 85 -63 119
s-62 61 -103 81s-88.167 30 -141.5 30s-100.5 -10 -141.5 -30s-75.333 -47 -103 -81s-48.667 -73.667 -63 -119s-21.5 -93.333 -21.5 -144zM52 357c0.666992 51.333 8.16699 98.666 22.5 141.999s34.666 80.666 60.999 111.999s58.5 55.833 96.5 73.5s81 26.5 129 26.5
s91 -8.83301 129 -26.5s70.167 -42.167 96.5 -73.5s46.666 -68.666 60.999 -111.999s21.833 -90.666 22.5 -141.999c-0.666992 -51.333 -8.16699 -98.666 -22.5 -141.999s-34.666 -80.666 -60.999 -111.999s-58.5 -55.833 -96.5 -73.5s-81 -26.5 -129 -26.5
s-91 8.83301 -129 26.5s-70.167 42.167 -96.5 73.5s-46.666 68.666 -60.999 111.999s-21.833 90.666 -22.5 141.999zM370 781h-15l132 144h29zM221 781h-15l131 144h29z" />
    <glyph glyph-name="ohungarumlaut" unicode="&#x151;" horiz-adv-x="519" 
d="M48 257c0 32 4.5 63 13.5 93s22.5 56.5 40.5 79.5s40.167 41.5 66.5 55.5s56.833 21 91.5 21c34 0 64.167 -7 90.5 -21s48.5 -32.5 66.5 -55.5s31.5 -49.5 40.5 -79.5s13.5 -61 13.5 -93c0 -32.667 -4.5 -64 -13.5 -94s-22.5 -56.5 -40.5 -79.5
s-40.167 -41.333 -66.5 -55s-56.5 -20.5 -90.5 -20.5c-34.667 0 -65.167 6.83301 -91.5 20.5s-48.5 32 -66.5 55s-31.5 49.5 -40.5 79.5s-13.5 61.333 -13.5 94zM28 257c0 -35.333 5 -69.166 15 -101.499s24.833 -60.833 44.5 -85.5s43.834 -44.334 72.501 -59.001
s61.667 -22 99 -22c38 0 71.333 7.33301 100 22s52.834 34.334 72.501 59.001s34.5 53.167 44.5 85.5s15 66.166 15 101.499s-5 69.166 -15 101.499s-24.833 60.833 -44.5 85.5s-43.834 44.5 -72.501 59.5s-61.667 22.5 -99 22.5c-38 0 -71.333 -7.5 -100 -22.5
s-52.834 -34.833 -72.501 -59.5s-34.5 -53.167 -44.5 -85.5s-15 -66.166 -15 -101.499zM268 579h-15l132 144h29zM119 579h-15l131 144h29z" />
    <glyph glyph-name="OE" unicode="&#x152;" horiz-adv-x="1019" 
d="M558 623l0.000976562 -529.001c-28.667 -33.333 -60.667 -56.833 -96 -70.5s-68.666 -20.5 -99.999 -20.5c-48 0 -91 8.83301 -129 26.5s-70.333 42 -97 73s-47.167 67.833 -61.5 110.5s-21.833 89.334 -22.5 140.001c0.666992 54 8.33398 103 23.001 147
s35.334 81.667 62.001 113s59 55.5 97 72.5s80.667 25.5 128 25.5c21.333 0 40.666 -1.66699 57.999 -5s33.666 -8.5 48.999 -15.5s30.166 -16 44.499 -27s29.166 -24.5 44.499 -40.5zM944.001 381.999l-366.001 0.00292969v312h414v20h-434v-65
c-26 30 -55.167 51.167 -87.5 63.5s-68.5 18.5 -108.5 18.5c-54.667 0 -102.667 -10.333 -144 -31s-75.666 -48.334 -102.999 -83.001s-48 -74.834 -62 -120.501s-21 -93.5 -21 -143.5s7.16699 -97.333 21.5 -142s35.333 -83.834 63 -117.501s62 -60.334 103 -80.001
s88.5 -29.5 142.5 -29.5c34.667 0 69 6.33301 103 19s65 33.334 93 62.001v-65h434v20h-414v342h366v20z" />
    <glyph glyph-name="oe" unicode="&#x153;" horiz-adv-x="890" 
d="M454 253h401.994v15c0 34 -4 66.667 -12 98s-20.5 59 -37.5 83s-38.667 43 -65 57s-58.166 20.667 -95.499 20c-30.667 -0.666992 -57.667 -5.5 -81 -14.5s-43.166 -21.333 -59.499 -37s-29.5 -34 -39.5 -55s-17.333 -44.167 -22 -69.5h-2
c-8 52 -29.167 94.333 -63.5 127s-79.5 49 -135.5 49c-38.667 0 -71.5 -7.83301 -98.5 -23.5s-48.833 -36.167 -65.5 -61.5s-28.667 -54 -36 -86s-11 -64.667 -11 -98c0 -34 3.83301 -67 11.5 -99s20 -60.5 37 -85.5s38.833 -45.167 65.5 -60.5s59 -23 97 -23
c58 0 103 15 135 45s53.667 71 65 123h2c8 -54 29.333 -95.5 64 -124.5s80.334 -43.5 137.001 -43.5c58.667 0 104.834 16.5 138.501 49.5s55.167 77.833 64.5 134.5h-20c-4 -22 -10.333 -43 -19 -63s-20.167 -37.5 -34.5 -52.5s-32.166 -27 -53.499 -36
s-46.666 -13.5 -75.999 -13.5c-66.667 0 -115.5 20.833 -146.5 62.5s-46.167 102.5 -45.5 182.5zM433.994 257c0 -32.667 -3.16699 -63.999 -9.5 -93.999s-16.833 -56.5 -31.5 -79.5s-34.167 -41.333 -58.5 -55s-54.833 -20.5 -91.5 -20.5
c-34.667 0 -64.167 7.16699 -88.5 21.5s-44 33.166 -59 56.499s-26 50 -33 80s-10.5 60.333 -10.5 91c0 32 3.5 62.833 10.5 92.5s18 56.167 33 79.5s34.667 42 59 56s53.833 21 88.5 21c36 0 66.167 -7 90.5 -21s44 -32.5 59 -55.5s25.667 -49.5 32 -79.5s9.5 -61 9.5 -93z
M835.994 273.001l-381.999 -0.00195312c1.33301 33.333 5.66602 64.166 12.999 92.499s18.5 52.833 33.5 73.5s34.5 37 58.5 49s53.333 18 88 18c33.333 0 61.833 -6.16699 85.5 -18.5s43 -29.166 58 -50.499s26.167 -46.166 33.5 -74.499s11.333 -58.166 12 -89.499z" />
    <glyph glyph-name="Racute" unicode="&#x154;" horiz-adv-x="611" 
d="M74 0l0.000976562 334.995h269c41.333 0 74.333 -4.16699 99 -12.5s43.667 -20.333 57 -36s22.166 -35 26.499 -58s6.5 -49.167 6.5 -78.5c0 -11.333 0.166992 -24.166 0.5 -38.499s1 -28.5 2 -42.5s2.5 -27.167 4.5 -39.5s4.66699 -22.166 8 -29.499h22
c-3.33301 4.66699 -6 13 -8 25s-3.66699 25.333 -5 40s-2.33301 29.5 -3 44.5s-1 27.5 -1 37.5c0 28.667 -1.66699 54.334 -5 77.001s-10 42.334 -20 59.001s-24.333 30.167 -43 40.5s-43 17.5 -73 21.5v2c50 11.333 88.333 32.833 115 64.5s39.334 71.5 38.001 119.5
c-1.33301 62.667 -19.333 108.834 -54 138.501s-89.334 44.5 -164.001 44.5h-292v-714h20zM74.001 354.995v339h277c68 0 117 -14.167 147 -42.5s45.333 -67.833 46 -118.5c0 -31.333 -5.66699 -58.166 -17 -80.499s-26.333 -40.833 -45 -55.5
s-40.167 -25.334 -64.5 -32.001s-49.833 -10 -76.5 -10h-267zM245.001 763.995h-15l132 144h29z" />
    <glyph glyph-name="racute" unicode="&#x155;" horiz-adv-x="259" 
d="M75 0l-0.000976562 290.999c0 28 4 55.333 12 82s20.333 50.167 37 70.5s37.834 36.333 63.501 48s56.167 16.5 91.5 14.5v20c-30.667 0.666992 -57.5 -2.66602 -80.5 -9.99902s-42.833 -17.333 -59.5 -30s-30 -27.5 -40 -44.5s-17.333 -35.167 -22 -54.5h-2v127h-20
v-514h20zM100.999 579.999h-15l132 144h29z" />
    <glyph glyph-name="Rcommaaccent" unicode="&#x156;" horiz-adv-x="611" 
d="M74 0l0.000976562 334.995h269c41.333 0 74.333 -4.16699 99 -12.5s43.667 -20.333 57 -36s22.166 -35 26.499 -58s6.5 -49.167 6.5 -78.5c0 -11.333 0.166992 -24.166 0.5 -38.499s1 -28.5 2 -42.5s2.5 -27.167 4.5 -39.5s4.66699 -22.166 8 -29.499h22
c-3.33301 4.66699 -6 13 -8 25s-3.66699 25.333 -5 40s-2.33301 29.5 -3 44.5s-1 27.5 -1 37.5c0 28.667 -1.66699 54.334 -5 77.001s-10 42.334 -20 59.001s-24.333 30.167 -43 40.5s-43 17.5 -73 21.5v2c50 11.333 88.333 32.833 115 64.5s39.334 71.5 38.001 119.5
c-1.33301 62.667 -19.333 108.834 -54 138.501s-89.334 44.5 -164.001 44.5h-292v-714h20zM74.001 354.995v339h277c68 0 117 -14.167 147 -42.5s45.333 -67.833 46 -118.5c0 -31.333 -5.66699 -58.166 -17 -80.499s-26.333 -40.833 -45 -55.5
s-40.167 -25.334 -64.5 -32.001s-49.833 -10 -76.5 -10h-267zM333.001 -118.005c0 -18 -0.665039 -32.667 -1.99805 -44s-3.83301 -21 -7.5 -29s-8.33398 -14.5 -14.001 -19.5s-12.834 -9.83301 -21.501 -14.5v20c10 6.66699 16.667 16.5 20 29.5s5 32.167 5 57.5v118h20
v-118z" />
    <glyph glyph-name="rcommaaccent" unicode="&#x157;" horiz-adv-x="259" 
d="M75 0l-0.000976562 290.999c0 28 4 55.333 12 82s20.333 50.167 37 70.5s37.834 36.333 63.501 48s56.167 16.5 91.5 14.5v20c-30.667 0.666992 -57.5 -2.66602 -80.5 -9.99902s-42.833 -17.333 -59.5 -30s-30 -27.5 -40 -44.5s-17.333 -35.167 -22 -54.5h-2v127h-20
v-514h20zM188.999 -118.001c0 -18 -0.665039 -32.667 -1.99805 -44s-3.83301 -21 -7.5 -29s-8.33398 -14.5 -14.001 -19.5s-12.834 -9.83301 -21.501 -14.5v20c10 6.66699 16.667 16.5 20 29.5s5 32.167 5 57.5v118h20v-118z" />
    <glyph glyph-name="Rcaron" unicode="&#x158;" horiz-adv-x="611" 
d="M74 0l0.000976562 334.995h269c41.333 0 74.333 -4.16699 99 -12.5s43.667 -20.333 57 -36s22.166 -35 26.499 -58s6.5 -49.167 6.5 -78.5c0 -11.333 0.166992 -24.166 0.5 -38.499s1 -28.5 2 -42.5s2.5 -27.167 4.5 -39.5s4.66699 -22.166 8 -29.499h22
c-3.33301 4.66699 -6 13 -8 25s-3.66699 25.333 -5 40s-2.33301 29.5 -3 44.5s-1 27.5 -1 37.5c0 28.667 -1.66699 54.334 -5 77.001s-10 42.334 -20 59.001s-24.333 30.167 -43 40.5s-43 17.5 -73 21.5v2c50 11.333 88.333 32.833 115 64.5s39.334 71.5 38.001 119.5
c-1.33301 62.667 -19.333 108.834 -54 138.501s-89.334 44.5 -164.001 44.5h-292v-714h20zM74.001 354.995v339h277c68 0 117 -14.167 147 -42.5s45.333 -67.833 46 -118.5c0 -31.333 -5.66699 -58.166 -17 -80.499s-26.333 -40.833 -45 -55.5
s-40.167 -25.334 -64.5 -32.001s-49.833 -10 -76.5 -10h-267zM312.001 779.995l99 123h20l-113 -139h-15l-113 139h20z" />
    <glyph glyph-name="rcaron" unicode="&#x159;" horiz-adv-x="259" 
d="M75 0l-0.000976562 290.999c0 28 4 55.333 12 82s20.333 50.167 37 70.5s37.834 36.333 63.501 48s56.167 16.5 91.5 14.5v20c-30.667 0.666992 -57.5 -2.66602 -80.5 -9.99902s-42.833 -17.333 -59.5 -30s-30 -27.5 -40 -44.5s-17.333 -35.167 -22 -54.5h-2v127h-20
v-514h20zM167.999 595.999l99 123h20l-113 -139h-15l-113 139h20z" />
    <glyph glyph-name="Sacute" unicode="&#x15a;" horiz-adv-x="611" 
d="M529 514c-1.33301 36.667 -8.16504 67.502 -20.498 92.502s-28.666 45.333 -48.999 61s-44.5 26.834 -72.5 33.501s-58 10 -90 10c-24.667 0 -50.334 -2.5 -77.001 -7.5s-50.834 -13.833 -72.501 -26.5s-39.5 -29.5 -53.5 -50.5s-21 -47.5 -21 -79.5
s7.16699 -57.667 21.5 -77s33 -35 56 -47s49.167 -21.333 78.5 -28l90 -21l94.5 -25c29.667 -8 55.5 -18.667 77.5 -32s39.5 -31 52.5 -53s19.5 -51.667 19.5 -89c0 -34 -7.33301 -63 -22 -87s-34 -43.833 -58 -59.5s-51 -27 -81 -34s-60.333 -10.5 -91 -10.5
c-40.667 0 -78.167 4.66699 -112.5 14s-64 24.166 -89 44.499s-44.333 46.5 -58 78.5s-20.167 70.667 -19.5 116h20c0 -42.667 6.33301 -78.834 19 -108.501s30.5 -53.834 53.5 -72.501s50.333 -32.167 82 -40.5s66.5 -12.5 104.5 -12.5c28 0 55.833 3.16699 83.5 9.5
s52.5 16.5 74.5 30.5s39.833 32 53.5 54s20.5 48.333 20.5 79c0 36 -7.83301 64.5 -23.5 85.5s-35.667 37.667 -60 50s-51.333 21.666 -81 27.999s-58.167 12.833 -85.5 19.5l-86 21c-28.667 7.33301 -54.5 17.5 -77.5 30.5s-41.5 30.333 -55.5 52s-21 49.834 -21 84.501
c0 35.333 7.33301 64.833 22 88.5s33.667 42.5 57 56.5s49.5 24 78.5 30s57.833 9 86.5 9c35.333 0 67.833 -3.83301 97.5 -11.5s55.667 -20 78 -37s40.166 -39.333 53.499 -67s21 -61.5 23 -101.5h-20zM260.001 765.002h-15l132 144h29z" />
    <glyph glyph-name="sacute" unicode="&#x15b;" horiz-adv-x="463" 
d="M390 362c0 26 -4.00098 47.999 -12.001 65.999s-19.333 32.833 -34 44.5s-32.167 20.167 -52.5 25.5s-42.833 8 -67.5 8c-36 0 -64.333 -4.83301 -85 -14.5s-36 -20.667 -46 -33s-16.333 -24.5 -19 -36.5s-4 -20.333 -4 -25c0 -25.333 5.16699 -44.833 15.5 -58.5
s24.166 -24.167 41.499 -31.5c18 -7.33301 37.5 -13.666 58.5 -18.999l73.5 -19l59.5 -16.5c19.667 -5.66699 37.334 -13.5 53.001 -23.5s28.334 -22.667 38.001 -38s14.5 -35.333 14.5 -60c0 -26 -5.5 -48 -16.5 -66s-25.333 -32.667 -43 -44s-37.667 -19.5 -60 -24.5
s-44.5 -7.5 -66.5 -7.5c-68.667 0 -120.5 15 -155.5 45s-52.5 77.333 -52.5 142h20c0 -58 16.167 -100.5 48.5 -127.5s78.833 -40.5 139.5 -40.5c18.667 0 37.834 2.16699 57.501 6.5s37.5 11.333 53.5 21s29.167 22.167 39.5 37.5s15.5 34 15.5 56
c0 22.667 -5.16699 41 -15.5 55s-23.666 25.5 -39.999 34.5s-35.166 16.167 -56.499 21.5l-65 16c-24.667 6 -46.334 11.667 -65.001 17s-35.334 11.333 -50.001 18c-21.333 9.33301 -37 22.333 -47 39s-15 39 -15 67c0 14 3 28.667 9 44s16 29.333 30 42s32 23 54 31
s49 12 81 12c57.333 0 102.666 -13 135.999 -39s50 -67.667 50 -125h-20zM185.999 564.999h-15l132 144h29z" />
    <glyph glyph-name="Scircumflex" unicode="&#x15c;" horiz-adv-x="611" 
d="M531 514l19.999 -0.00195312c-2 40 -9.66699 73.833 -23 101.5s-31.166 50 -53.499 67s-48.333 29.333 -78 37s-62.167 11.5 -97.5 11.5c-28.667 0 -57.5 -3 -86.5 -9s-55.167 -16 -78.5 -30s-42.333 -32.833 -57 -56.5s-22 -53.167 -22 -88.5
c0 -34.667 7 -62.834 21 -84.501s32.5 -39 55.5 -52s48.833 -23.167 77.5 -30.5l86 -21c27.333 -6.66699 55.833 -13.167 85.5 -19.5s56.667 -15.666 81 -27.999s44.333 -29 60 -50s23.5 -49.5 23.5 -85.5c0 -30.667 -6.83301 -57 -20.5 -79s-31.5 -40 -53.5 -54
s-46.833 -24.167 -74.5 -30.5s-55.5 -9.5 -83.5 -9.5c-38 0 -72.833 4.16699 -104.5 12.5s-59 21.833 -82 40.5s-40.833 42.834 -53.5 72.501s-19 65.834 -19 108.501h-20c-0.666992 -45.333 5.83301 -84 19.5 -116s33 -58.167 58 -78.5s54.667 -35.166 89 -44.499
s71.833 -14 112.5 -14c30.667 0 61 3.5 91 10.5s57 18.333 81 34s43.333 35.5 58 59.5s22 53 22 87c0 37.333 -6.5 67 -19.5 89s-30.5 39.667 -52.5 53s-47.833 24 -77.5 32l-94.5 25l-90 21c-29.333 6.66699 -55.5 16 -78.5 28s-41.667 27.667 -56 47s-21.5 45 -21.5 77
s7 58.5 21 79.5s31.833 37.833 53.5 50.5s45.834 21.5 72.501 26.5s52.334 7.5 77.001 7.5c32 0 62 -3.33301 90 -10s52.167 -17.834 72.5 -33.501s36.666 -36 48.999 -61s19.166 -55.833 20.499 -92.5zM295.999 903.998l-98 -123h-20l112 139h15l114 -139h-20z" />
    <glyph glyph-name="scircumflex" unicode="&#x15d;" horiz-adv-x="463" 
d="M390 362l20.001 0.000976562c0 57.333 -16.667 99 -50 125s-78.666 39 -135.999 39c-32 0 -59 -4 -81 -12s-40 -18.333 -54 -31s-24 -26.667 -30 -42s-9 -30 -9 -44c0 -28 5 -50.333 15 -67s25.667 -29.667 47 -39c14.667 -6.66699 31.334 -12.667 50.001 -18
s40.334 -11 65.001 -17l65 -16c21.333 -5.33301 40.166 -12.5 56.499 -21.5s29.666 -20.5 39.999 -34.5s15.5 -32.333 15.5 -55c0 -22 -5.16699 -40.667 -15.5 -56s-23.5 -27.833 -39.5 -37.5s-33.833 -16.667 -53.5 -21s-38.834 -6.5 -57.501 -6.5
c-60.667 0 -107.167 13.5 -139.5 40.5s-48.5 69.5 -48.5 127.5h-20c0 -64.667 17.5 -112 52.5 -142s86.833 -45 155.5 -45c22 0 44.167 2.5 66.5 7.5s42.333 13.167 60 24.5s32 26 43 44s16.5 40 16.5 66c0 24.667 -4.83301 44.667 -14.5 60s-22.334 28 -38.001 38
s-33.334 17.833 -53.001 23.5l-59.5 16.5l-73.5 19c-21 5.33301 -40.5 11.666 -58.5 18.999c-17.333 7.33301 -31.166 17.833 -41.499 31.5s-15.5 33.167 -15.5 58.5c0 4.66699 1.33301 13 4 25s9 24.167 19 36.5s25.333 23.333 46 33s49 14.5 85 14.5
c24.667 0 47.167 -2.66699 67.5 -8s37.833 -13.833 52.5 -25.5s26 -26.5 34 -44.5s12 -40 12 -66zM224.001 702.001l-98 -123h-20l112 139h15l114 -139h-20z" />
    <glyph glyph-name="Scedilla" unicode="&#x15e;" horiz-adv-x="611" 
d="M531 514l19.999 -0.00195312c-2 40 -9.66699 73.833 -23 101.5s-31.166 50 -53.499 67s-48.333 29.333 -78 37s-62.167 11.5 -97.5 11.5c-28.667 0 -57.5 -3 -86.5 -9s-55.167 -16 -78.5 -30s-42.333 -32.833 -57 -56.5s-22 -53.167 -22 -88.5
c0 -34.667 7 -62.834 21 -84.501s32.5 -39 55.5 -52s48.833 -23.167 77.5 -30.5l86 -21c27.333 -6.66699 55.833 -13.167 85.5 -19.5s56.667 -15.666 81 -27.999s44.333 -29 60 -50s23.5 -49.5 23.5 -85.5c0 -30.667 -6.83301 -57 -20.5 -79s-31.5 -40 -53.5 -54
s-46.833 -24.167 -74.5 -30.5s-55.5 -9.5 -83.5 -9.5c-38 0 -72.833 4.16699 -104.5 12.5s-59 21.833 -82 40.5s-40.833 42.834 -53.5 72.501s-19 65.834 -19 108.501h-20c-0.666992 -45.333 5.83301 -84 19.5 -116s33 -58.167 58 -78.5s54.667 -35.166 89 -44.499
s71.833 -14 112.5 -14c30.667 0 61 3.5 91 10.5s57 18.333 81 34s43.333 35.5 58 59.5s22 53 22 87c0 37.333 -6.5 67 -19.5 89s-30.5 39.667 -52.5 53s-47.833 24 -77.5 32l-94.5 25l-90 21c-29.333 6.66699 -55.5 16 -78.5 28s-41.667 27.667 -56 47s-21.5 45 -21.5 77
s7 58.5 21 79.5s31.833 37.833 53.5 50.5s45.834 21.5 72.501 26.5s52.334 7.5 77.001 7.5c32 0 62 -3.33301 90 -10s52.167 -17.834 72.5 -33.501s36.666 -36 48.999 -61s19.166 -55.833 20.499 -92.5zM217.999 -159.002c10.667 -4 22.001 -7.66797 34.001 -11.001
s24.667 -5 38 -5c9.33301 0 18.666 0.833008 27.999 2.5s17.666 4.5 24.999 8.5s13.333 9.5 18 16.5s7 15.5 7 25.5c0 6.66699 -2 12.667 -6 18s-8.66699 9.5 -14 12.5s-11.166 5.33301 -17.499 7s-12.166 2.5 -17.499 2.5c-21.333 0 -39.333 -4.33301 -54 -13l-15 10l57 72
h20l-41 -55c4.66699 0.666992 9 1.83398 13 3.50098s10.667 2.5 20 2.5c19.333 0 36.666 -4.5 51.999 -13.5s23 -24.5 23 -46.5c0 -14.667 -2.66699 -26.667 -8 -36s-12.5 -16.833 -21.5 -22.5s-19.333 -9.5 -31 -11.5s-24.167 -3 -37.5 -3c-17.333 0 -32.833 2 -46.5 6
s-25.167 7.66699 -34.5 11l9 19v0z" />
    <glyph glyph-name="scedilla" unicode="&#x15f;" horiz-adv-x="463" 
d="M390 362l20.001 0.000976562c0 57.333 -16.667 99 -50 125s-78.666 39 -135.999 39c-32 0 -59 -4 -81 -12s-40 -18.333 -54 -31s-24 -26.667 -30 -42s-9 -30 -9 -44c0 -28 5 -50.333 15 -67s25.667 -29.667 47 -39c14.667 -6.66699 31.334 -12.667 50.001 -18
s40.334 -11 65.001 -17l65 -16c21.333 -5.33301 40.166 -12.5 56.499 -21.5s29.666 -20.5 39.999 -34.5s15.5 -32.333 15.5 -55c0 -22 -5.16699 -40.667 -15.5 -56s-23.5 -27.833 -39.5 -37.5s-33.833 -16.667 -53.5 -21s-38.834 -6.5 -57.501 -6.5
c-60.667 0 -107.167 13.5 -139.5 40.5s-48.5 69.5 -48.5 127.5h-20c0 -64.667 17.5 -112 52.5 -142s86.833 -45 155.5 -45c22 0 44.167 2.5 66.5 7.5s42.333 13.167 60 24.5s32 26 43 44s16.5 40 16.5 66c0 24.667 -4.83301 44.667 -14.5 60s-22.334 28 -38.001 38
s-33.334 17.833 -53.001 23.5l-59.5 16.5l-73.5 19c-21 5.33301 -40.5 11.666 -58.5 18.999c-17.333 7.33301 -31.166 17.833 -41.499 31.5s-15.5 33.167 -15.5 58.5c0 4.66699 1.33301 13 4 25s9 24.167 19 36.5s25.333 23.333 46 33s49 14.5 85 14.5
c24.667 0 47.167 -2.66699 67.5 -8s37.833 -13.833 52.5 -25.5s26 -26.5 34 -44.5s12 -40 12 -66zM146.001 -153.999c10.667 -4 22.001 -7.66797 34.001 -11.001s24.667 -5 38 -5c9.33301 0 18.666 0.833008 27.999 2.5s17.666 4.5 24.999 8.5s13.333 9.5 18 16.5
s7 15.5 7 25.5c0 6.66699 -2 12.667 -6 18s-8.66699 9.5 -14 12.5s-11.166 5.33301 -17.499 7s-12.166 2.5 -17.499 2.5c-21.333 0 -39.333 -4.33301 -54 -13l-15 10l57 72h20l-41 -55c4.66699 0.666992 9 1.83398 13 3.50098s10.667 2.5 20 2.5
c19.333 0 36.666 -4.5 51.999 -13.5s23 -24.5 23 -46.5c0 -14.667 -2.66699 -26.667 -8 -36s-12.5 -16.833 -21.5 -22.5s-19.333 -9.5 -31 -11.5s-24.167 -3 -37.5 -3c-17.333 0 -32.833 2 -46.5 6s-25.167 7.66699 -34.5 11l9 19v0z" />
    <glyph glyph-name="Scaron" unicode="&#x160;" horiz-adv-x="611" 
d="M205 931h-20l114 -139h15l113 139h-20l-99 -123zM531 514l19.999 -0.00195312c-2 40 -9.66699 73.833 -23 101.5s-31.166 50 -53.499 67s-48.333 29.333 -78 37s-62.167 11.5 -97.5 11.5c-28.667 0 -57.5 -3 -86.5 -9s-55.167 -16 -78.5 -30s-42.333 -32.833 -57 -56.5
s-22 -53.167 -22 -88.5c0 -34.667 7 -62.834 21 -84.501s32.5 -39 55.5 -52s48.833 -23.167 77.5 -30.5l86 -21c27.333 -6.66699 55.833 -13.167 85.5 -19.5s56.667 -15.666 81 -27.999s44.333 -29 60 -50s23.5 -49.5 23.5 -85.5c0 -30.667 -6.83301 -57 -20.5 -79
s-31.5 -40 -53.5 -54s-46.833 -24.167 -74.5 -30.5s-55.5 -9.5 -83.5 -9.5c-38 0 -72.833 4.16699 -104.5 12.5s-59 21.833 -82 40.5s-40.833 42.834 -53.5 72.501s-19 65.834 -19 108.501h-20c-0.666992 -45.333 5.83301 -84 19.5 -116s33 -58.167 58 -78.5
s54.667 -35.166 89 -44.499s71.833 -14 112.5 -14c30.667 0 61 3.5 91 10.5s57 18.333 81 34s43.333 35.5 58 59.5s22 53 22 87c0 37.333 -6.5 67 -19.5 89s-30.5 39.667 -52.5 53s-47.833 24 -77.5 32l-94.5 25l-90 21c-29.333 6.66699 -55.5 16 -78.5 28
s-41.667 27.667 -56 47s-21.5 45 -21.5 77s7 58.5 21 79.5s31.833 37.833 53.5 50.5s45.834 21.5 72.501 26.5s52.334 7.5 77.001 7.5c32 0 62 -3.33301 90 -10s52.167 -17.834 72.5 -33.501s36.666 -36 48.999 -61s19.166 -55.833 20.499 -92.5z" />
    <glyph glyph-name="scaron" unicode="&#x161;" horiz-adv-x="463" 
d="M131 731h-20l114 -139h15l113 139h-20l-99 -123zM390 362l20.001 0.000976562c0 57.333 -16.667 99 -50 125s-78.666 39 -135.999 39c-32 0 -59 -4 -81 -12s-40 -18.333 -54 -31s-24 -26.667 -30 -42s-9 -30 -9 -44c0 -28 5 -50.333 15 -67s25.667 -29.667 47 -39
c14.667 -6.66699 31.334 -12.667 50.001 -18s40.334 -11 65.001 -17l65 -16c21.333 -5.33301 40.166 -12.5 56.499 -21.5s29.666 -20.5 39.999 -34.5s15.5 -32.333 15.5 -55c0 -22 -5.16699 -40.667 -15.5 -56s-23.5 -27.833 -39.5 -37.5s-33.833 -16.667 -53.5 -21
s-38.834 -6.5 -57.501 -6.5c-60.667 0 -107.167 13.5 -139.5 40.5s-48.5 69.5 -48.5 127.5h-20c0 -64.667 17.5 -112 52.5 -142s86.833 -45 155.5 -45c22 0 44.167 2.5 66.5 7.5s42.333 13.167 60 24.5s32 26 43 44s16.5 40 16.5 66c0 24.667 -4.83301 44.667 -14.5 60
s-22.334 28 -38.001 38s-33.334 17.833 -53.001 23.5l-59.5 16.5l-73.5 19c-21 5.33301 -40.5 11.666 -58.5 18.999c-17.333 7.33301 -31.166 17.833 -41.499 31.5s-15.5 33.167 -15.5 58.5c0 4.66699 1.33301 13 4 25s9 24.167 19 36.5s25.333 23.333 46 33
s49 14.5 85 14.5c24.667 0 47.167 -2.66699 67.5 -8s37.833 -13.833 52.5 -25.5s26 -26.5 34 -44.5s12 -40 12 -66z" />
    <glyph glyph-name="Tcedilla" unicode="&#x162;" 
d="M-16 694h256v-694h20v694h257v20h-533v-20zM169 -146c10.667 -4 22.001 -7.66797 34.001 -11.001s24.667 -5 38 -5c9.33301 0 18.666 0.833008 27.999 2.5s17.666 4.5 24.999 8.5s13.333 9.5 18 16.5s7 15.5 7 25.5c0 6.66699 -2 12.667 -6 18s-8.66699 9.5 -14 12.5
s-11.166 5.33301 -17.499 7s-12.166 2.5 -17.499 2.5c-21.333 0 -39.333 -4.33301 -54 -13l-15 10l57 72h20l-41 -55c4.66699 0.666992 9 1.83398 13 3.50098s10.667 2.5 20 2.5c19.333 0 36.666 -4.5 51.999 -13.5s23 -24.5 23 -46.5c0 -14.667 -2.66699 -26.667 -8 -36
s-12.5 -16.833 -21.5 -22.5s-19.333 -9.5 -31 -11.5s-24.167 -3 -37.5 -3c-17.333 0 -32.833 2 -46.5 6s-25.167 7.66699 -34.5 11l9 19v0z" />
    <glyph glyph-name="tcedilla" unicode="&#x163;" horiz-adv-x="241" 
d="M110 494h116.001v20h-116v162h-20v-162h-94v-20h94v-398c0 -36.667 8.16699 -61.834 24.5 -75.501s36.166 -20.5 59.499 -20.5c15.333 0 25.833 0.333008 31.5 1l17.5 2v20c-3.33301 -1.33301 -9 -2.16602 -17 -2.49902s-17 -0.5 -27 -0.5c-8 0 -16 0.5 -24 1.5
s-15.333 4.16699 -22 9.5s-12.167 13.333 -16.5 24s-6.5 25.667 -6.5 45v394zM30.001 -146c10.667 -4 22.001 -7.66797 34.001 -11.001s24.667 -5 38 -5c9.33301 0 18.666 0.833008 27.999 2.5s17.666 4.5 24.999 8.5s13.333 9.5 18 16.5s7 15.5 7 25.5
c0 6.66699 -2 12.667 -6 18s-8.66699 9.5 -14 12.5s-11.166 5.33301 -17.499 7s-12.166 2.5 -17.499 2.5c-21.333 0 -39.333 -4.33301 -54 -13l-15 10l57 72h20l-41 -55c4.66699 0.666992 9 1.83398 13 3.50098s10.667 2.5 20 2.5c19.333 0 36.666 -4.5 51.999 -13.5
s23 -24.5 23 -46.5c0 -14.667 -2.66699 -26.667 -8 -36s-12.5 -16.833 -21.5 -22.5s-19.333 -9.5 -31 -11.5s-24.167 -3 -37.5 -3c-17.333 0 -32.833 2 -46.5 6s-25.167 7.66699 -34.5 11l9 19v0z" />
    <glyph glyph-name="Tcaron" unicode="&#x164;" 
d="M-16 694h256v-694h20v694h257v20h-533v-20zM251 780l99 123h20l-113 -139h-15l-113 139h20z" />
    <glyph glyph-name="tcaron" unicode="&#x165;" horiz-adv-x="408" 
d="M110 494h116.001v20h-116v162h-20v-162h-94v-20h94v-398c0 -36.667 8.16699 -61.834 24.5 -75.501s36.166 -20.5 59.499 -20.5c15.333 0 25.833 0.333008 31.5 1l17.5 2v20c-3.33301 -1.33301 -9 -2.16602 -17 -2.49902s-17 -0.5 -27 -0.5c-8 0 -16 0.5 -24 1.5
s-15.333 4.16699 -22 9.5s-12.167 13.333 -16.5 24s-6.5 25.667 -6.5 45v394zM335.001 714h-20.002v-118c0 -25.333 -1.66699 -44.5 -5 -57.5s-10 -22.833 -20 -29.5v-20c8.66699 4.66699 15.834 9.5 21.501 14.5s10.334 11.5 14.001 19.5s6.16699 17.667 7.5 29s2 26 2 44
v118z" />
    <glyph glyph-name="Tbar" unicode="&#x166;" 
d="M260 436v-436h-20v436h-144v20h144v238h-256v20h533v-20h-257v-238h146v-20h-146z" />
    <glyph glyph-name="tbar" unicode="&#x167;" horiz-adv-x="241" 
d="M110 336l-0.000976562 -236c0 -19.333 2.16699 -34.333 6.5 -45s9.83301 -18.667 16.5 -24s14 -8.5 22 -9.5s16 -1.5 24 -1.5c10 0 19 0.166992 27 0.5s13.667 1.16602 17 2.49902v-20l-17.5 -2c-5.66699 -0.666992 -16.167 -1 -31.5 -1
c-23.333 0 -43.166 6.83301 -59.499 20.5s-24.5 38.834 -24.5 75.501v240h-94v20h94v138h-94v20h94v162h20v-162h116v-20h-116v-138h116v-20h-116z" />
    <glyph glyph-name="Utilde" unicode="&#x168;" horiz-adv-x="632" 
d="M558 714v-448c0 -86 -19.667 -151.333 -59 -196s-100.333 -67 -183 -67s-143.667 22.333 -183 67s-59 110 -59 196v448h-20v-448c0 -96 22.333 -167 67 -213s109.667 -69 195 -69s150.333 23 195 69s67 117 67 213v448h-20zM184 764c0 9.33301 1.83301 18.665 5.5 27.998
s8.66699 17.833 15 25.5s13.5 13.834 21.5 18.501s16.333 7 25 7c11.333 0 22.5 -3 33.5 -9s21.833 -12.667 32.5 -20s21 -14 31 -20s20 -9 30 -9c15.333 0 27.333 5.66699 36 17s13 24 13 38h20c0 -19.333 -5.66699 -36.666 -17 -51.999s-28.666 -23 -51.999 -23
c-12.667 0 -24.334 3 -35.001 9s-21 12.667 -31 20s-20 14 -30 20s-20.333 9 -31 9c-6.66699 0 -12.834 -1.83301 -18.501 -5.5s-10.667 -8.5 -15 -14.5s-7.66602 -12.5 -9.99902 -19.5s-3.5 -13.5 -3.5 -19.5h-20v0z" />
    <glyph glyph-name="utilde" unicode="&#x169;" 
d="M445 0v514.002h-20v-291c0 -28.667 -4 -56 -12 -82s-19.833 -48.833 -35.5 -68.5s-35.167 -35.334 -58.5 -47.001s-50.333 -17.5 -81 -17.5c-22 0 -42.833 3.16699 -62.5 9.5s-37 16.333 -52 30s-26.833 31 -35.5 52s-13 46.5 -13 76.5v338h-20v-341
c0 -30 4.5 -56.5 13.5 -79.5s21.667 -42.333 38 -58s35.666 -27.334 57.999 -35.001s46.833 -11.5 73.5 -11.5c50.667 0 91.834 13 123.501 39s52.167 59 61.5 99h2v-127h20zM118 567.002c0 9.33301 1.83301 18.665 5.5 27.998s8.66699 17.833 15 25.5
s13.5 13.834 21.5 18.501s16.333 7 25 7c11.333 0 22.5 -3 33.5 -9s21.833 -12.667 32.5 -20s21 -14 31 -20s20 -9 30 -9c15.333 0 27.333 5.66699 36 17s13 24 13 38h20c0 -19.333 -5.66699 -36.666 -17 -51.999s-28.666 -23 -51.999 -23c-12.667 0 -24.334 3 -35.001 9
s-21 12.667 -31 20s-20 14 -30 20s-20.333 9 -31 9c-6.66699 0 -12.834 -1.83301 -18.501 -5.5s-10.667 -8.5 -15 -14.5s-7.66602 -12.5 -9.99902 -19.5s-3.5 -13.5 -3.5 -19.5h-20v0z" />
    <glyph glyph-name="Umacron" unicode="&#x16a;" horiz-adv-x="632" 
d="M558 714v-448c0 -86 -19.667 -151.333 -59 -196s-100.333 -67 -183 -67s-143.667 22.333 -183 67s-59 110 -59 196v448h-20v-448c0 -96 22.333 -167 67 -213s109.667 -69 195 -69s150.333 23 195 69s67 117 67 213v448h-20zM200 764v20h231v-20h-231z" />
    <glyph glyph-name="umacron" unicode="&#x16b;" 
d="M445 0v514.002h-20v-291c0 -28.667 -4 -56 -12 -82s-19.833 -48.833 -35.5 -68.5s-35.167 -35.334 -58.5 -47.001s-50.333 -17.5 -81 -17.5c-22 0 -42.833 3.16699 -62.5 9.5s-37 16.333 -52 30s-26.833 31 -35.5 52s-13 46.5 -13 76.5v338h-20v-341
c0 -30 4.5 -56.5 13.5 -79.5s21.667 -42.333 38 -58s35.666 -27.334 57.999 -35.001s46.833 -11.5 73.5 -11.5c50.667 0 91.834 13 123.501 39s52.167 59 61.5 99h2v-127h20zM134 567.002v20h231v-20h-231z" />
    <glyph glyph-name="Ubreve" unicode="&#x16c;" horiz-adv-x="632" 
d="M558 714v-448c0 -86 -19.667 -151.333 -59 -196s-100.333 -67 -183 -67s-143.667 22.333 -183 67s-59 110 -59 196v448h-20v-448c0 -96 22.333 -167 67 -213s109.667 -69 195 -69s150.333 23 195 69s67 117 67 213v448h-20zM213 871c3.33301 -26 14.001 -47 32.001 -63
s40.333 -24 67 -24c28.667 0 52.667 7 72 21s30.666 36 33.999 66h20c-4 -34 -17.5 -60.333 -40.5 -79s-51.5 -28 -85.5 -28c-32.667 0 -59.667 9.83301 -81 29.5s-34 45.5 -38 77.5h20v0z" />
    <glyph glyph-name="ubreve" unicode="&#x16d;" 
d="M445 0v514.002h-20v-291c0 -28.667 -4 -56 -12 -82s-19.833 -48.833 -35.5 -68.5s-35.167 -35.334 -58.5 -47.001s-50.333 -17.5 -81 -17.5c-22 0 -42.833 3.16699 -62.5 9.5s-37 16.333 -52 30s-26.833 31 -35.5 52s-13 46.5 -13 76.5v338h-20v-341
c0 -30 4.5 -56.5 13.5 -79.5s21.667 -42.333 38 -58s35.666 -27.334 57.999 -35.001s46.833 -11.5 73.5 -11.5c50.667 0 91.834 13 123.501 39s52.167 59 61.5 99h2v-127h20zM147 674.002c3.33301 -26 14.001 -47 32.001 -63s40.333 -24 67 -24c28.667 0 52.667 7 72 21
s30.666 36 33.999 66h20c-4 -34 -17.5 -60.333 -40.5 -79s-51.5 -28 -85.5 -28c-32.667 0 -59.667 9.83301 -81 29.5s-34 45.5 -38 77.5h20v0z" />
    <glyph glyph-name="Uring" unicode="&#x16e;" horiz-adv-x="632" 
d="M558 714v-448c0 -86 -19.667 -151.333 -59 -196s-100.333 -67 -183 -67s-143.667 22.333 -183 67s-59 110 -59 196v448h-20v-448c0 -96 22.333 -167 67 -213s109.667 -69 195 -69s150.333 23 195 69s67 117 67 213v448h-20zM383 852c0 18.667 -6.66699 34.667 -20 48
s-29.333 20 -48 20s-34.5 -6.66699 -47.5 -20s-19.5 -29.333 -19.5 -48s6.5 -34.667 19.5 -48s28.833 -20 47.5 -20s34.667 6.66699 48 20s20 29.333 20 48zM403 852c0 -12 -2.33301 -23.333 -7 -34s-11 -20 -19 -28s-17.333 -14.333 -28 -19s-22 -7 -34 -7
c-24 0 -44.5 8.66699 -61.5 26s-25.5 38 -25.5 62s8.5 44.667 25.5 62s37.5 26 61.5 26c12 0 23.333 -2.33301 34 -7s20 -11 28 -19s14.333 -17.333 19 -28s7 -22 7 -34z" />
    <glyph glyph-name="uring" unicode="&#x16f;" 
d="M445 0v514.002h-20v-291c0 -28.667 -4 -56 -12 -82s-19.833 -48.833 -35.5 -68.5s-35.167 -35.334 -58.5 -47.001s-50.333 -17.5 -81 -17.5c-22 0 -42.833 3.16699 -62.5 9.5s-37 16.333 -52 30s-26.833 31 -35.5 52s-13 46.5 -13 76.5v338h-20v-341
c0 -30 4.5 -56.5 13.5 -79.5s21.667 -42.333 38 -58s35.666 -27.334 57.999 -35.001s46.833 -11.5 73.5 -11.5c50.667 0 91.834 13 123.501 39s52.167 59 61.5 99h2v-127h20zM317 655.002c0 18.667 -6.66699 34.667 -20 48s-29.333 20 -48 20s-34.5 -6.66699 -47.5 -20
s-19.5 -29.333 -19.5 -48s6.5 -34.667 19.5 -48s28.833 -20 47.5 -20s34.667 6.66699 48 20s20 29.333 20 48zM337 655.002c0 -12 -2.33301 -23.333 -7 -34s-11 -20 -19 -28s-17.333 -14.333 -28 -19s-22 -7 -34 -7c-24 0 -44.5 8.66699 -61.5 26s-25.5 38 -25.5 62
s8.5 44.667 25.5 62s37.5 26 61.5 26c12 0 23.333 -2.33301 34 -7s20 -11 28 -19s14.333 -17.333 19 -28s7 -22 7 -34z" />
    <glyph glyph-name="Uhungarumlaut" unicode="&#x170;" horiz-adv-x="632" 
d="M558 714v-448c0 -86 -19.667 -151.333 -59 -196s-100.333 -67 -183 -67s-143.667 22.333 -183 67s-59 110 -59 196v448h-20v-448c0 -96 22.333 -167 67 -213s109.667 -69 195 -69s150.333 23 195 69s67 117 67 213v448h-20zM325 764h-15l132 144h29zM176 764h-15l131 144
h29z" />
    <glyph glyph-name="uhungarumlaut" unicode="&#x171;" 
d="M445 0v514.002h-20v-291c0 -28.667 -4 -56 -12 -82s-19.833 -48.833 -35.5 -68.5s-35.167 -35.334 -58.5 -47.001s-50.333 -17.5 -81 -17.5c-22 0 -42.833 3.16699 -62.5 9.5s-37 16.333 -52 30s-26.833 31 -35.5 52s-13 46.5 -13 76.5v338h-20v-341
c0 -30 4.5 -56.5 13.5 -79.5s21.667 -42.333 38 -58s35.666 -27.334 57.999 -35.001s46.833 -11.5 73.5 -11.5c50.667 0 91.834 13 123.501 39s52.167 59 61.5 99h2v-127h20zM259 567.002h-15l132 144h29zM110 567.002h-15l131 144h29z" />
    <glyph glyph-name="Uogonek" unicode="&#x172;" horiz-adv-x="632" 
d="M558 714v-448c0 -86 -19.667 -151.333 -59 -196s-100.333 -67 -183 -67s-143.667 22.333 -183 67s-59 110 -59 196v448h-20v-448c0 -96 22.333 -167 67 -213s109.667 -69 195 -69s150.333 23 195 69s67 117 67 213v448h-20zM358 -13
c-38 -28.667 -64.6689 -52.4971 -80.002 -71.4971s-23 -36.833 -23 -53.5c0 -10.667 4 -20.834 12 -30.501s21.333 -14.5 40 -14.5c16 0 31 3.66699 45 11s24.667 14.666 32 21.999l14 -13c-9.33301 -9.33301 -21.666 -18 -36.999 -26s-34.666 -12 -57.999 -12
c-25.333 0 -43.333 6 -54 18s-16 26.667 -16 44c0 12 2.83301 23.667 8.5 35s13 22.166 22 32.499s19.167 20.333 30.5 30l35 28.5h29v0z" />
    <glyph glyph-name="uogonek" unicode="&#x173;" 
d="M445 0v514.002h-20v-291c0 -28.667 -4 -56 -12 -82s-19.833 -48.833 -35.5 -68.5s-35.167 -35.334 -58.5 -47.001s-50.333 -17.5 -81 -17.5c-22 0 -42.833 3.16699 -62.5 9.5s-37 16.333 -52 30s-26.833 31 -35.5 52s-13 46.5 -13 76.5v338h-20v-341
c0 -30 4.5 -56.5 13.5 -79.5s21.667 -42.333 38 -58s35.666 -27.334 57.999 -35.001s46.833 -11.5 73.5 -11.5c50.667 0 91.834 13 123.501 39s52.167 59 61.5 99h2v-127h20zM292 -7.99805c-38 -28.667 -64.6689 -52.4971 -80.002 -71.4971s-23 -36.833 -23 -53.5
c0 -10.667 4 -20.834 12 -30.501s21.333 -14.5 40 -14.5c16 0 31 3.66699 45 11s24.667 14.666 32 21.999l14 -13c-9.33301 -9.33301 -21.666 -18 -36.999 -26s-34.666 -12 -57.999 -12c-25.333 0 -43.333 6 -54 18s-16 26.667 -16 44c0 12 2.83301 23.667 8.5 35
s13 22.166 22 32.499s19.167 20.333 30.5 30l35 28.5h29v0z" />
    <glyph glyph-name="Wcircumflex" unicode="&#x174;" horiz-adv-x="870" 
d="M860 714l-199 -689h-2l-209 689h-29l-206 -689h-2l-202 689h-20l210 -714h27l206 689h2l210 -689h27l207 714h-20zM432 887l-98 -123h-20l112 139h15l114 -139h-20z" />
    <glyph glyph-name="wcircumflex" unicode="&#x175;" horiz-adv-x="685" 
d="M673 514l-156 -494h-2l-158 494h-31l-159 -494h-2l-153 494h-19l159 -514h28l161 494h2l160 -494h26l164 514h-20zM340 690l-98 -123h-20l112 139h15l114 -139h-20z" />
    <glyph glyph-name="Ycircumflex" unicode="&#x176;" horiz-adv-x="538" 
d="M544 714l-275 -392l-273 392h-25l288 -413v-301h20v301l289 413h-24zM266 887l-98 -123h-20l112 139h15l114 -139h-20z" />
    <glyph glyph-name="ycircumflex" unicode="&#x177;" horiz-adv-x="407" 
d="M398 514l-184 -487.001l-204 487h-21l214 -509l-37 -95c-6 -15.333 -12.5 -27.5 -19.5 -36.5s-15 -15.667 -24 -20s-19.667 -7 -32 -8s-27.166 -1.5 -44.499 -1.5v-20c15.333 0 29.833 0.5 43.5 1.5s26.167 3.83301 37.5 8.5s21.666 11.834 30.999 21.501
s17.333 23.167 24 40.5l237 618h-21zM201 689.999l-98 -123h-20l112 139h15l114 -139h-20z" />
    <glyph glyph-name="Ydieresis" unicode="&#x178;" horiz-adv-x="538" 
d="M337 768h20v81h-20v-81zM181 768h20v81h-20v-81zM544 714l-275 -392l-273 392h-25l288 -413v-301h20v301l289 413h-24z" />
    <glyph glyph-name="Zacute" unicode="&#x179;" 
d="M508 0h-526v27l498 667h-471v20h491v-27l-499 -667h507v-20zM204 765h-15l132 144h29z" />
    <glyph glyph-name="zacute" unicode="&#x17a;" horiz-adv-x="407" 
d="M402 0h-397v25l360 469h-333v20h354v-25l-360 -469h376v-20zM158 565h-15l132 144h29z" />
    <glyph glyph-name="Zdotaccent" unicode="&#x17b;" 
d="M508 0h-526v27l498 667h-471v20h491v-27l-499 -667h507v-20zM260 768h-20v81h20v-81z" />
    <glyph glyph-name="zdotaccent" unicode="&#x17c;" horiz-adv-x="407" 
d="M402 0h-397v25l360 469h-333v20h354v-25l-360 -469h376v-20zM218 568h-20v81h20v-81z" />
    <glyph glyph-name="Zcaron" unicode="&#x17d;" 
d="M149 931h-20l114 -139h15l113 139h-20l-99 -123zM508 20h-507l499 667v27h-491v-20h471l-498 -667v-27h526v20z" />
    <glyph glyph-name="zcaron" unicode="&#x17e;" horiz-adv-x="407" 
d="M103 731h-20l114 -139h15l113 139h-20l-99 -123zM402 20h-376l360 469v25h-354v-20h333l-360 -469v-25h397v20z" />
    <glyph glyph-name="longs" unicode="&#x17f;" horiz-adv-x="204" 
d="M0 514h86.998v114c0 20.667 3.16699 36.667 9.5 48s14.5 19.833 24.5 25.5s21 9.16699 33 10.5s23.333 2 34 2c9.33301 0 17.5 -0.5 24.5 -1.5s13.167 -1.83301 18.5 -2.5v-20c-9.33301 1.33301 -17.666 2.33301 -24.999 3s-14.666 1 -21.999 1
c-32 0 -52.833 -5.83301 -62.5 -17.5s-14.5 -30.167 -14.5 -55.5v-621h-20v494h-87v20z" />
    <glyph glyph-name="uni018E" unicode="&#x18e;" horiz-adv-x="537" 
d="M54 694v20h478v-714h-474v20h454v312h-427v20h427v342h-458z" />
    <glyph glyph-name="uni018F" unicode="&#x18f;" horiz-adv-x="701" 
d="M341 -16c-58 0 -106.666 9.83398 -145.999 29.501s-71 46.5 -95 80.5s-41.333 73.5 -52 118.5s-16 93.167 -16 144.5v25h617c-2 48 -10.833 92.167 -26.5 132.5s-37 75 -64 104s-59.333 51.667 -97 68s-79.5 24.5 -125.5 24.5c-32 0 -62.667 -4.5 -92 -13.5
s-55.833 -21.833 -79.5 -38.5s-44.167 -37.334 -61.5 -62.001s-30 -52.334 -38 -83.001h-20c6 30.667 17.667 59.334 35 86.001s38.833 49.667 64.5 69s54.667 34.5 87 45.5s66.166 16.5 101.499 16.5h3c53.333 0 100.666 -10 141.999 -30s76.333 -47 105 -81
s50.334 -73.667 65.001 -119s22 -93.333 22 -144c0 -51.333 -7.16699 -99.5 -21.5 -144.5s-35.333 -84.5 -63 -118.5s-62 -60.833 -103 -80.5s-88.167 -29.5 -141.5 -29.5zM341.001 3.00098c48 0 91.1699 8.83301 129.503 26.5s70.666 42.167 96.999 73.5
s46.666 68.666 60.999 111.999s21.5 90.666 21.5 141.999v5h-598v-5c0.666992 -51.333 6.66699 -98.666 18 -141.999s28.666 -80.666 51.999 -111.999s53 -55.833 89 -73.5s79.333 -26.5 130 -26.5z" />
    <glyph glyph-name="florin" unicode="&#x192;" horiz-adv-x="556" 
d="M189 -54l91.999 464.999h127l4 20h-127l37 184c7.33301 36.667 19.833 61.834 37.5 75.501s41.834 20.5 72.501 20.5c9.33301 0 18.5 -0.666992 27.5 -2s17.5 -2.66602 25.5 -3.99902l4 19c-16 4.66699 -34.333 7 -55 7c-36 0 -65.167 -8 -87.5 -24
s-37.166 -43 -44.499 -81l-39 -195h-119l-4 -20h119l-91 -461c-6 -31.333 -17.167 -56.833 -33.5 -76.5s-41.166 -29.5 -74.499 -29.5c-14 0 -28 2 -42 6l-5 -20c8 -2.66699 16.167 -4.33398 24.5 -5.00098s16.833 -1 25.5 -1c19.333 0 36.166 3.33301 50.499 10
s26.5 15.667 36.5 27s18.167 24.333 24.5 39s11.166 30 14.499 46z" />
    </font>
</defs>
</svg>
